<svg xmlns="http://www.w3.org/2000/svg" xmlns:xlink="http://www.w3.org/1999/xlink" xmlns:lucid="lucid" width="1578" height="3681"><g transform="translate(-44.228095088507416 949.2928830170803)" lucid:page-tab-id="0_0"><path d="M0-1000h2000v4000H0z" fill="#fff"/><path d="M701.06-928.3h299v437h-299z" stroke="#000" stroke-width="2" fill="#fff"/><path d="M701.06-890.7h299m-299 275.1h299" stroke="#000" stroke-width="2" fill="none"/><use xlink:href="#a" transform="matrix(1,0,0,1,709.0614284218408,-920.2928830170803) translate(113.025 14.6)"/><use xlink:href="#b" transform="matrix(1,0,0,1,713.0614284218408,-882.6928830170802) translate(0 25.600000000000016)"/><use xlink:href="#c" transform="matrix(1,0,0,1,713.0614284218408,-882.6928830170802) translate(29.9 25.600000000000016)"/><use xlink:href="#d" transform="matrix(1,0,0,1,713.0614284218408,-882.6928830170802) translate(0 47.20000000000002)"/><use xlink:href="#e" transform="matrix(1,0,0,1,713.0614284218408,-882.6928830170802) translate(57.85 47.20000000000002)"/><use xlink:href="#d" transform="matrix(1,0,0,1,713.0614284218408,-882.6928830170802) translate(0 68.80000000000003)"/><use xlink:href="#f" transform="matrix(1,0,0,1,713.0614284218408,-882.6928830170802) translate(57.85 68.80000000000003)"/><use xlink:href="#d" transform="matrix(1,0,0,1,713.0614284218408,-882.6928830170802) translate(0 90.40000000000003)"/><use xlink:href="#g" transform="matrix(1,0,0,1,713.0614284218408,-882.6928830170802) translate(57.85 90.40000000000003)"/><use xlink:href="#d" transform="matrix(1,0,0,1,713.0614284218408,-882.6928830170802) translate(0 112.00000000000003)"/><use xlink:href="#h" transform="matrix(1,0,0,1,713.0614284218408,-882.6928830170802) translate(57.85 112.00000000000003)"/><use xlink:href="#i" transform="matrix(1,0,0,1,713.0614284218408,-882.6928830170802) translate(0 133.60000000000002)"/><use xlink:href="#j" transform="matrix(1,0,0,1,713.0614284218408,-882.6928830170802) translate(48.900000000000006 133.60000000000002)"/><use xlink:href="#d" transform="matrix(1,0,0,1,713.0614284218408,-882.6928830170802) translate(0 155.20000000000002)"/><use xlink:href="#k" transform="matrix(1,0,0,1,713.0614284218408,-882.6928830170802) translate(57.85 155.20000000000002)"/><use xlink:href="#i" transform="matrix(1,0,0,1,713.0614284218408,-882.6928830170802) translate(0 176.8)"/><use xlink:href="#l" transform="matrix(1,0,0,1,713.0614284218408,-882.6928830170802) translate(48.900000000000006 176.8)"/><use xlink:href="#d" transform="matrix(1,0,0,1,713.0614284218408,-882.6928830170802) translate(0 198.4)"/><use xlink:href="#m" transform="matrix(1,0,0,1,713.0614284218408,-882.6928830170802) translate(57.85 198.4)"/><use xlink:href="#n" transform="matrix(1,0,0,1,713.0614284218408,-882.6928830170802) translate(0 220)"/><use xlink:href="#o" transform="matrix(1,0,0,1,713.0614284218408,-882.6928830170802) translate(64.9 220)"/><use xlink:href="#n" transform="matrix(1,0,0,1,713.0614284218408,-882.6928830170802) translate(0 241.6)"/><use xlink:href="#p" transform="matrix(1,0,0,1,713.0614284218408,-882.6928830170802) translate(64.9 241.6)"/><use xlink:href="#q" transform="matrix(1,0,0,1,713.0614284218408,-607.5928830170803) translate(0 25.19999999999999)"/><use xlink:href="#r" transform="matrix(1,0,0,1,713.0614284218408,-607.5928830170803) translate(0 46.79999999999999)"/><use xlink:href="#s" transform="matrix(1,0,0,1,713.0614284218408,-607.5928830170803) translate(0 68.39999999999999)"/><use xlink:href="#t" transform="matrix(1,0,0,1,713.0614284218408,-607.5928830170803) translate(0 90)"/><path d="M1189.23 231.2h412v199h-412z" stroke="#000" stroke-width="2" fill="#fff"/><path d="M1189.23 268.8h412m-412 59.1h412" stroke="#000" stroke-width="2" fill="none"/><use xlink:href="#u" transform="matrix(1,0,0,1,1197.2280950885074,239.20711698291973) translate(167 14.6)"/><use xlink:href="#v" transform="matrix(1,0,0,1,1201.2280950885074,276.80711698291975) translate(0 25.6)"/><use xlink:href="#w" transform="matrix(1,0,0,1,1201.2280950885074,276.80711698291975) translate(181.34999999999997 25.6)"/><use xlink:href="#x" transform="matrix(1,0,0,1,1201.2280950885074,335.9071169829198) translate(0 25.5)"/><use xlink:href="#y" transform="matrix(1,0,0,1,1201.2280950885074,335.9071169829198) translate(0 47.1)"/><use xlink:href="#z" transform="matrix(1,0,0,1,1201.2280950885074,335.9071169829198) translate(0 68.7)"/><path d="M612.23 231.2h377v199h-377z" stroke="#000" stroke-width="2" fill="#fff"/><path d="M612.23 268.8h377m-377 59.1h377" stroke="#000" stroke-width="2" fill="none"/><use xlink:href="#A" transform="matrix(1,0,0,1,620.2280950885074,239.20711698291973) translate(147.55 14.6)"/><use xlink:href="#v" transform="matrix(1,0,0,1,624.2280950885074,276.80711698291975) translate(0 25.6)"/><use xlink:href="#B" transform="matrix(1,0,0,1,624.2280950885074,276.80711698291975) translate(181.34999999999997 25.6)"/><use xlink:href="#C" transform="matrix(1,0,0,1,624.2280950885074,335.9071169829198) translate(0 25.5)"/><use xlink:href="#D" transform="matrix(1,0,0,1,624.2280950885074,335.9071169829198) translate(0 47.1)"/><use xlink:href="#E" transform="matrix(1,0,0,1,624.2280950885074,335.9071169829198) translate(0 68.7)"/><path d="M65.23 97.7h347v350h-347z" stroke="#000" stroke-width="2" fill="#fff"/><path d="M65.23 135.3h347m-347 145.5h347" stroke="#000" stroke-width="2" fill="none"/><use xlink:href="#F" transform="matrix(1,0,0,1,73.22809508850742,105.70711698291973) translate(136.55 14.6)"/><use xlink:href="#d" transform="matrix(1,0,0,1,77.22809508850742,143.30711698291972) translate(0 25.39999999999999)"/><use xlink:href="#G" transform="matrix(1,0,0,1,77.22809508850742,143.30711698291972) translate(57.85 25.39999999999999)"/><use xlink:href="#d" transform="matrix(1,0,0,1,77.22809508850742,143.30711698291972) translate(0 46.99999999999999)"/><use xlink:href="#H" transform="matrix(1,0,0,1,77.22809508850742,143.30711698291972) translate(57.85 46.99999999999999)"/><use xlink:href="#n" transform="matrix(1,0,0,1,77.22809508850742,143.30711698291972) translate(0 68.6)"/><use xlink:href="#I" transform="matrix(1,0,0,1,77.22809508850742,143.30711698291972) translate(64.9 68.6)"/><use xlink:href="#d" transform="matrix(1,0,0,1,77.22809508850742,143.30711698291972) translate(0 90.20000000000002)"/><use xlink:href="#J" transform="matrix(1,0,0,1,77.22809508850742,143.30711698291972) translate(57.85 90.20000000000002)"/><use xlink:href="#v" transform="matrix(1,0,0,1,77.22809508850742,143.30711698291972) translate(0 111.80000000000001)"/><use xlink:href="#K" transform="matrix(1,0,0,1,77.22809508850742,143.30711698291972) translate(181.34999999999997 111.80000000000001)"/><use xlink:href="#L" transform="matrix(1,0,0,1,77.22809508850742,288.80711698291975) translate(0 25.6)"/><use xlink:href="#M" transform="matrix(1,0,0,1,77.22809508850742,288.80711698291975) translate(0 47.2)"/><use xlink:href="#N" transform="matrix(1,0,0,1,77.22809508850742,288.80711698291975) translate(0 68.80000000000001)"/><use xlink:href="#O" transform="matrix(1,0,0,1,77.22809508850742,288.80711698291975) translate(0 90.40000000000002)"/><use xlink:href="#P" transform="matrix(1,0,0,1,77.22809508850742,288.80711698291975) translate(0 112.00000000000001)"/><use xlink:href="#Q" transform="matrix(1,0,0,1,77.22809508850742,288.80711698291975) translate(0 133.6)"/><path d="M653.23 857.7h295v350h-295z" stroke="#000" stroke-width="2" fill="#fff"/><path d="M653.23 895.3h295m-295 188.7h295" stroke="#000" stroke-width="2" fill="none"/><use xlink:href="#R" transform="matrix(1,0,0,1,661.2280950885074,865.7071169829197) translate(78.77499999999999 14.6)"/><use xlink:href="#d" transform="matrix(1,0,0,1,665.2280950885074,903.3071169829198) translate(0 25.300000000000004)"/><use xlink:href="#S" transform="matrix(1,0,0,1,665.2280950885074,903.3071169829198) translate(57.85 25.300000000000004)"/><use xlink:href="#i" transform="matrix(1,0,0,1,665.2280950885074,903.3071169829198) translate(0 46.900000000000006)"/><use xlink:href="#T" transform="matrix(1,0,0,1,665.2280950885074,903.3071169829198) translate(48.900000000000006 46.900000000000006)"/><use xlink:href="#d" transform="matrix(1,0,0,1,665.2280950885074,903.3071169829198) translate(0 68.50000000000001)"/><use xlink:href="#U" transform="matrix(1,0,0,1,665.2280950885074,903.3071169829198) translate(57.85 68.50000000000001)"/><use xlink:href="#V" transform="matrix(1,0,0,1,665.2280950885074,903.3071169829198) translate(0 90.10000000000002)"/><use xlink:href="#W" transform="matrix(1,0,0,1,665.2280950885074,903.3071169829198) translate(72.95 90.10000000000002)"/><use xlink:href="#X" transform="matrix(1,0,0,1,665.2280950885074,903.3071169829198) translate(0 111.70000000000002)"/><use xlink:href="#Y" transform="matrix(1,0,0,1,665.2280950885074,903.3071169829198) translate(76.85000000000001 111.70000000000002)"/><use xlink:href="#Z" transform="matrix(1,0,0,1,665.2280950885074,903.3071169829198) translate(0 133.3)"/><use xlink:href="#aa" transform="matrix(1,0,0,1,665.2280950885074,903.3071169829198) translate(68.85000000000001 133.3)"/><use xlink:href="#ab" transform="matrix(1,0,0,1,665.2280950885074,903.3071169829198) translate(0 154.9)"/><use xlink:href="#ac" transform="matrix(1,0,0,1,665.2280950885074,903.3071169829198) translate(87.85000000000001 154.9)"/><use xlink:href="#ad" transform="matrix(1,0,0,1,665.2280950885074,1092.0071169829198) translate(0 25.19999999999999)"/><use xlink:href="#ae" transform="matrix(1,0,0,1,665.2280950885074,1092.0071169829198) translate(0 46.79999999999999)"/><use xlink:href="#af" transform="matrix(1,0,0,1,665.2280950885074,1092.0071169829198) translate(0 68.39999999999999)"/><use xlink:href="#ag" transform="matrix(1,0,0,1,665.2280950885074,1092.0071169829198) translate(0 90)"/><path d="M635.9 2403.7h347v307h-347z" stroke="#000" stroke-width="2" fill="#fff"/><path d="M635.9 2441.3h347m-347 145.5h347" stroke="#000" stroke-width="2" fill="none"/><g><use xlink:href="#ah" transform="matrix(1,0,0,1,643.8947617551742,2411.7071169829196) translate(127.05 14.6)"/></g><g><use xlink:href="#d" transform="matrix(1,0,0,1,647.8947617551742,2449.3071169829195) translate(0 25.39999999999999)"/><use xlink:href="#ai" transform="matrix(1,0,0,1,647.8947617551742,2449.3071169829195) translate(57.85 25.39999999999999)"/><use xlink:href="#i" transform="matrix(1,0,0,1,647.8947617551742,2449.3071169829195) translate(0 46.99999999999999)"/><use xlink:href="#aj" transform="matrix(1,0,0,1,647.8947617551742,2449.3071169829195) translate(48.900000000000006 46.99999999999999)"/><use xlink:href="#i" transform="matrix(1,0,0,1,647.8947617551742,2449.3071169829195) translate(0 68.6)"/><use xlink:href="#ak" transform="matrix(1,0,0,1,647.8947617551742,2449.3071169829195) translate(48.900000000000006 68.6)"/><use xlink:href="#v" transform="matrix(1,0,0,1,647.8947617551742,2449.3071169829195) translate(0 90.20000000000002)"/><use xlink:href="#al" transform="matrix(1,0,0,1,647.8947617551742,2449.3071169829195) translate(181.34999999999997 90.20000000000002)"/><use xlink:href="#am" transform="matrix(1,0,0,1,647.8947617551742,2449.3071169829195) translate(0 111.80000000000001)"/><use xlink:href="#an" transform="matrix(1,0,0,1,647.8947617551742,2449.3071169829195) translate(138.05 111.80000000000001)"/></g><g><use xlink:href="#ao" transform="matrix(1,0,0,1,647.8947617551742,2594.8071169829195) translate(0 25.19999999999999)"/><use xlink:href="#ap" transform="matrix(1,0,0,1,647.8947617551742,2594.8071169829195) translate(0 46.79999999999999)"/><use xlink:href="#P" transform="matrix(1,0,0,1,647.8947617551742,2594.8071169829195) translate(0 68.39999999999999)"/><use xlink:href="#Q" transform="matrix(1,0,0,1,647.8947617551742,2594.8071169829195) translate(0 90)"/></g><path d="M610.06 1670.7h283v307h-283z" stroke="#000" stroke-width="2" fill="#fff"/><path d="M610.06 1708.3h283m-283 145.5h283" stroke="#000" stroke-width="2" fill="none"/><g><use xlink:href="#aq" transform="matrix(1,0,0,1,618.0614284218408,1678.7071169829196) translate(94.425 14.6)"/></g><g><use xlink:href="#d" transform="matrix(1,0,0,1,622.0614284218408,1716.3071169829195) translate(0 25.39999999999999)"/><use xlink:href="#ar" transform="matrix(1,0,0,1,622.0614284218408,1716.3071169829195) translate(57.85 25.39999999999999)"/><use xlink:href="#d" transform="matrix(1,0,0,1,622.0614284218408,1716.3071169829195) translate(0 46.99999999999999)"/><use xlink:href="#ai" transform="matrix(1,0,0,1,622.0614284218408,1716.3071169829195) translate(57.85 46.99999999999999)"/><use xlink:href="#d" transform="matrix(1,0,0,1,622.0614284218408,1716.3071169829195) translate(0 68.6)"/><use xlink:href="#S" transform="matrix(1,0,0,1,622.0614284218408,1716.3071169829195) translate(57.85 68.6)"/><use xlink:href="#as" transform="matrix(1,0,0,1,622.0614284218408,1716.3071169829195) translate(0 90.20000000000002)"/><use xlink:href="#at" transform="matrix(1,0,0,1,622.0614284218408,1716.3071169829195) translate(132.40000000000003 90.20000000000002)"/><use xlink:href="#ab" transform="matrix(1,0,0,1,622.0614284218408,1716.3071169829195) translate(0 111.80000000000001)"/><use xlink:href="#ac" transform="matrix(1,0,0,1,622.0614284218408,1716.3071169829195) translate(87.85000000000001 111.80000000000001)"/></g><g><use xlink:href="#au" transform="matrix(1,0,0,1,622.0614284218408,1861.8071169829195) translate(0 25.19999999999999)"/><use xlink:href="#av" transform="matrix(1,0,0,1,622.0614284218408,1861.8071169829195) translate(0 46.79999999999999)"/><use xlink:href="#ao" transform="matrix(1,0,0,1,622.0614284218408,1861.8071169829195) translate(0 68.39999999999999)"/><use xlink:href="#aw" transform="matrix(1,0,0,1,622.0614284218408,1861.8071169829195) translate(0 90)"/></g><path d="M1389.25-2.77l1 .08.98.25.94.4.87.52.77.66.67.77.53.87.4.94.22 1 .08 1v226h-.95V3.74l-.07-.9-.2-.83-.33-.8-.45-.74-.57-.66-.66-.56-.73-.45-.8-.35-.85-.2-.9-.07h-325.1v-.95zM901.17-7.43l.2.84.33.8.45.75.57.66.66.58.74.45.8.33.84.2.88.07h69.6v.95H906.6l-1-.08-.98-.23-.94-.4-.86-.52-.78-.66-.66-.8-.53-.85-.4-.94-.22-.98-.08-1v-458.86h.95V-8.3z" stroke="#000" stroke-width=".05"/><path d="M913.12-467.64h-25l12.5-21.65z" fill="#fff"/><path d="M913.95-467.17H887.3l13.32-23.07zm-25-.95h23.35l-11.68-20.22z" stroke="#000" stroke-width=".05"/><path d="M1395.7 230.2h-.95v-.5h.95z"/><path stroke="#000" stroke-width=".05"/><g><use xlink:href="#ax" transform="matrix(1,0,0,1,976.2504635095602,-13.092883017080272) translate(0 14.4)"/></g><path d="M801.2 229.7h-.95v-348.94h.95zm-.23-370.54h-.95v-326.3h.96z" stroke="#000" stroke-width=".05"/><path d="M813-467.64h-25l12.5-21.65z" fill="#fff"/><path d="M813.82-467.17h-26.64l13.32-23.07zm-25-.95h23.36l-11.68-20.22z" stroke="#000" stroke-width=".05"/><path d="M801.2 230.2h-.95v-.5h.95z"/><path stroke="#000" stroke-width=".05"/><g><use xlink:href="#ax" transform="matrix(1,0,0,1,756.6890600007882,-140.84288301708025) translate(0 14.4)"/></g><path d="M1212.9 758.18H880.93l-.88.07-.85.2-.8.34-.75.44-.66.56-.57.66-.45.74-.33.8-.2.84-.08.9v92.47h-.95v-92.5l.08-1 .24-1 .4-.93.52-.87.66-.77.77-.66.86-.53.94-.4 1-.23.98-.07h332.03zm182.8-6.45l-.08 1-.23.98-.4.95-.53.86-.66.8-.76.65-.87.53-.94.4-1 .22-.98.08H1284.7v-.95h104.5l.9-.07.84-.2.8-.33.73-.45.66-.57.57-.65.45-.74.33-.8.2-.83.07-.88v-320h.95z" stroke="#000" stroke-width=".05"/><path d="M1395.7 431.72h-.95v-.5h.95z"/><path stroke="#000" stroke-width=".05"/><path d="M875.38 856.7h-.96v-.5h.96z"/><path stroke="#000" stroke-width=".05"/><g><use xlink:href="#ay" transform="matrix(1,0,0,1,1212.9138093742217,746.9071169829198) translate(0 14.4)"/><use xlink:href="#az" transform="matrix(1,0,0,1,1212.9138093742217,746.9071169829198) translate(57.85000000000001 14.4)"/></g><path d="M801.2 856.2h-.95V654.77h.95zm0-223.04h-.95V431.7h.95z" stroke="#000" stroke-width=".05"/><path d="M801.2 431.72h-.95v-.5h.95z"/><path stroke="#000" stroke-width=".05"/><path d="M801.2 856.7h-.95v-.5h.95z"/><path stroke="#000" stroke-width=".05"/><g><use xlink:href="#aA" transform="matrix(1,0,0,1,769.2280950885074,633.1571169829198) translate(0 14.4)"/></g><path d="M720.58 757.23l1 .08.98.25.94.4.86.52.78.66.66.77.53.87.4.94.22 1 .08 1v92.5h-.95v-92.47l-.07-.9-.2-.83-.32-.8-.46-.74-.56-.66-.66-.56-.74-.45-.8-.35-.84-.2-.88-.07h-328.4v-.95zm-481.3-4.66l.2.84.33.82.46.73.56.66.66.58.74.45.8.33.84.2.9.07h118.38v.95H244.7l-.98-.08-1-.23-.93-.4-.88-.52-.77-.66-.66-.8-.54-.85-.4-.94-.23-.98-.08-1v-302.5h.95v302.47z" stroke="#000" stroke-width=".05"/><path d="M239.2 449.22h-.95v-.5h.95z"/><path stroke="#000" stroke-width=".05"/><path d="M727.03 856.7h-.95v-.5h.95z"/><path stroke="#000" stroke-width=".05"/><g><use xlink:href="#aB" transform="matrix(1,0,0,1,363.1423808027931,746.9071169829198) translate(0 14.4)"/></g><path d="M993.54 2297.73l-.08 1-.24.98-.4.95-.52.86-.66.8-.77.65-.87.53-.94.4-.98.22-1 .08H873.62l-.88.07-.84.2-.8.34-.74.44-.66.56-.56.66-.46.74-.33.8-.2.84-.07.9v92.47h-.95v-92.5l.08-1 .25-1 .38-.93.53-.87.66-.77.78-.66.87-.53.93-.4 1-.23 1-.07h113.44l.88-.07.85-.2.8-.33.74-.45.67-.57.56-.65.45-.73.34-.8.2-.85.07-.88v-489.9h.94zm-142.9-733.04l.08.87.2.84.33.8.46.75.57.66.66.58.74.45.8.33.84.2.9.07h130.88l1 .08.98.25.94.4.87.52.77.66.66.77.53.87.4.94.23 1 .08 1v209.5h-.95v-209.47l-.08-.9-.2-.83-.34-.8-.45-.74-.56-.66-.66-.56-.73-.45-.8-.35-.85-.2-.88-.07H856.16l-1-.08-1-.23-.92-.4-.87-.52-.77-.66-.66-.8-.54-.85-.38-.94-.24-.98-.08-1v-355.5h.95z" stroke="#000" stroke-width=".05"/><path d="M868.08 2402.7h-.95v-.5h.95z"/><path stroke="#000" stroke-width=".05"/><path d="M850.65 1209.22h-.95v-.5h.95z"/><path stroke="#000" stroke-width=".05"/><g><use xlink:href="#aC" transform="matrix(1,0,0,1,959.5864284218408,1786.1925443134608) translate(0 14.4)"/></g><path d="M752.04 1669.2h-.95l-.03-219.2h.95zm-.28-240.8h-.96v-219.2h.96z" stroke="#000" stroke-width=".05"/><path d="M751.75 1209.22h-.95v-.5h.96z"/><path stroke="#000" stroke-width=".05"/><path d="M752.04 1669.7h-.95v-.5h.94z"/><path stroke="#000" stroke-width=".05"/><g><use xlink:href="#aD" transform="matrix(1,0,0,1,700.9709522313647,1428.4071169829197) translate(0 14.4)"/><use xlink:href="#az" transform="matrix(1,0,0,1,700.9709522313647,1428.4071169829197) translate(86.95 14.4)"/></g><path d="M751.66 2402.2h-.95l.02-200.7h.95zm.38-222.3h-.95v-200.7h.94z" stroke="#000" stroke-width=".05"/><path d="M752.04 1979.22h-.95v-.5h.94z"/><path stroke="#000" stroke-width=".05"/><path d="M751.66 2402.7h-.95v-.5h.96z"/><path stroke="#000" stroke-width=".05"/><g><use xlink:href="#aE" transform="matrix(1,0,0,1,709.8980462285725,2179.9071169829194) translate(0 14.4)"/><use xlink:href="#aF" transform="matrix(1,0,0,1,709.8980462285725,2179.9071169829194) translate(67.95 14.4)"/></g><defs><path d="M30-248c87 1 191-15 191 75 0 78-77 80-158 76V0H30v-248zm33 125c57 0 124 11 124-50 0-59-68-47-124-48v98" id="aG"/><path d="M100-194c63 0 86 42 84 106H49c0 40 14 67 53 68 26 1 43-12 49-29l28 8c-11 28-37 45-77 45C44 4 14-33 15-96c1-61 26-98 85-98zm52 81c6-60-76-77-97-28-3 7-6 17-6 28h103" id="aH"/><path d="M114-163C36-179 61-72 57 0H25l-1-190h30c1 12-1 29 2 39 6-27 23-49 58-41v29" id="aI"/><path d="M135-143c-3-34-86-38-87 0 15 53 115 12 119 90S17 21 10-45l28-5c4 36 97 45 98 0-10-56-113-15-118-90-4-57 82-63 122-42 12 7 21 19 24 35" id="aJ"/><path d="M100-194c62-1 85 37 85 99 1 63-27 99-86 99S16-35 15-95c0-66 28-99 85-99zM99-20c44 1 53-31 53-75 0-43-8-75-51-75s-53 32-53 75 10 74 51 75" id="aK"/><path d="M117-194c89-4 53 116 60 194h-32v-121c0-31-8-49-39-48C34-167 62-67 57 0H25l-1-190h30c1 10-1 24 2 32 11-22 29-35 61-36" id="aL"/><g id="a"><use transform="matrix(0.05,0,0,0.05,0,0)" xlink:href="#aG"/><use transform="matrix(0.05,0,0,0.05,12,0)" xlink:href="#aH"/><use transform="matrix(0.05,0,0,0.05,22,0)" xlink:href="#aI"/><use transform="matrix(0.05,0,0,0.05,27.950000000000003,0)" xlink:href="#aJ"/><use transform="matrix(0.05,0,0,0.05,36.95,0)" xlink:href="#aK"/><use transform="matrix(0.05,0,0,0.05,46.95,0)" xlink:href="#aL"/></g><path d="M16-82v-28h88v28H16" id="aM"/><path d="M24-231v-30h32v30H24zM24 0v-190h32V0H24" id="aN"/><path d="M59-47c-2 24 18 29 38 22v24C64 9 27 4 27-40v-127H5v-23h24l9-43h21v43h35v23H59v120" id="aO"/><g id="b"><use transform="matrix(0.05,0,0,0.05,0,0)" xlink:href="#aM"/><use transform="matrix(0.05,0,0,0.05,5.95,0)" xlink:href="#aN"/><use transform="matrix(0.05,0,0,0.05,9.9,0)" xlink:href="#aL"/><use transform="matrix(0.05,0,0,0.05,19.9,0)" xlink:href="#aO"/></g><path d="M115-194c55 1 70 41 70 98S169 2 115 4C84 4 66-9 55-30l1 105H24l-1-265h31l2 30c10-21 28-34 59-34zm-8 174c40 0 45-34 45-75s-6-73-45-74c-42 0-51 32-51 76 0 43 10 73 51 73" id="aP"/><path d="M33 0v-248h34V0H33" id="aQ"/><path d="M85-194c31 0 48 13 60 33l-1-100h32l1 261h-30c-2-10 0-23-3-31C134-8 116 4 85 4 32 4 16-35 15-94c0-66 23-100 70-100zm9 24c-40 0-46 34-46 75 0 40 6 74 45 74 42 0 51-32 51-76 0-42-9-74-50-73" id="aR"/><g id="c"><use transform="matrix(0.05,0,0,0.05,0,0)" xlink:href="#aP"/><use transform="matrix(0.05,0,0,0.05,10,0)" xlink:href="#aH"/><use transform="matrix(0.05,0,0,0.05,20,0)" xlink:href="#aI"/><use transform="matrix(0.05,0,0,0.05,25.950000000000003,0)" xlink:href="#aJ"/><use transform="matrix(0.05,0,0,0.05,34.95,0)" xlink:href="#aK"/><use transform="matrix(0.05,0,0,0.05,44.95,0)" xlink:href="#aL"/><use transform="matrix(0.05,0,0,0.05,54.95,0)" xlink:href="#aQ"/><use transform="matrix(0.05,0,0,0.05,59.95,0)" xlink:href="#aR"/></g><path d="M185-189c-5-48-123-54-124 2 14 75 158 14 163 119 3 78-121 87-175 55-17-10-28-26-33-46l33-7c5 56 141 63 141-1 0-78-155-14-162-118-5-82 145-84 179-34 5 7 8 16 11 25" id="aS"/><path d="M177-190C167-65 218 103 67 71c-23-6-38-20-44-43l32-5c15 47 100 32 89-28v-30C133-14 115 1 83 1 29 1 15-40 15-95c0-56 16-97 71-98 29-1 48 16 59 35 1-10 0-23 2-32h30zM94-22c36 0 50-32 50-73 0-42-14-75-50-75-39 0-46 34-46 75s6 73 46 73" id="aT"/><g id="d"><use transform="matrix(0.05,0,0,0.05,0,0)" xlink:href="#aM"/><use transform="matrix(0.05,0,0,0.05,5.95,0)" xlink:href="#aS"/><use transform="matrix(0.05,0,0,0.05,17.95,0)" xlink:href="#aO"/><use transform="matrix(0.05,0,0,0.05,22.95,0)" xlink:href="#aI"/><use transform="matrix(0.05,0,0,0.05,28.899999999999995,0)" xlink:href="#aN"/><use transform="matrix(0.05,0,0,0.05,32.85,0)" xlink:href="#aL"/><use transform="matrix(0.05,0,0,0.05,42.85,0)" xlink:href="#aT"/></g><path d="M190 0L58-211 59 0H30v-248h39L202-35l-2-213h31V0h-41" id="aU"/><path d="M141-36C126-15 110 5 73 4 37 3 15-17 15-53c-1-64 63-63 125-63 3-35-9-54-41-54-24 1-41 7-42 31l-33-3c5-37 33-52 76-52 45 0 72 20 72 64v82c-1 20 7 32 28 27v20c-31 9-61-2-59-35zM48-53c0 20 12 33 32 33 41-3 63-29 60-74-43 2-92-5-92 41" id="aV"/><path d="M210-169c-67 3-38 105-44 169h-31v-121c0-29-5-50-35-48C34-165 62-65 56 0H25l-1-190h30c1 10-1 24 2 32 10-44 99-50 107 0 11-21 27-35 58-36 85-2 47 119 55 194h-31v-121c0-29-5-49-35-48" id="aW"/><g id="e"><use transform="matrix(0.05,0,0,0.05,0,0)" xlink:href="#aP"/><use transform="matrix(0.05,0,0,0.05,10,0)" xlink:href="#aH"/><use transform="matrix(0.05,0,0,0.05,20,0)" xlink:href="#aI"/><use transform="matrix(0.05,0,0,0.05,25.950000000000003,0)" xlink:href="#aJ"/><use transform="matrix(0.05,0,0,0.05,34.95,0)" xlink:href="#aK"/><use transform="matrix(0.05,0,0,0.05,44.95,0)" xlink:href="#aL"/><use transform="matrix(0.05,0,0,0.05,54.95,0)" xlink:href="#aU"/><use transform="matrix(0.05,0,0,0.05,67.9,0)" xlink:href="#aV"/><use transform="matrix(0.05,0,0,0.05,77.9,0)" xlink:href="#aW"/><use transform="matrix(0.05,0,0,0.05,92.85000000000001,0)" xlink:href="#aH"/></g><path d="M30 0v-248h187v28H63v79h144v27H63v87h162V0H30" id="aX"/><path d="M24 0v-261h32V0H24" id="aY"/><g id="f"><use transform="matrix(0.05,0,0,0.05,0,0)" xlink:href="#aP"/><use transform="matrix(0.05,0,0,0.05,10,0)" xlink:href="#aH"/><use transform="matrix(0.05,0,0,0.05,20,0)" xlink:href="#aI"/><use transform="matrix(0.05,0,0,0.05,25.950000000000003,0)" xlink:href="#aJ"/><use transform="matrix(0.05,0,0,0.05,34.95,0)" xlink:href="#aK"/><use transform="matrix(0.05,0,0,0.05,44.95,0)" xlink:href="#aL"/><use transform="matrix(0.05,0,0,0.05,54.95,0)" xlink:href="#aX"/><use transform="matrix(0.05,0,0,0.05,66.95,0)" xlink:href="#aW"/><use transform="matrix(0.05,0,0,0.05,81.9,0)" xlink:href="#aV"/><use transform="matrix(0.05,0,0,0.05,91.9,0)" xlink:href="#aN"/><use transform="matrix(0.05,0,0,0.05,95.85000000000001,0)" xlink:href="#aY"/></g><path d="M106-169C34-169 62-67 57 0H25v-261h32l-1 103c12-21 28-36 61-36 89 0 53 116 60 194h-32v-121c2-32-8-49-39-48" id="aZ"/><g id="g"><use transform="matrix(0.05,0,0,0.05,0,0)" xlink:href="#aP"/><use transform="matrix(0.05,0,0,0.05,10,0)" xlink:href="#aH"/><use transform="matrix(0.05,0,0,0.05,20,0)" xlink:href="#aI"/><use transform="matrix(0.05,0,0,0.05,25.950000000000003,0)" xlink:href="#aJ"/><use transform="matrix(0.05,0,0,0.05,34.95,0)" xlink:href="#aK"/><use transform="matrix(0.05,0,0,0.05,44.95,0)" xlink:href="#aL"/><use transform="matrix(0.05,0,0,0.05,54.95,0)" xlink:href="#aG"/><use transform="matrix(0.05,0,0,0.05,66.95,0)" xlink:href="#aZ"/><use transform="matrix(0.05,0,0,0.05,76.95,0)" xlink:href="#aK"/><use transform="matrix(0.05,0,0,0.05,86.95,0)" xlink:href="#aL"/><use transform="matrix(0.05,0,0,0.05,96.95,0)" xlink:href="#aH"/></g><path d="M127-220V0H93v-220H8v-28h204v28h-85" id="ba"/><path d="M179-190L93 31C79 59 56 82 12 73V49c39 6 53-20 64-50L1-190h34L92-34l54-156h33" id="bb"/><g id="h"><use transform="matrix(0.05,0,0,0.05,0,0)" xlink:href="#aP"/><use transform="matrix(0.05,0,0,0.05,10,0)" xlink:href="#aH"/><use transform="matrix(0.05,0,0,0.05,20,0)" xlink:href="#aI"/><use transform="matrix(0.05,0,0,0.05,25.950000000000003,0)" xlink:href="#aJ"/><use transform="matrix(0.05,0,0,0.05,34.95,0)" xlink:href="#aK"/><use transform="matrix(0.05,0,0,0.05,44.95,0)" xlink:href="#aL"/><use transform="matrix(0.05,0,0,0.05,54.95,0)" xlink:href="#ba"/><use transform="matrix(0.05,0,0,0.05,64.9,0)" xlink:href="#bb"/><use transform="matrix(0.05,0,0,0.05,73.9,0)" xlink:href="#aP"/><use transform="matrix(0.05,0,0,0.05,83.9,0)" xlink:href="#aH"/></g><path d="M30-248c118-7 216 8 213 122C240-48 200 0 122 0H30v-248zM63-27c89 8 146-16 146-99s-60-101-146-95v194" id="bc"/><g id="i"><use transform="matrix(0.05,0,0,0.05,0,0)" xlink:href="#aM"/><use transform="matrix(0.05,0,0,0.05,5.95,0)" xlink:href="#bc"/><use transform="matrix(0.05,0,0,0.05,18.900000000000002,0)" xlink:href="#aV"/><use transform="matrix(0.05,0,0,0.05,28.900000000000002,0)" xlink:href="#aO"/><use transform="matrix(0.05,0,0,0.05,33.900000000000006,0)" xlink:href="#aH"/></g><path d="M140-251c81 0 123 46 123 126C263-46 219 4 140 4 59 4 17-45 17-125s42-126 123-126zm0 227c63 0 89-41 89-101s-29-99-89-99c-61 0-89 39-89 99S79-25 140-24" id="bd"/><path d="M101-234c-31-9-42 10-38 44h38v23H63V0H32v-167H5v-23h27c-7-52 17-82 69-68v24" id="be"/><path d="M143 4C61 4 22-44 18-125c-5-107 100-154 193-111 17 8 29 25 37 43l-32 9c-13-25-37-40-76-40-61 0-88 39-88 99 0 61 29 100 91 101 35 0 62-11 79-27v-45h-74v-28h105v86C228-13 192 4 143 4" id="bf"/><path d="M84 4C-5 8 30-112 23-190h32v120c0 31 7 50 39 49 72-2 45-101 50-169h31l1 190h-30c-1-10 1-25-2-33-11 22-28 36-60 37" id="bg"/><g id="j"><use transform="matrix(0.05,0,0,0.05,0,0)" xlink:href="#aR"/><use transform="matrix(0.05,0,0,0.05,10,0)" xlink:href="#aV"/><use transform="matrix(0.05,0,0,0.05,20,0)" xlink:href="#aO"/><use transform="matrix(0.05,0,0,0.05,25,0)" xlink:href="#aH"/><use transform="matrix(0.05,0,0,0.05,35,0)" xlink:href="#bd"/><use transform="matrix(0.05,0,0,0.05,49,0)" xlink:href="#be"/><use transform="matrix(0.05,0,0,0.05,54,0)" xlink:href="#bf"/><use transform="matrix(0.05,0,0,0.05,68,0)" xlink:href="#aI"/><use transform="matrix(0.05,0,0,0.05,73.95,0)" xlink:href="#aV"/><use transform="matrix(0.05,0,0,0.05,83.95,0)" xlink:href="#aR"/><use transform="matrix(0.05,0,0,0.05,93.95,0)" xlink:href="#bg"/><use transform="matrix(0.05,0,0,0.05,103.95,0)" xlink:href="#aV"/><use transform="matrix(0.05,0,0,0.05,113.95,0)" xlink:href="#aO"/><use transform="matrix(0.05,0,0,0.05,118.95,0)" xlink:href="#aN"/><use transform="matrix(0.05,0,0,0.05,122.9,0)" xlink:href="#aK"/><use transform="matrix(0.05,0,0,0.05,132.9,0)" xlink:href="#aL"/></g><path d="M145-31C134-9 116 4 85 4 32 4 16-35 15-94c0-59 17-99 70-100 32-1 48 14 60 33 0-11-1-24 2-32h30l-1 268h-32zM93-21c41 0 51-33 51-76s-8-73-50-73c-40 0-46 35-46 75s5 74 45 74" id="bh"/><path d="M96-169c-40 0-48 33-48 73s9 75 48 75c24 0 41-14 43-38l32 2c-6 37-31 61-74 61-59 0-76-41-82-99-10-93 101-131 147-64 4 7 5 14 7 22l-32 3c-4-21-16-35-41-35" id="bi"/><g id="k"><use transform="matrix(0.05,0,0,0.05,0,0)" xlink:href="#bh"/><use transform="matrix(0.05,0,0,0.05,10,0)" xlink:href="#bg"/><use transform="matrix(0.05,0,0,0.05,20,0)" xlink:href="#aV"/><use transform="matrix(0.05,0,0,0.05,30,0)" xlink:href="#aY"/><use transform="matrix(0.05,0,0,0.05,33.95,0)" xlink:href="#aN"/><use transform="matrix(0.05,0,0,0.05,37.900000000000006,0)" xlink:href="#be"/><use transform="matrix(0.05,0,0,0.05,42.900000000000006,0)" xlink:href="#aN"/><use transform="matrix(0.05,0,0,0.05,46.85000000000001,0)" xlink:href="#bi"/><use transform="matrix(0.05,0,0,0.05,55.85,0)" xlink:href="#aV"/><use transform="matrix(0.05,0,0,0.05,65.85000000000001,0)" xlink:href="#aO"/><use transform="matrix(0.05,0,0,0.05,70.85000000000001,0)" xlink:href="#aN"/><use transform="matrix(0.05,0,0,0.05,74.80000000000001,0)" xlink:href="#aK"/><use transform="matrix(0.05,0,0,0.05,84.80000000000001,0)" xlink:href="#aL"/></g><path d="M153-248C145-148 188 4 80 4 36 3 13-21 6-62l32-5c4 25 16 42 43 43 27 0 39-20 39-49v-147H72v-28h81" id="bj"/><g id="l"><use transform="matrix(0.05,0,0,0.05,0,0)" xlink:href="#aR"/><use transform="matrix(0.05,0,0,0.05,10,0)" xlink:href="#aV"/><use transform="matrix(0.05,0,0,0.05,20,0)" xlink:href="#aO"/><use transform="matrix(0.05,0,0,0.05,25,0)" xlink:href="#aH"/><use transform="matrix(0.05,0,0,0.05,35,0)" xlink:href="#bj"/><use transform="matrix(0.05,0,0,0.05,44,0)" xlink:href="#aK"/><use transform="matrix(0.05,0,0,0.05,54,0)" xlink:href="#aN"/><use transform="matrix(0.05,0,0,0.05,57.95,0)" xlink:href="#aL"/><use transform="matrix(0.05,0,0,0.05,67.95,0)" xlink:href="#aH"/><use transform="matrix(0.05,0,0,0.05,77.95,0)" xlink:href="#aR"/></g><g id="m"><use transform="matrix(0.05,0,0,0.05,0,0)" xlink:href="#aR"/><use transform="matrix(0.05,0,0,0.05,10,0)" xlink:href="#aH"/><use transform="matrix(0.05,0,0,0.05,20,0)" xlink:href="#aP"/><use transform="matrix(0.05,0,0,0.05,30,0)" xlink:href="#aV"/><use transform="matrix(0.05,0,0,0.05,40,0)" xlink:href="#aI"/><use transform="matrix(0.05,0,0,0.05,45.95,0)" xlink:href="#aO"/><use transform="matrix(0.05,0,0,0.05,50.95,0)" xlink:href="#aW"/><use transform="matrix(0.05,0,0,0.05,65.9,0)" xlink:href="#aH"/><use transform="matrix(0.05,0,0,0.05,75.9,0)" xlink:href="#aL"/><use transform="matrix(0.05,0,0,0.05,85.9,0)" xlink:href="#aO"/></g><path d="M115-194c53 0 69 39 70 98 0 66-23 100-70 100C84 3 66-7 56-30L54 0H23l1-261h32v101c10-23 28-34 59-34zm-8 174c40 0 45-34 45-75 0-40-5-75-45-74-42 0-51 32-51 76 0 43 10 73 51 73" id="bk"/><g id="n"><use transform="matrix(0.05,0,0,0.05,0,0)" xlink:href="#aM"/><use transform="matrix(0.05,0,0,0.05,5.95,0)" xlink:href="#aR"/><use transform="matrix(0.05,0,0,0.05,15.949999999999998,0)" xlink:href="#aK"/><use transform="matrix(0.05,0,0,0.05,25.950000000000003,0)" xlink:href="#bg"/><use transform="matrix(0.05,0,0,0.05,35.95,0)" xlink:href="#bk"/><use transform="matrix(0.05,0,0,0.05,45.95,0)" xlink:href="#aY"/><use transform="matrix(0.05,0,0,0.05,49.900000000000006,0)" xlink:href="#aH"/></g><g id="o"><use transform="matrix(0.05,0,0,0.05,0,0)" xlink:href="#aJ"/><use transform="matrix(0.05,0,0,0.05,9,0)" xlink:href="#aV"/><use transform="matrix(0.05,0,0,0.05,19,0)" xlink:href="#aY"/><use transform="matrix(0.05,0,0,0.05,22.95,0)" xlink:href="#aV"/><use transform="matrix(0.05,0,0,0.05,32.95,0)" xlink:href="#aI"/><use transform="matrix(0.05,0,0,0.05,38.900000000000006,0)" xlink:href="#bb"/></g><path d="M233-177c-1 41-23 64-60 70L243 0h-38l-65-103H63V0H30v-248c88 3 205-21 203 71zM63-129c60-2 137 13 137-47 0-61-80-42-137-45v92" id="bl"/><g id="p"><use transform="matrix(0.05,0,0,0.05,0,0)" xlink:href="#aZ"/><use transform="matrix(0.05,0,0,0.05,10,0)" xlink:href="#aK"/><use transform="matrix(0.05,0,0,0.05,20,0)" xlink:href="#bg"/><use transform="matrix(0.05,0,0,0.05,30,0)" xlink:href="#aI"/><use transform="matrix(0.05,0,0,0.05,35.95,0)" xlink:href="#aY"/><use transform="matrix(0.05,0,0,0.05,39.900000000000006,0)" xlink:href="#bb"/><use transform="matrix(0.05,0,0,0.05,48.900000000000006,0)" xlink:href="#bl"/><use transform="matrix(0.05,0,0,0.05,61.85,0)" xlink:href="#aV"/><use transform="matrix(0.05,0,0,0.05,71.85000000000001,0)" xlink:href="#aO"/><use transform="matrix(0.05,0,0,0.05,76.85000000000001,0)" xlink:href="#aH"/></g><path d="M118-107v75H92v-75H18v-26h74v-75h26v75h74v26h-74" id="bm"/><path d="M87 75C49 33 22-17 22-94c0-76 28-126 65-167h31c-38 41-64 92-64 168S80 34 118 75H87" id="bn"/><path d="M33-261c38 41 65 92 65 168S71 34 33 75H2C39 34 66-17 66-93S39-220 2-261h31" id="bo"/><g id="q"><use transform="matrix(0.05,0,0,0.05,0,0)" xlink:href="#bm"/><use transform="matrix(0.05,0,0,0.05,10.5,0)" xlink:href="#aT"/><use transform="matrix(0.05,0,0,0.05,20.5,0)" xlink:href="#aH"/><use transform="matrix(0.05,0,0,0.05,30.5,0)" xlink:href="#aO"/><use transform="matrix(0.05,0,0,0.05,35.5,0)" xlink:href="#aG"/><use transform="matrix(0.05,0,0,0.05,47.5,0)" xlink:href="#aH"/><use transform="matrix(0.05,0,0,0.05,57.5,0)" xlink:href="#aI"/><use transform="matrix(0.05,0,0,0.05,63.45,0)" xlink:href="#aJ"/><use transform="matrix(0.05,0,0,0.05,72.45,0)" xlink:href="#aK"/><use transform="matrix(0.05,0,0,0.05,82.45,0)" xlink:href="#aL"/><use transform="matrix(0.05,0,0,0.05,92.45,0)" xlink:href="#aQ"/><use transform="matrix(0.05,0,0,0.05,97.45,0)" xlink:href="#aR"/><use transform="matrix(0.05,0,0,0.05,107.45,0)" xlink:href="#bn"/><use transform="matrix(0.05,0,0,0.05,113.4,0)" xlink:href="#bo"/></g><g id="r"><use transform="matrix(0.05,0,0,0.05,0,0)" xlink:href="#bm"/><use transform="matrix(0.05,0,0,0.05,10.5,0)" xlink:href="#aJ"/><use transform="matrix(0.05,0,0,0.05,19.5,0)" xlink:href="#aH"/><use transform="matrix(0.05,0,0,0.05,29.5,0)" xlink:href="#aO"/><use transform="matrix(0.05,0,0,0.05,34.5,0)" xlink:href="#aG"/><use transform="matrix(0.05,0,0,0.05,46.5,0)" xlink:href="#aH"/><use transform="matrix(0.05,0,0,0.05,56.5,0)" xlink:href="#aI"/><use transform="matrix(0.05,0,0,0.05,62.45,0)" xlink:href="#aJ"/><use transform="matrix(0.05,0,0,0.05,71.45,0)" xlink:href="#aK"/><use transform="matrix(0.05,0,0,0.05,81.45,0)" xlink:href="#aL"/><use transform="matrix(0.05,0,0,0.05,91.45,0)" xlink:href="#aQ"/><use transform="matrix(0.05,0,0,0.05,96.45,0)" xlink:href="#aR"/><use transform="matrix(0.05,0,0,0.05,106.45,0)" xlink:href="#bn"/><use transform="matrix(0.05,0,0,0.05,112.4,0)" xlink:href="#aN"/><use transform="matrix(0.05,0,0,0.05,116.35000000000001,0)" xlink:href="#aL"/><use transform="matrix(0.05,0,0,0.05,126.35000000000001,0)" xlink:href="#aO"/><use transform="matrix(0.05,0,0,0.05,131.35000000000002,0)" xlink:href="#bo"/></g><g id="s"><use transform="matrix(0.05,0,0,0.05,0,0)" xlink:href="#bm"/><use transform="matrix(0.05,0,0,0.05,10.5,0)" xlink:href="#aT"/><use transform="matrix(0.05,0,0,0.05,20.5,0)" xlink:href="#aH"/><use transform="matrix(0.05,0,0,0.05,30.5,0)" xlink:href="#aO"/><use transform="matrix(0.05,0,0,0.05,35.5,0)" xlink:href="#aG"/><use transform="matrix(0.05,0,0,0.05,47.5,0)" xlink:href="#aH"/><use transform="matrix(0.05,0,0,0.05,57.5,0)" xlink:href="#aI"/><use transform="matrix(0.05,0,0,0.05,63.45,0)" xlink:href="#aJ"/><use transform="matrix(0.05,0,0,0.05,72.45,0)" xlink:href="#aK"/><use transform="matrix(0.05,0,0,0.05,82.45,0)" xlink:href="#aL"/><use transform="matrix(0.05,0,0,0.05,92.45,0)" xlink:href="#aU"/><use transform="matrix(0.05,0,0,0.05,105.4,0)" xlink:href="#aV"/><use transform="matrix(0.05,0,0,0.05,115.4,0)" xlink:href="#aW"/><use transform="matrix(0.05,0,0,0.05,130.35,0)" xlink:href="#aH"/><use transform="matrix(0.05,0,0,0.05,140.35,0)" xlink:href="#bn"/><use transform="matrix(0.05,0,0,0.05,146.29999999999998,0)" xlink:href="#bo"/></g><g id="t"><use transform="matrix(0.05,0,0,0.05,0,0)" xlink:href="#bm"/><use transform="matrix(0.05,0,0,0.05,10.5,0)" xlink:href="#aJ"/><use transform="matrix(0.05,0,0,0.05,19.5,0)" xlink:href="#aH"/><use transform="matrix(0.05,0,0,0.05,29.5,0)" xlink:href="#aO"/><use transform="matrix(0.05,0,0,0.05,34.5,0)" xlink:href="#aG"/><use transform="matrix(0.05,0,0,0.05,46.5,0)" xlink:href="#aH"/><use transform="matrix(0.05,0,0,0.05,56.5,0)" xlink:href="#aI"/><use transform="matrix(0.05,0,0,0.05,62.45,0)" xlink:href="#aJ"/><use transform="matrix(0.05,0,0,0.05,71.45,0)" xlink:href="#aK"/><use transform="matrix(0.05,0,0,0.05,81.45,0)" xlink:href="#aL"/><use transform="matrix(0.05,0,0,0.05,91.45,0)" xlink:href="#aU"/><use transform="matrix(0.05,0,0,0.05,104.4,0)" xlink:href="#aV"/><use transform="matrix(0.05,0,0,0.05,114.4,0)" xlink:href="#aW"/><use transform="matrix(0.05,0,0,0.05,129.35,0)" xlink:href="#aH"/><use transform="matrix(0.05,0,0,0.05,139.35,0)" xlink:href="#bn"/><use transform="matrix(0.05,0,0,0.05,145.29999999999998,0)" xlink:href="#aS"/><use transform="matrix(0.05,0,0,0.05,157.29999999999998,0)" xlink:href="#aO"/><use transform="matrix(0.05,0,0,0.05,162.29999999999998,0)" xlink:href="#aI"/><use transform="matrix(0.05,0,0,0.05,168.24999999999997,0)" xlink:href="#aN"/><use transform="matrix(0.05,0,0,0.05,172.19999999999996,0)" xlink:href="#aL"/><use transform="matrix(0.05,0,0,0.05,182.19999999999996,0)" xlink:href="#aT"/><use transform="matrix(0.05,0,0,0.05,192.19999999999996,0)" xlink:href="#bo"/></g><g id="u"><use transform="matrix(0.05,0,0,0.05,0,0)" xlink:href="#aS"/><use transform="matrix(0.05,0,0,0.05,12,0)" xlink:href="#aO"/><use transform="matrix(0.05,0,0,0.05,17,0)" xlink:href="#bg"/><use transform="matrix(0.05,0,0,0.05,27,0)" xlink:href="#aR"/><use transform="matrix(0.05,0,0,0.05,37,0)" xlink:href="#aH"/><use transform="matrix(0.05,0,0,0.05,47,0)" xlink:href="#aL"/><use transform="matrix(0.05,0,0,0.05,57,0)" xlink:href="#aO"/></g><path d="M30 0v-248h33v221h125V0H30" id="bp"/><path d="M16-127c37-31 93-2 135 6 18-1 32-8 43-16v26c-50 42-130-35-178 9v-25" id="bq"/><path d="M212-179c-10-28-35-45-73-45-59 0-87 40-87 99 0 60 29 101 89 101 43 0 62-24 78-52l27 14C228-24 195 4 139 4 59 4 22-46 18-125c-6-104 99-153 187-111 19 9 31 26 39 46" id="br"/><g id="v"><use transform="matrix(0.05,0,0,0.05,0,0)" xlink:href="#aM"/><use transform="matrix(0.05,0,0,0.05,5.95,0)" xlink:href="#bp"/><use transform="matrix(0.05,0,0,0.05,15.949999999999998,0)" xlink:href="#aN"/><use transform="matrix(0.05,0,0,0.05,19.9,0)" xlink:href="#aJ"/><use transform="matrix(0.05,0,0,0.05,28.899999999999995,0)" xlink:href="#aO"/><use transform="matrix(0.05,0,0,0.05,33.9,0)" xlink:href="#bq"/><use transform="matrix(0.05,0,0,0.05,44.4,0)" xlink:href="#br"/><use transform="matrix(0.05,0,0,0.05,57.35,0)" xlink:href="#aK"/><use transform="matrix(0.05,0,0,0.05,67.35,0)" xlink:href="#bg"/><use transform="matrix(0.05,0,0,0.05,77.35,0)" xlink:href="#aI"/><use transform="matrix(0.05,0,0,0.05,83.3,0)" xlink:href="#aJ"/><use transform="matrix(0.05,0,0,0.05,92.3,0)" xlink:href="#aH"/><use transform="matrix(0.05,0,0,0.05,102.3,0)" xlink:href="#bd"/><use transform="matrix(0.05,0,0,0.05,116.30000000000001,0)" xlink:href="#be"/><use transform="matrix(0.05,0,0,0.05,120.95,0)" xlink:href="#be"/><use transform="matrix(0.05,0,0,0.05,125.95,0)" xlink:href="#aH"/><use transform="matrix(0.05,0,0,0.05,135.95,0)" xlink:href="#aI"/><use transform="matrix(0.05,0,0,0.05,141.89999999999998,0)" xlink:href="#aN"/><use transform="matrix(0.05,0,0,0.05,145.84999999999997,0)" xlink:href="#aL"/><use transform="matrix(0.05,0,0,0.05,155.84999999999997,0)" xlink:href="#aT"/><use transform="matrix(0.05,0,0,0.05,165.84999999999997,0)" xlink:href="#bq"/></g><g id="w"><use transform="matrix(0.05,0,0,0.05,0,0)" xlink:href="#aH"/><use transform="matrix(0.05,0,0,0.05,10,0)" xlink:href="#aL"/><use transform="matrix(0.05,0,0,0.05,20,0)" xlink:href="#aI"/><use transform="matrix(0.05,0,0,0.05,25.950000000000003,0)" xlink:href="#aK"/><use transform="matrix(0.05,0,0,0.05,35.95,0)" xlink:href="#aY"/><use transform="matrix(0.05,0,0,0.05,39.900000000000006,0)" xlink:href="#aY"/><use transform="matrix(0.05,0,0,0.05,43.85000000000001,0)" xlink:href="#aW"/><use transform="matrix(0.05,0,0,0.05,58.80000000000001,0)" xlink:href="#aH"/><use transform="matrix(0.05,0,0,0.05,68.80000000000001,0)" xlink:href="#aL"/><use transform="matrix(0.05,0,0,0.05,78.80000000000001,0)" xlink:href="#aO"/><use transform="matrix(0.05,0,0,0.05,83.80000000000001,0)" xlink:href="#aJ"/></g><g id="x"><use transform="matrix(0.05,0,0,0.05,0,0)" xlink:href="#bm"/><use transform="matrix(0.05,0,0,0.05,10.5,0)" xlink:href="#aT"/><use transform="matrix(0.05,0,0,0.05,20.5,0)" xlink:href="#aH"/><use transform="matrix(0.05,0,0,0.05,30.5,0)" xlink:href="#aO"/><use transform="matrix(0.05,0,0,0.05,35.5,0)" xlink:href="#aX"/><use transform="matrix(0.05,0,0,0.05,47.5,0)" xlink:href="#aL"/><use transform="matrix(0.05,0,0,0.05,57.5,0)" xlink:href="#aI"/><use transform="matrix(0.05,0,0,0.05,63.45,0)" xlink:href="#aK"/><use transform="matrix(0.05,0,0,0.05,73.45,0)" xlink:href="#aY"/><use transform="matrix(0.05,0,0,0.05,77.4,0)" xlink:href="#aY"/><use transform="matrix(0.05,0,0,0.05,81.35000000000001,0)" xlink:href="#aW"/><use transform="matrix(0.05,0,0,0.05,96.30000000000001,0)" xlink:href="#aH"/><use transform="matrix(0.05,0,0,0.05,106.30000000000001,0)" xlink:href="#aL"/><use transform="matrix(0.05,0,0,0.05,116.30000000000001,0)" xlink:href="#aO"/><use transform="matrix(0.05,0,0,0.05,121.30000000000001,0)" xlink:href="#aJ"/><use transform="matrix(0.05,0,0,0.05,130.3,0)" xlink:href="#bn"/><use transform="matrix(0.05,0,0,0.05,136.25,0)" xlink:href="#bo"/></g><g id="y"><use transform="matrix(0.05,0,0,0.05,0,0)" xlink:href="#bm"/><use transform="matrix(0.05,0,0,0.05,10.5,0)" xlink:href="#aV"/><use transform="matrix(0.05,0,0,0.05,20.5,0)" xlink:href="#aR"/><use transform="matrix(0.05,0,0,0.05,30.5,0)" xlink:href="#aR"/><use transform="matrix(0.05,0,0,0.05,40.5,0)" xlink:href="#aX"/><use transform="matrix(0.05,0,0,0.05,52.5,0)" xlink:href="#aL"/><use transform="matrix(0.05,0,0,0.05,62.5,0)" xlink:href="#aI"/><use transform="matrix(0.05,0,0,0.05,68.45,0)" xlink:href="#aK"/><use transform="matrix(0.05,0,0,0.05,78.45,0)" xlink:href="#aY"/><use transform="matrix(0.05,0,0,0.05,82.4,0)" xlink:href="#aY"/><use transform="matrix(0.05,0,0,0.05,86.35000000000001,0)" xlink:href="#aW"/><use transform="matrix(0.05,0,0,0.05,101.30000000000001,0)" xlink:href="#aH"/><use transform="matrix(0.05,0,0,0.05,111.30000000000001,0)" xlink:href="#aL"/><use transform="matrix(0.05,0,0,0.05,121.30000000000001,0)" xlink:href="#aO"/><use transform="matrix(0.05,0,0,0.05,126.30000000000001,0)" xlink:href="#bn"/><use transform="matrix(0.05,0,0,0.05,132.25,0)" xlink:href="#br"/><use transform="matrix(0.05,0,0,0.05,145.2,0)" xlink:href="#aK"/><use transform="matrix(0.05,0,0,0.05,155.2,0)" xlink:href="#bg"/><use transform="matrix(0.05,0,0,0.05,165.2,0)" xlink:href="#aI"/><use transform="matrix(0.05,0,0,0.05,171.14999999999998,0)" xlink:href="#aJ"/><use transform="matrix(0.05,0,0,0.05,180.14999999999998,0)" xlink:href="#aH"/><use transform="matrix(0.05,0,0,0.05,190.14999999999998,0)" xlink:href="#bd"/><use transform="matrix(0.05,0,0,0.05,204.14999999999998,0)" xlink:href="#be"/><use transform="matrix(0.05,0,0,0.05,208.79999999999995,0)" xlink:href="#be"/><use transform="matrix(0.05,0,0,0.05,213.79999999999995,0)" xlink:href="#aH"/><use transform="matrix(0.05,0,0,0.05,223.79999999999995,0)" xlink:href="#aI"/><use transform="matrix(0.05,0,0,0.05,229.74999999999997,0)" xlink:href="#aN"/><use transform="matrix(0.05,0,0,0.05,233.69999999999996,0)" xlink:href="#aL"/><use transform="matrix(0.05,0,0,0.05,243.69999999999996,0)" xlink:href="#aT"/><use transform="matrix(0.05,0,0,0.05,253.69999999999996,0)" xlink:href="#bo"/></g><path d="M108 0H70L1-190h34L89-25l56-165h34" id="bs"/><g id="z"><use transform="matrix(0.05,0,0,0.05,0,0)" xlink:href="#bm"/><use transform="matrix(0.05,0,0,0.05,10.5,0)" xlink:href="#aI"/><use transform="matrix(0.05,0,0,0.05,16.45,0)" xlink:href="#aH"/><use transform="matrix(0.05,0,0,0.05,26.450000000000003,0)" xlink:href="#aW"/><use transform="matrix(0.05,0,0,0.05,41.4,0)" xlink:href="#aK"/><use transform="matrix(0.05,0,0,0.05,51.400000000000006,0)" xlink:href="#bs"/><use transform="matrix(0.05,0,0,0.05,60.400000000000006,0)" xlink:href="#aH"/><use transform="matrix(0.05,0,0,0.05,70.4,0)" xlink:href="#aX"/><use transform="matrix(0.05,0,0,0.05,82.4,0)" xlink:href="#aL"/><use transform="matrix(0.05,0,0,0.05,92.4,0)" xlink:href="#aI"/><use transform="matrix(0.05,0,0,0.05,98.35000000000001,0)" xlink:href="#aK"/><use transform="matrix(0.05,0,0,0.05,108.35000000000001,0)" xlink:href="#aY"/><use transform="matrix(0.05,0,0,0.05,112.30000000000001,0)" xlink:href="#aY"/><use transform="matrix(0.05,0,0,0.05,116.25,0)" xlink:href="#aW"/><use transform="matrix(0.05,0,0,0.05,131.20000000000002,0)" xlink:href="#aH"/><use transform="matrix(0.05,0,0,0.05,141.20000000000002,0)" xlink:href="#aL"/><use transform="matrix(0.05,0,0,0.05,151.20000000000002,0)" xlink:href="#aO"/><use transform="matrix(0.05,0,0,0.05,156.20000000000002,0)" xlink:href="#bn"/><use transform="matrix(0.05,0,0,0.05,162.15,0)" xlink:href="#br"/><use transform="matrix(0.05,0,0,0.05,175.1,0)" xlink:href="#aK"/><use transform="matrix(0.05,0,0,0.05,185.1,0)" xlink:href="#bg"/><use transform="matrix(0.05,0,0,0.05,195.1,0)" xlink:href="#aI"/><use transform="matrix(0.05,0,0,0.05,201.04999999999998,0)" xlink:href="#aJ"/><use transform="matrix(0.05,0,0,0.05,210.04999999999995,0)" xlink:href="#aH"/><use transform="matrix(0.05,0,0,0.05,220.04999999999995,0)" xlink:href="#bd"/><use transform="matrix(0.05,0,0,0.05,234.04999999999995,0)" xlink:href="#be"/><use transform="matrix(0.05,0,0,0.05,238.69999999999996,0)" xlink:href="#be"/><use transform="matrix(0.05,0,0,0.05,243.69999999999996,0)" xlink:href="#aH"/><use transform="matrix(0.05,0,0,0.05,253.69999999999996,0)" xlink:href="#aI"/><use transform="matrix(0.05,0,0,0.05,259.65,0)" xlink:href="#aN"/><use transform="matrix(0.05,0,0,0.05,263.59999999999997,0)" xlink:href="#aL"/><use transform="matrix(0.05,0,0,0.05,273.59999999999997,0)" xlink:href="#aT"/><use transform="matrix(0.05,0,0,0.05,283.59999999999997,0)" xlink:href="#bo"/></g><g id="A"><use transform="matrix(0.05,0,0,0.05,0,0)" xlink:href="#bp"/><use transform="matrix(0.05,0,0,0.05,10,0)" xlink:href="#aH"/><use transform="matrix(0.05,0,0,0.05,20,0)" xlink:href="#bi"/><use transform="matrix(0.05,0,0,0.05,29,0)" xlink:href="#aO"/><use transform="matrix(0.05,0,0,0.05,34,0)" xlink:href="#bg"/><use transform="matrix(0.05,0,0,0.05,44,0)" xlink:href="#aI"/><use transform="matrix(0.05,0,0,0.05,49.95,0)" xlink:href="#aH"/><use transform="matrix(0.05,0,0,0.05,59.95,0)" xlink:href="#aI"/></g><g id="B"><use transform="matrix(0.05,0,0,0.05,0,0)" xlink:href="#bi"/><use transform="matrix(0.05,0,0,0.05,9,0)" xlink:href="#aK"/><use transform="matrix(0.05,0,0,0.05,19,0)" xlink:href="#bg"/><use transform="matrix(0.05,0,0,0.05,29,0)" xlink:href="#aI"/><use transform="matrix(0.05,0,0,0.05,34.95,0)" xlink:href="#aJ"/><use transform="matrix(0.05,0,0,0.05,43.95,0)" xlink:href="#aH"/><use transform="matrix(0.05,0,0,0.05,53.95,0)" xlink:href="#aJ"/><use transform="matrix(0.05,0,0,0.05,62.95,0)" xlink:href="#ba"/><use transform="matrix(0.05,0,0,0.05,71.9,0)" xlink:href="#aH"/><use transform="matrix(0.05,0,0,0.05,81.9,0)" xlink:href="#aV"/><use transform="matrix(0.05,0,0,0.05,91.9,0)" xlink:href="#bi"/><use transform="matrix(0.05,0,0,0.05,100.9,0)" xlink:href="#aZ"/><use transform="matrix(0.05,0,0,0.05,110.9,0)" xlink:href="#aN"/><use transform="matrix(0.05,0,0,0.05,114.85000000000001,0)" xlink:href="#aL"/><use transform="matrix(0.05,0,0,0.05,124.85000000000001,0)" xlink:href="#aT"/></g><g id="C"><use transform="matrix(0.05,0,0,0.05,0,0)" xlink:href="#bm"/><use transform="matrix(0.05,0,0,0.05,10.5,0)" xlink:href="#aT"/><use transform="matrix(0.05,0,0,0.05,20.5,0)" xlink:href="#aH"/><use transform="matrix(0.05,0,0,0.05,30.5,0)" xlink:href="#aO"/><use transform="matrix(0.05,0,0,0.05,35.5,0)" xlink:href="#br"/><use transform="matrix(0.05,0,0,0.05,48.45,0)" xlink:href="#aK"/><use transform="matrix(0.05,0,0,0.05,58.45,0)" xlink:href="#bg"/><use transform="matrix(0.05,0,0,0.05,68.45,0)" xlink:href="#aI"/><use transform="matrix(0.05,0,0,0.05,74.4,0)" xlink:href="#aJ"/><use transform="matrix(0.05,0,0,0.05,83.4,0)" xlink:href="#aH"/><use transform="matrix(0.05,0,0,0.05,93.4,0)" xlink:href="#aJ"/><use transform="matrix(0.05,0,0,0.05,102.4,0)" xlink:href="#ba"/><use transform="matrix(0.05,0,0,0.05,111.35000000000001,0)" xlink:href="#aH"/><use transform="matrix(0.05,0,0,0.05,121.35000000000001,0)" xlink:href="#aV"/><use transform="matrix(0.05,0,0,0.05,131.35000000000002,0)" xlink:href="#bi"/><use transform="matrix(0.05,0,0,0.05,140.35000000000002,0)" xlink:href="#aZ"/><use transform="matrix(0.05,0,0,0.05,150.35000000000002,0)" xlink:href="#aN"/><use transform="matrix(0.05,0,0,0.05,154.3,0)" xlink:href="#aL"/><use transform="matrix(0.05,0,0,0.05,164.3,0)" xlink:href="#aT"/><use transform="matrix(0.05,0,0,0.05,174.3,0)" xlink:href="#bn"/><use transform="matrix(0.05,0,0,0.05,180.25,0)" xlink:href="#bo"/></g><g id="D"><use transform="matrix(0.05,0,0,0.05,0,0)" xlink:href="#bm"/><use transform="matrix(0.05,0,0,0.05,10.5,0)" xlink:href="#aV"/><use transform="matrix(0.05,0,0,0.05,20.5,0)" xlink:href="#aR"/><use transform="matrix(0.05,0,0,0.05,30.5,0)" xlink:href="#aR"/><use transform="matrix(0.05,0,0,0.05,40.5,0)" xlink:href="#br"/><use transform="matrix(0.05,0,0,0.05,53.45,0)" xlink:href="#aK"/><use transform="matrix(0.05,0,0,0.05,63.45,0)" xlink:href="#bg"/><use transform="matrix(0.05,0,0,0.05,73.45,0)" xlink:href="#aI"/><use transform="matrix(0.05,0,0,0.05,79.4,0)" xlink:href="#aJ"/><use transform="matrix(0.05,0,0,0.05,88.4,0)" xlink:href="#aH"/><use transform="matrix(0.05,0,0,0.05,98.4,0)" xlink:href="#bn"/><use transform="matrix(0.05,0,0,0.05,104.35000000000001,0)" xlink:href="#br"/><use transform="matrix(0.05,0,0,0.05,117.30000000000001,0)" xlink:href="#aK"/><use transform="matrix(0.05,0,0,0.05,127.30000000000001,0)" xlink:href="#bg"/><use transform="matrix(0.05,0,0,0.05,137.3,0)" xlink:href="#aI"/><use transform="matrix(0.05,0,0,0.05,143.25,0)" xlink:href="#aJ"/><use transform="matrix(0.05,0,0,0.05,152.25,0)" xlink:href="#aH"/><use transform="matrix(0.05,0,0,0.05,162.25,0)" xlink:href="#bd"/><use transform="matrix(0.05,0,0,0.05,176.25,0)" xlink:href="#be"/><use transform="matrix(0.05,0,0,0.05,180.9,0)" xlink:href="#be"/><use transform="matrix(0.05,0,0,0.05,185.9,0)" xlink:href="#aH"/><use transform="matrix(0.05,0,0,0.05,195.9,0)" xlink:href="#aI"/><use transform="matrix(0.05,0,0,0.05,201.85,0)" xlink:href="#aN"/><use transform="matrix(0.05,0,0,0.05,205.79999999999995,0)" xlink:href="#aL"/><use transform="matrix(0.05,0,0,0.05,215.79999999999995,0)" xlink:href="#aT"/><use transform="matrix(0.05,0,0,0.05,225.79999999999995,0)" xlink:href="#bo"/></g><g id="E"><use transform="matrix(0.05,0,0,0.05,0,0)" xlink:href="#bm"/><use transform="matrix(0.05,0,0,0.05,10.5,0)" xlink:href="#aI"/><use transform="matrix(0.05,0,0,0.05,16.45,0)" xlink:href="#aH"/><use transform="matrix(0.05,0,0,0.05,26.450000000000003,0)" xlink:href="#aW"/><use transform="matrix(0.05,0,0,0.05,41.4,0)" xlink:href="#aK"/><use transform="matrix(0.05,0,0,0.05,51.400000000000006,0)" xlink:href="#bs"/><use transform="matrix(0.05,0,0,0.05,60.400000000000006,0)" xlink:href="#aH"/><use transform="matrix(0.05,0,0,0.05,70.4,0)" xlink:href="#br"/><use transform="matrix(0.05,0,0,0.05,83.35000000000001,0)" xlink:href="#aK"/><use transform="matrix(0.05,0,0,0.05,93.35000000000001,0)" xlink:href="#bg"/><use transform="matrix(0.05,0,0,0.05,103.35000000000001,0)" xlink:href="#aI"/><use transform="matrix(0.05,0,0,0.05,109.30000000000001,0)" xlink:href="#aJ"/><use transform="matrix(0.05,0,0,0.05,118.30000000000001,0)" xlink:href="#aH"/><use transform="matrix(0.05,0,0,0.05,128.3,0)" xlink:href="#bn"/><use transform="matrix(0.05,0,0,0.05,134.25,0)" xlink:href="#br"/><use transform="matrix(0.05,0,0,0.05,147.2,0)" xlink:href="#aK"/><use transform="matrix(0.05,0,0,0.05,157.2,0)" xlink:href="#bg"/><use transform="matrix(0.05,0,0,0.05,167.2,0)" xlink:href="#aI"/><use transform="matrix(0.05,0,0,0.05,173.14999999999998,0)" xlink:href="#aJ"/><use transform="matrix(0.05,0,0,0.05,182.14999999999998,0)" xlink:href="#aH"/><use transform="matrix(0.05,0,0,0.05,192.14999999999998,0)" xlink:href="#bd"/><use transform="matrix(0.05,0,0,0.05,206.14999999999998,0)" xlink:href="#be"/><use transform="matrix(0.05,0,0,0.05,210.79999999999995,0)" xlink:href="#be"/><use transform="matrix(0.05,0,0,0.05,215.79999999999995,0)" xlink:href="#aH"/><use transform="matrix(0.05,0,0,0.05,225.79999999999995,0)" xlink:href="#aI"/><use transform="matrix(0.05,0,0,0.05,231.74999999999997,0)" xlink:href="#aN"/><use transform="matrix(0.05,0,0,0.05,235.69999999999996,0)" xlink:href="#aL"/><use transform="matrix(0.05,0,0,0.05,245.69999999999996,0)" xlink:href="#aT"/><use transform="matrix(0.05,0,0,0.05,255.69999999999996,0)" xlink:href="#bo"/></g><g id="F"><use transform="matrix(0.05,0,0,0.05,0,0)" xlink:href="#br"/><use transform="matrix(0.05,0,0,0.05,12.950000000000001,0)" xlink:href="#aK"/><use transform="matrix(0.05,0,0,0.05,22.950000000000003,0)" xlink:href="#bg"/><use transform="matrix(0.05,0,0,0.05,32.95,0)" xlink:href="#aI"/><use transform="matrix(0.05,0,0,0.05,38.900000000000006,0)" xlink:href="#aJ"/><use transform="matrix(0.05,0,0,0.05,47.900000000000006,0)" xlink:href="#aH"/></g><g id="G"><use transform="matrix(0.05,0,0,0.05,0,0)" xlink:href="#bi"/><use transform="matrix(0.05,0,0,0.05,9,0)" xlink:href="#aK"/><use transform="matrix(0.05,0,0,0.05,19,0)" xlink:href="#bg"/><use transform="matrix(0.05,0,0,0.05,29,0)" xlink:href="#aI"/><use transform="matrix(0.05,0,0,0.05,34.95,0)" xlink:href="#aJ"/><use transform="matrix(0.05,0,0,0.05,43.95,0)" xlink:href="#aH"/><use transform="matrix(0.05,0,0,0.05,53.95,0)" xlink:href="#aQ"/><use transform="matrix(0.05,0,0,0.05,58.95,0)" xlink:href="#aR"/></g><g id="H"><use transform="matrix(0.05,0,0,0.05,0,0)" xlink:href="#bi"/><use transform="matrix(0.05,0,0,0.05,9,0)" xlink:href="#aK"/><use transform="matrix(0.05,0,0,0.05,19,0)" xlink:href="#bg"/><use transform="matrix(0.05,0,0,0.05,29,0)" xlink:href="#aI"/><use transform="matrix(0.05,0,0,0.05,34.95,0)" xlink:href="#aJ"/><use transform="matrix(0.05,0,0,0.05,43.95,0)" xlink:href="#aH"/><use transform="matrix(0.05,0,0,0.05,53.95,0)" xlink:href="#ba"/><use transform="matrix(0.05,0,0,0.05,64.25,0)" xlink:href="#aN"/><use transform="matrix(0.05,0,0,0.05,68.2,0)" xlink:href="#aO"/><use transform="matrix(0.05,0,0,0.05,73.2,0)" xlink:href="#aY"/><use transform="matrix(0.05,0,0,0.05,77.15,0)" xlink:href="#aH"/></g><g id="I"><use transform="matrix(0.05,0,0,0.05,0,0)" xlink:href="#bi"/><use transform="matrix(0.05,0,0,0.05,9,0)" xlink:href="#aK"/><use transform="matrix(0.05,0,0,0.05,19,0)" xlink:href="#aJ"/><use transform="matrix(0.05,0,0,0.05,28,0)" xlink:href="#aO"/></g><g id="J"><use transform="matrix(0.05,0,0,0.05,0,0)" xlink:href="#aJ"/><use transform="matrix(0.05,0,0,0.05,9,0)" xlink:href="#aO"/><use transform="matrix(0.05,0,0,0.05,14,0)" xlink:href="#aI"/><use transform="matrix(0.05,0,0,0.05,19.95,0)" xlink:href="#aH"/><use transform="matrix(0.05,0,0,0.05,29.950000000000003,0)" xlink:href="#aV"/><use transform="matrix(0.05,0,0,0.05,39.95,0)" xlink:href="#aW"/></g><g id="K"><use transform="matrix(0.05,0,0,0.05,0,0)" xlink:href="#aK"/><use transform="matrix(0.05,0,0,0.05,10,0)" xlink:href="#be"/><use transform="matrix(0.05,0,0,0.05,14.65,0)" xlink:href="#be"/><use transform="matrix(0.05,0,0,0.05,19.65,0)" xlink:href="#aH"/><use transform="matrix(0.05,0,0,0.05,29.649999999999995,0)" xlink:href="#aI"/><use transform="matrix(0.05,0,0,0.05,35.6,0)" xlink:href="#aN"/><use transform="matrix(0.05,0,0,0.05,39.550000000000004,0)" xlink:href="#aL"/><use transform="matrix(0.05,0,0,0.05,49.550000000000004,0)" xlink:href="#aT"/><use transform="matrix(0.05,0,0,0.05,59.550000000000004,0)" xlink:href="#aJ"/></g><g id="L"><use transform="matrix(0.05,0,0,0.05,0,0)" xlink:href="#bm"/><use transform="matrix(0.05,0,0,0.05,10.5,0)" xlink:href="#aT"/><use transform="matrix(0.05,0,0,0.05,20.5,0)" xlink:href="#aH"/><use transform="matrix(0.05,0,0,0.05,30.5,0)" xlink:href="#aO"/><use transform="matrix(0.05,0,0,0.05,35.5,0)" xlink:href="#br"/><use transform="matrix(0.05,0,0,0.05,48.45,0)" xlink:href="#aK"/><use transform="matrix(0.05,0,0,0.05,58.45,0)" xlink:href="#bg"/><use transform="matrix(0.05,0,0,0.05,68.45,0)" xlink:href="#aI"/><use transform="matrix(0.05,0,0,0.05,74.4,0)" xlink:href="#aJ"/><use transform="matrix(0.05,0,0,0.05,83.4,0)" xlink:href="#aH"/><use transform="matrix(0.05,0,0,0.05,93.4,0)" xlink:href="#aQ"/><use transform="matrix(0.05,0,0,0.05,98.4,0)" xlink:href="#aR"/><use transform="matrix(0.05,0,0,0.05,108.4,0)" xlink:href="#bn"/><use transform="matrix(0.05,0,0,0.05,114.35000000000001,0)" xlink:href="#bo"/></g><g id="M"><use transform="matrix(0.05,0,0,0.05,0,0)" xlink:href="#bm"/><use transform="matrix(0.05,0,0,0.05,10.5,0)" xlink:href="#aJ"/><use transform="matrix(0.05,0,0,0.05,19.5,0)" xlink:href="#aH"/><use transform="matrix(0.05,0,0,0.05,29.5,0)" xlink:href="#aO"/><use transform="matrix(0.05,0,0,0.05,34.5,0)" xlink:href="#br"/><use transform="matrix(0.05,0,0,0.05,47.45,0)" xlink:href="#aK"/><use transform="matrix(0.05,0,0,0.05,57.45,0)" xlink:href="#bg"/><use transform="matrix(0.05,0,0,0.05,67.45,0)" xlink:href="#aI"/><use transform="matrix(0.05,0,0,0.05,73.4,0)" xlink:href="#aJ"/><use transform="matrix(0.05,0,0,0.05,82.4,0)" xlink:href="#aH"/><use transform="matrix(0.05,0,0,0.05,92.4,0)" xlink:href="#aQ"/><use transform="matrix(0.05,0,0,0.05,97.4,0)" xlink:href="#aR"/><use transform="matrix(0.05,0,0,0.05,107.4,0)" xlink:href="#bn"/><use transform="matrix(0.05,0,0,0.05,113.35000000000001,0)" xlink:href="#aS"/><use transform="matrix(0.05,0,0,0.05,125.35000000000001,0)" xlink:href="#aO"/><use transform="matrix(0.05,0,0,0.05,130.35000000000002,0)" xlink:href="#aI"/><use transform="matrix(0.05,0,0,0.05,136.3,0)" xlink:href="#aN"/><use transform="matrix(0.05,0,0,0.05,140.25,0)" xlink:href="#aL"/><use transform="matrix(0.05,0,0,0.05,150.25,0)" xlink:href="#aT"/><use transform="matrix(0.05,0,0,0.05,160.25,0)" xlink:href="#bo"/></g><g id="N"><use transform="matrix(0.05,0,0,0.05,0,0)" xlink:href="#bm"/><use transform="matrix(0.05,0,0,0.05,10.5,0)" xlink:href="#aT"/><use transform="matrix(0.05,0,0,0.05,20.5,0)" xlink:href="#aH"/><use transform="matrix(0.05,0,0,0.05,30.5,0)" xlink:href="#aO"/><use transform="matrix(0.05,0,0,0.05,35.5,0)" xlink:href="#br"/><use transform="matrix(0.05,0,0,0.05,48.45,0)" xlink:href="#aK"/><use transform="matrix(0.05,0,0,0.05,58.45,0)" xlink:href="#bg"/><use transform="matrix(0.05,0,0,0.05,68.45,0)" xlink:href="#aI"/><use transform="matrix(0.05,0,0,0.05,74.4,0)" xlink:href="#aJ"/><use transform="matrix(0.05,0,0,0.05,83.4,0)" xlink:href="#aH"/><use transform="matrix(0.05,0,0,0.05,93.4,0)" xlink:href="#ba"/><use transform="matrix(0.05,0,0,0.05,103.7,0)" xlink:href="#aN"/><use transform="matrix(0.05,0,0,0.05,107.65,0)" xlink:href="#aO"/><use transform="matrix(0.05,0,0,0.05,112.65,0)" xlink:href="#aY"/><use transform="matrix(0.05,0,0,0.05,116.60000000000001,0)" xlink:href="#aH"/><use transform="matrix(0.05,0,0,0.05,126.60000000000001,0)" xlink:href="#bn"/><use transform="matrix(0.05,0,0,0.05,132.55,0)" xlink:href="#bo"/></g><g id="O"><use transform="matrix(0.05,0,0,0.05,0,0)" xlink:href="#bm"/><use transform="matrix(0.05,0,0,0.05,10.5,0)" xlink:href="#aJ"/><use transform="matrix(0.05,0,0,0.05,19.5,0)" xlink:href="#aH"/><use transform="matrix(0.05,0,0,0.05,29.5,0)" xlink:href="#aO"/><use transform="matrix(0.05,0,0,0.05,34.5,0)" xlink:href="#br"/><use transform="matrix(0.05,0,0,0.05,47.45,0)" xlink:href="#aK"/><use transform="matrix(0.05,0,0,0.05,57.45,0)" xlink:href="#bg"/><use transform="matrix(0.05,0,0,0.05,67.45,0)" xlink:href="#aI"/><use transform="matrix(0.05,0,0,0.05,73.4,0)" xlink:href="#aJ"/><use transform="matrix(0.05,0,0,0.05,82.4,0)" xlink:href="#aH"/><use transform="matrix(0.05,0,0,0.05,92.4,0)" xlink:href="#ba"/><use transform="matrix(0.05,0,0,0.05,102.7,0)" xlink:href="#aN"/><use transform="matrix(0.05,0,0,0.05,106.65,0)" xlink:href="#aO"/><use transform="matrix(0.05,0,0,0.05,111.65,0)" xlink:href="#aY"/><use transform="matrix(0.05,0,0,0.05,115.60000000000001,0)" xlink:href="#aH"/><use transform="matrix(0.05,0,0,0.05,125.60000000000001,0)" xlink:href="#bn"/><use transform="matrix(0.05,0,0,0.05,131.55,0)" xlink:href="#aS"/><use transform="matrix(0.05,0,0,0.05,143.55,0)" xlink:href="#aO"/><use transform="matrix(0.05,0,0,0.05,148.55,0)" xlink:href="#aI"/><use transform="matrix(0.05,0,0,0.05,154.5,0)" xlink:href="#aN"/><use transform="matrix(0.05,0,0,0.05,158.45,0)" xlink:href="#aL"/><use transform="matrix(0.05,0,0,0.05,168.45,0)" xlink:href="#aT"/><use transform="matrix(0.05,0,0,0.05,178.45,0)" xlink:href="#bo"/></g><g id="P"><use transform="matrix(0.05,0,0,0.05,0,0)" xlink:href="#bm"/><use transform="matrix(0.05,0,0,0.05,10.5,0)" xlink:href="#aT"/><use transform="matrix(0.05,0,0,0.05,20.5,0)" xlink:href="#aH"/><use transform="matrix(0.05,0,0,0.05,30.5,0)" xlink:href="#aO"/><use transform="matrix(0.05,0,0,0.05,35.5,0)" xlink:href="#bd"/><use transform="matrix(0.05,0,0,0.05,49.5,0)" xlink:href="#be"/><use transform="matrix(0.05,0,0,0.05,54.150000000000006,0)" xlink:href="#be"/><use transform="matrix(0.05,0,0,0.05,59.150000000000006,0)" xlink:href="#aH"/><use transform="matrix(0.05,0,0,0.05,69.15,0)" xlink:href="#aI"/><use transform="matrix(0.05,0,0,0.05,75.10000000000001,0)" xlink:href="#aN"/><use transform="matrix(0.05,0,0,0.05,79.05000000000001,0)" xlink:href="#aL"/><use transform="matrix(0.05,0,0,0.05,89.05000000000001,0)" xlink:href="#aT"/><use transform="matrix(0.05,0,0,0.05,99.05000000000001,0)" xlink:href="#aJ"/><use transform="matrix(0.05,0,0,0.05,108.05000000000001,0)" xlink:href="#bn"/><use transform="matrix(0.05,0,0,0.05,114,0)" xlink:href="#bo"/></g><g id="Q"><use transform="matrix(0.05,0,0,0.05,0,0)" xlink:href="#bm"/><use transform="matrix(0.05,0,0,0.05,10.5,0)" xlink:href="#aV"/><use transform="matrix(0.05,0,0,0.05,20.5,0)" xlink:href="#aR"/><use transform="matrix(0.05,0,0,0.05,30.5,0)" xlink:href="#aR"/><use transform="matrix(0.05,0,0,0.05,40.5,0)" xlink:href="#bd"/><use transform="matrix(0.05,0,0,0.05,54.5,0)" xlink:href="#be"/><use transform="matrix(0.05,0,0,0.05,59.150000000000006,0)" xlink:href="#be"/><use transform="matrix(0.05,0,0,0.05,64.15,0)" xlink:href="#aH"/><use transform="matrix(0.05,0,0,0.05,74.15,0)" xlink:href="#aI"/><use transform="matrix(0.05,0,0,0.05,80.10000000000001,0)" xlink:href="#aN"/><use transform="matrix(0.05,0,0,0.05,84.05000000000001,0)" xlink:href="#aL"/><use transform="matrix(0.05,0,0,0.05,94.05000000000001,0)" xlink:href="#aT"/><use transform="matrix(0.05,0,0,0.05,104.05000000000001,0)" xlink:href="#bn"/><use transform="matrix(0.05,0,0,0.05,110,0)" xlink:href="#br"/><use transform="matrix(0.05,0,0,0.05,122.95,0)" xlink:href="#aK"/><use transform="matrix(0.05,0,0,0.05,132.95000000000002,0)" xlink:href="#bg"/><use transform="matrix(0.05,0,0,0.05,142.95000000000002,0)" xlink:href="#aI"/><use transform="matrix(0.05,0,0,0.05,148.9,0)" xlink:href="#aJ"/><use transform="matrix(0.05,0,0,0.05,157.9,0)" xlink:href="#aH"/><use transform="matrix(0.05,0,0,0.05,167.9,0)" xlink:href="#bd"/><use transform="matrix(0.05,0,0,0.05,181.9,0)" xlink:href="#be"/><use transform="matrix(0.05,0,0,0.05,186.55,0)" xlink:href="#be"/><use transform="matrix(0.05,0,0,0.05,191.55,0)" xlink:href="#aH"/><use transform="matrix(0.05,0,0,0.05,201.55,0)" xlink:href="#aI"/><use transform="matrix(0.05,0,0,0.05,207.5,0)" xlink:href="#aN"/><use transform="matrix(0.05,0,0,0.05,211.44999999999996,0)" xlink:href="#aL"/><use transform="matrix(0.05,0,0,0.05,221.44999999999996,0)" xlink:href="#aT"/><use transform="matrix(0.05,0,0,0.05,231.44999999999996,0)" xlink:href="#bo"/></g><g id="R"><use transform="matrix(0.05,0,0,0.05,0,0)" xlink:href="#br"/><use transform="matrix(0.05,0,0,0.05,12.950000000000001,0)" xlink:href="#aK"/><use transform="matrix(0.05,0,0,0.05,22.950000000000003,0)" xlink:href="#bg"/><use transform="matrix(0.05,0,0,0.05,32.95,0)" xlink:href="#aI"/><use transform="matrix(0.05,0,0,0.05,38.900000000000006,0)" xlink:href="#aJ"/><use transform="matrix(0.05,0,0,0.05,47.900000000000006,0)" xlink:href="#aH"/><use transform="matrix(0.05,0,0,0.05,57.900000000000006,0)" xlink:href="#bd"/><use transform="matrix(0.05,0,0,0.05,71.9,0)" xlink:href="#be"/><use transform="matrix(0.05,0,0,0.05,76.55000000000001,0)" xlink:href="#be"/><use transform="matrix(0.05,0,0,0.05,81.55000000000001,0)" xlink:href="#aH"/><use transform="matrix(0.05,0,0,0.05,91.55000000000001,0)" xlink:href="#aI"/><use transform="matrix(0.05,0,0,0.05,97.50000000000001,0)" xlink:href="#aN"/><use transform="matrix(0.05,0,0,0.05,101.45000000000002,0)" xlink:href="#aL"/><use transform="matrix(0.05,0,0,0.05,111.45,0)" xlink:href="#aT"/></g><g id="S"><use transform="matrix(0.05,0,0,0.05,0,0)" xlink:href="#aH"/><use transform="matrix(0.05,0,0,0.05,10,0)" xlink:href="#aL"/><use transform="matrix(0.05,0,0,0.05,20,0)" xlink:href="#aI"/><use transform="matrix(0.05,0,0,0.05,25.950000000000003,0)" xlink:href="#aK"/><use transform="matrix(0.05,0,0,0.05,35.95,0)" xlink:href="#aY"/><use transform="matrix(0.05,0,0,0.05,39.900000000000006,0)" xlink:href="#aY"/><use transform="matrix(0.05,0,0,0.05,43.85000000000001,0)" xlink:href="#aW"/><use transform="matrix(0.05,0,0,0.05,58.80000000000001,0)" xlink:href="#aH"/><use transform="matrix(0.05,0,0,0.05,68.80000000000001,0)" xlink:href="#aL"/><use transform="matrix(0.05,0,0,0.05,78.80000000000001,0)" xlink:href="#aO"/><use transform="matrix(0.05,0,0,0.05,83.80000000000001,0)" xlink:href="#aQ"/><use transform="matrix(0.05,0,0,0.05,88.80000000000001,0)" xlink:href="#aR"/></g><g id="T"><use transform="matrix(0.05,0,0,0.05,0,0)" xlink:href="#aR"/><use transform="matrix(0.05,0,0,0.05,10,0)" xlink:href="#aV"/><use transform="matrix(0.05,0,0,0.05,20,0)" xlink:href="#aO"/><use transform="matrix(0.05,0,0,0.05,25,0)" xlink:href="#aH"/><use transform="matrix(0.05,0,0,0.05,35,0)" xlink:href="#aX"/><use transform="matrix(0.05,0,0,0.05,47,0)" xlink:href="#aL"/><use transform="matrix(0.05,0,0,0.05,57,0)" xlink:href="#aI"/><use transform="matrix(0.05,0,0,0.05,62.95,0)" xlink:href="#aK"/><use transform="matrix(0.05,0,0,0.05,72.95,0)" xlink:href="#aY"/><use transform="matrix(0.05,0,0,0.05,76.9,0)" xlink:href="#aY"/><use transform="matrix(0.05,0,0,0.05,80.85000000000001,0)" xlink:href="#aH"/><use transform="matrix(0.05,0,0,0.05,90.85000000000001,0)" xlink:href="#aR"/></g><g id="U"><use transform="matrix(0.05,0,0,0.05,0,0)" xlink:href="#aT"/><use transform="matrix(0.05,0,0,0.05,10,0)" xlink:href="#aI"/><use transform="matrix(0.05,0,0,0.05,15.949999999999998,0)" xlink:href="#aV"/><use transform="matrix(0.05,0,0,0.05,25.950000000000003,0)" xlink:href="#aR"/><use transform="matrix(0.05,0,0,0.05,35.95,0)" xlink:href="#aH"/></g><g id="V"><use transform="matrix(0.05,0,0,0.05,0,0)" xlink:href="#aM"/><use transform="matrix(0.05,0,0,0.05,5.95,0)" xlink:href="#aS"/><use transform="matrix(0.05,0,0,0.05,17.95,0)" xlink:href="#aO"/><use transform="matrix(0.05,0,0,0.05,22.95,0)" xlink:href="#bg"/><use transform="matrix(0.05,0,0,0.05,32.95,0)" xlink:href="#aR"/><use transform="matrix(0.05,0,0,0.05,42.95,0)" xlink:href="#aH"/><use transform="matrix(0.05,0,0,0.05,52.95,0)" xlink:href="#aL"/><use transform="matrix(0.05,0,0,0.05,62.95,0)" xlink:href="#aO"/></g><g id="W"><use transform="matrix(0.05,0,0,0.05,0,0)" xlink:href="#aJ"/><use transform="matrix(0.05,0,0,0.05,9,0)" xlink:href="#aO"/><use transform="matrix(0.05,0,0,0.05,14,0)" xlink:href="#bg"/><use transform="matrix(0.05,0,0,0.05,24,0)" xlink:href="#aR"/><use transform="matrix(0.05,0,0,0.05,34,0)" xlink:href="#aH"/><use transform="matrix(0.05,0,0,0.05,44,0)" xlink:href="#aL"/><use transform="matrix(0.05,0,0,0.05,54,0)" xlink:href="#aO"/></g><g id="X"><use transform="matrix(0.05,0,0,0.05,0,0)" xlink:href="#aM"/><use transform="matrix(0.05,0,0,0.05,5.95,0)" xlink:href="#bp"/><use transform="matrix(0.05,0,0,0.05,15.949999999999998,0)" xlink:href="#aH"/><use transform="matrix(0.05,0,0,0.05,25.950000000000003,0)" xlink:href="#bi"/><use transform="matrix(0.05,0,0,0.05,34.95,0)" xlink:href="#aO"/><use transform="matrix(0.05,0,0,0.05,39.95,0)" xlink:href="#bg"/><use transform="matrix(0.05,0,0,0.05,49.95,0)" xlink:href="#aI"/><use transform="matrix(0.05,0,0,0.05,55.900000000000006,0)" xlink:href="#aH"/><use transform="matrix(0.05,0,0,0.05,65.9,0)" xlink:href="#aI"/></g><g id="Y"><use transform="matrix(0.05,0,0,0.05,0,0)" xlink:href="#aY"/><use transform="matrix(0.05,0,0,0.05,3.95,0)" xlink:href="#aH"/><use transform="matrix(0.05,0,0,0.05,13.949999999999998,0)" xlink:href="#bi"/><use transform="matrix(0.05,0,0,0.05,22.95,0)" xlink:href="#aO"/><use transform="matrix(0.05,0,0,0.05,27.950000000000003,0)" xlink:href="#bg"/><use transform="matrix(0.05,0,0,0.05,37.95,0)" xlink:href="#aI"/><use transform="matrix(0.05,0,0,0.05,43.900000000000006,0)" xlink:href="#aH"/><use transform="matrix(0.05,0,0,0.05,53.900000000000006,0)" xlink:href="#aI"/></g><g id="Z"><use transform="matrix(0.05,0,0,0.05,0,0)" xlink:href="#aM"/><use transform="matrix(0.05,0,0,0.05,5.95,0)" xlink:href="#br"/><use transform="matrix(0.05,0,0,0.05,18.900000000000002,0)" xlink:href="#aK"/><use transform="matrix(0.05,0,0,0.05,28.900000000000002,0)" xlink:href="#bg"/><use transform="matrix(0.05,0,0,0.05,38.900000000000006,0)" xlink:href="#aI"/><use transform="matrix(0.05,0,0,0.05,44.85000000000001,0)" xlink:href="#aJ"/><use transform="matrix(0.05,0,0,0.05,53.85,0)" xlink:href="#aH"/></g><g id="aa"><use transform="matrix(0.05,0,0,0.05,0,0)" xlink:href="#bi"/><use transform="matrix(0.05,0,0,0.05,9,0)" xlink:href="#aK"/><use transform="matrix(0.05,0,0,0.05,19,0)" xlink:href="#bg"/><use transform="matrix(0.05,0,0,0.05,29,0)" xlink:href="#aI"/><use transform="matrix(0.05,0,0,0.05,34.95,0)" xlink:href="#aJ"/><use transform="matrix(0.05,0,0,0.05,43.95,0)" xlink:href="#aH"/></g><g id="ab"><use transform="matrix(0.05,0,0,0.05,0,0)" xlink:href="#aM"/><use transform="matrix(0.05,0,0,0.05,5.95,0)" xlink:href="#aS"/><use transform="matrix(0.05,0,0,0.05,17.95,0)" xlink:href="#aH"/><use transform="matrix(0.05,0,0,0.05,27.950000000000003,0)" xlink:href="#aW"/><use transform="matrix(0.05,0,0,0.05,42.9,0)" xlink:href="#aH"/><use transform="matrix(0.05,0,0,0.05,52.900000000000006,0)" xlink:href="#aJ"/><use transform="matrix(0.05,0,0,0.05,61.900000000000006,0)" xlink:href="#aO"/><use transform="matrix(0.05,0,0,0.05,66.9,0)" xlink:href="#aH"/><use transform="matrix(0.05,0,0,0.05,76.9,0)" xlink:href="#aI"/></g><g id="ac"><use transform="matrix(0.05,0,0,0.05,0,0)" xlink:href="#aJ"/><use transform="matrix(0.05,0,0,0.05,9,0)" xlink:href="#aH"/><use transform="matrix(0.05,0,0,0.05,19,0)" xlink:href="#aW"/><use transform="matrix(0.05,0,0,0.05,33.95,0)" xlink:href="#aH"/><use transform="matrix(0.05,0,0,0.05,43.95,0)" xlink:href="#aJ"/><use transform="matrix(0.05,0,0,0.05,52.95,0)" xlink:href="#aO"/><use transform="matrix(0.05,0,0,0.05,57.95,0)" xlink:href="#aH"/><use transform="matrix(0.05,0,0,0.05,67.95,0)" xlink:href="#aI"/></g><g id="ad"><use transform="matrix(0.05,0,0,0.05,0,0)" xlink:href="#bm"/><use transform="matrix(0.05,0,0,0.05,10.5,0)" xlink:href="#aT"/><use transform="matrix(0.05,0,0,0.05,20.5,0)" xlink:href="#aH"/><use transform="matrix(0.05,0,0,0.05,30.5,0)" xlink:href="#aO"/><use transform="matrix(0.05,0,0,0.05,35.5,0)" xlink:href="#aX"/><use transform="matrix(0.05,0,0,0.05,47.5,0)" xlink:href="#aL"/><use transform="matrix(0.05,0,0,0.05,57.5,0)" xlink:href="#aI"/><use transform="matrix(0.05,0,0,0.05,63.45,0)" xlink:href="#aK"/><use transform="matrix(0.05,0,0,0.05,73.45,0)" xlink:href="#aY"/><use transform="matrix(0.05,0,0,0.05,77.4,0)" xlink:href="#aY"/><use transform="matrix(0.05,0,0,0.05,81.35000000000001,0)" xlink:href="#aW"/><use transform="matrix(0.05,0,0,0.05,96.30000000000001,0)" xlink:href="#aH"/><use transform="matrix(0.05,0,0,0.05,106.30000000000001,0)" xlink:href="#aL"/><use transform="matrix(0.05,0,0,0.05,116.30000000000001,0)" xlink:href="#aO"/><use transform="matrix(0.05,0,0,0.05,121.30000000000001,0)" xlink:href="#aQ"/><use transform="matrix(0.05,0,0,0.05,126.30000000000001,0)" xlink:href="#aR"/><use transform="matrix(0.05,0,0,0.05,136.3,0)" xlink:href="#bn"/><use transform="matrix(0.05,0,0,0.05,142.25,0)" xlink:href="#bo"/></g><g id="ae"><use transform="matrix(0.05,0,0,0.05,0,0)" xlink:href="#bm"/><use transform="matrix(0.05,0,0,0.05,10.5,0)" xlink:href="#aJ"/><use transform="matrix(0.05,0,0,0.05,19.5,0)" xlink:href="#aH"/><use transform="matrix(0.05,0,0,0.05,29.5,0)" xlink:href="#aO"/><use transform="matrix(0.05,0,0,0.05,34.5,0)" xlink:href="#aX"/><use transform="matrix(0.05,0,0,0.05,46.5,0)" xlink:href="#aL"/><use transform="matrix(0.05,0,0,0.05,56.5,0)" xlink:href="#aI"/><use transform="matrix(0.05,0,0,0.05,62.45,0)" xlink:href="#aK"/><use transform="matrix(0.05,0,0,0.05,72.45,0)" xlink:href="#aY"/><use transform="matrix(0.05,0,0,0.05,76.4,0)" xlink:href="#aY"/><use transform="matrix(0.05,0,0,0.05,80.35000000000001,0)" xlink:href="#aW"/><use transform="matrix(0.05,0,0,0.05,95.30000000000001,0)" xlink:href="#aH"/><use transform="matrix(0.05,0,0,0.05,105.30000000000001,0)" xlink:href="#aL"/><use transform="matrix(0.05,0,0,0.05,115.30000000000001,0)" xlink:href="#aO"/><use transform="matrix(0.05,0,0,0.05,120.30000000000001,0)" xlink:href="#aQ"/><use transform="matrix(0.05,0,0,0.05,125.30000000000001,0)" xlink:href="#aR"/><use transform="matrix(0.05,0,0,0.05,135.3,0)" xlink:href="#bn"/><use transform="matrix(0.05,0,0,0.05,141.25,0)" xlink:href="#aS"/><use transform="matrix(0.05,0,0,0.05,153.25,0)" xlink:href="#aO"/><use transform="matrix(0.05,0,0,0.05,158.25,0)" xlink:href="#aI"/><use transform="matrix(0.05,0,0,0.05,164.2,0)" xlink:href="#aN"/><use transform="matrix(0.05,0,0,0.05,168.14999999999998,0)" xlink:href="#aL"/><use transform="matrix(0.05,0,0,0.05,178.14999999999998,0)" xlink:href="#aT"/><use transform="matrix(0.05,0,0,0.05,188.14999999999998,0)" xlink:href="#bo"/></g><g id="af"><use transform="matrix(0.05,0,0,0.05,0,0)" xlink:href="#bm"/><use transform="matrix(0.05,0,0,0.05,10.5,0)" xlink:href="#aT"/><use transform="matrix(0.05,0,0,0.05,20.5,0)" xlink:href="#aH"/><use transform="matrix(0.05,0,0,0.05,30.5,0)" xlink:href="#aO"/><use transform="matrix(0.05,0,0,0.05,35.5,0)" xlink:href="#bf"/><use transform="matrix(0.05,0,0,0.05,49.5,0)" xlink:href="#aI"/><use transform="matrix(0.05,0,0,0.05,55.45,0)" xlink:href="#aV"/><use transform="matrix(0.05,0,0,0.05,65.45,0)" xlink:href="#aR"/><use transform="matrix(0.05,0,0,0.05,75.45,0)" xlink:href="#aH"/><use transform="matrix(0.05,0,0,0.05,85.45,0)" xlink:href="#bn"/><use transform="matrix(0.05,0,0,0.05,91.4,0)" xlink:href="#bo"/></g><g id="ag"><use transform="matrix(0.05,0,0,0.05,0,0)" xlink:href="#bm"/><use transform="matrix(0.05,0,0,0.05,10.5,0)" xlink:href="#aJ"/><use transform="matrix(0.05,0,0,0.05,19.5,0)" xlink:href="#aH"/><use transform="matrix(0.05,0,0,0.05,29.5,0)" xlink:href="#aO"/><use transform="matrix(0.05,0,0,0.05,34.5,0)" xlink:href="#bf"/><use transform="matrix(0.05,0,0,0.05,48.5,0)" xlink:href="#aI"/><use transform="matrix(0.05,0,0,0.05,54.45,0)" xlink:href="#aV"/><use transform="matrix(0.05,0,0,0.05,64.45,0)" xlink:href="#aR"/><use transform="matrix(0.05,0,0,0.05,74.45,0)" xlink:href="#aH"/><use transform="matrix(0.05,0,0,0.05,84.45,0)" xlink:href="#bn"/><use transform="matrix(0.05,0,0,0.05,90.4,0)" xlink:href="#aS"/><use transform="matrix(0.05,0,0,0.05,102.4,0)" xlink:href="#aO"/><use transform="matrix(0.05,0,0,0.05,107.4,0)" xlink:href="#aI"/><use transform="matrix(0.05,0,0,0.05,113.35000000000001,0)" xlink:href="#aN"/><use transform="matrix(0.05,0,0,0.05,117.30000000000001,0)" xlink:href="#aL"/><use transform="matrix(0.05,0,0,0.05,127.30000000000001,0)" xlink:href="#aT"/><use transform="matrix(0.05,0,0,0.05,137.3,0)" xlink:href="#bo"/></g><g id="ah"><use transform="matrix(0.05,0,0,0.05,0,0)" xlink:href="#aS"/><use transform="matrix(0.05,0,0,0.05,12,0)" xlink:href="#aH"/><use transform="matrix(0.05,0,0,0.05,22,0)" xlink:href="#aW"/><use transform="matrix(0.05,0,0,0.05,36.95,0)" xlink:href="#aH"/><use transform="matrix(0.05,0,0,0.05,46.95,0)" xlink:href="#aJ"/><use transform="matrix(0.05,0,0,0.05,55.95,0)" xlink:href="#aO"/><use transform="matrix(0.05,0,0,0.05,60.95,0)" xlink:href="#aH"/><use transform="matrix(0.05,0,0,0.05,70.95,0)" xlink:href="#aI"/></g><g id="ai"><use transform="matrix(0.05,0,0,0.05,0,0)" xlink:href="#aJ"/><use transform="matrix(0.05,0,0,0.05,9,0)" xlink:href="#aH"/><use transform="matrix(0.05,0,0,0.05,19,0)" xlink:href="#aW"/><use transform="matrix(0.05,0,0,0.05,33.95,0)" xlink:href="#aH"/><use transform="matrix(0.05,0,0,0.05,43.95,0)" xlink:href="#aJ"/><use transform="matrix(0.05,0,0,0.05,52.95,0)" xlink:href="#aO"/><use transform="matrix(0.05,0,0,0.05,57.95,0)" xlink:href="#aH"/><use transform="matrix(0.05,0,0,0.05,67.95,0)" xlink:href="#aI"/><use transform="matrix(0.05,0,0,0.05,73.9,0)" xlink:href="#aQ"/><use transform="matrix(0.05,0,0,0.05,78.9,0)" xlink:href="#aR"/></g><g id="aj"><use transform="matrix(0.05,0,0,0.05,0,0)" xlink:href="#aJ"/><use transform="matrix(0.05,0,0,0.05,9,0)" xlink:href="#aO"/><use transform="matrix(0.05,0,0,0.05,14,0)" xlink:href="#aV"/><use transform="matrix(0.05,0,0,0.05,24,0)" xlink:href="#aI"/><use transform="matrix(0.05,0,0,0.05,29.950000000000003,0)" xlink:href="#aO"/><use transform="matrix(0.05,0,0,0.05,34.95,0)" xlink:href="#bc"/><use transform="matrix(0.05,0,0,0.05,47.900000000000006,0)" xlink:href="#aV"/><use transform="matrix(0.05,0,0,0.05,57.900000000000006,0)" xlink:href="#aO"/><use transform="matrix(0.05,0,0,0.05,62.900000000000006,0)" xlink:href="#aH"/></g><g id="ak"><use transform="matrix(0.05,0,0,0.05,0,0)" xlink:href="#aH"/><use transform="matrix(0.05,0,0,0.05,10,0)" xlink:href="#aL"/><use transform="matrix(0.05,0,0,0.05,20,0)" xlink:href="#aR"/><use transform="matrix(0.05,0,0,0.05,30,0)" xlink:href="#bc"/><use transform="matrix(0.05,0,0,0.05,42.95,0)" xlink:href="#aV"/><use transform="matrix(0.05,0,0,0.05,52.95,0)" xlink:href="#aO"/><use transform="matrix(0.05,0,0,0.05,57.95,0)" xlink:href="#aH"/></g><g id="al"><use transform="matrix(0.05,0,0,0.05,0,0)" xlink:href="#aK"/><use transform="matrix(0.05,0,0,0.05,10,0)" xlink:href="#be"/><use transform="matrix(0.05,0,0,0.05,14.65,0)" xlink:href="#be"/><use transform="matrix(0.05,0,0,0.05,19.65,0)" xlink:href="#aH"/><use transform="matrix(0.05,0,0,0.05,29.649999999999995,0)" xlink:href="#aI"/><use transform="matrix(0.05,0,0,0.05,35.6,0)" xlink:href="#aN"/><use transform="matrix(0.05,0,0,0.05,39.550000000000004,0)" xlink:href="#aL"/><use transform="matrix(0.05,0,0,0.05,49.550000000000004,0)" xlink:href="#aT"/><use transform="matrix(0.05,0,0,0.05,59.550000000000004,0)" xlink:href="#aJ"/></g><g id="am"><use transform="matrix(0.05,0,0,0.05,0,0)" xlink:href="#aM"/><use transform="matrix(0.05,0,0,0.05,5.95,0)" xlink:href="#bp"/><use transform="matrix(0.05,0,0,0.05,15.949999999999998,0)" xlink:href="#aN"/><use transform="matrix(0.05,0,0,0.05,19.9,0)" xlink:href="#aJ"/><use transform="matrix(0.05,0,0,0.05,28.899999999999995,0)" xlink:href="#aO"/><use transform="matrix(0.05,0,0,0.05,33.9,0)" xlink:href="#bq"/><use transform="matrix(0.05,0,0,0.05,44.4,0)" xlink:href="#ba"/><use transform="matrix(0.05,0,0,0.05,54.7,0)" xlink:href="#aN"/><use transform="matrix(0.05,0,0,0.05,58.650000000000006,0)" xlink:href="#aW"/><use transform="matrix(0.05,0,0,0.05,73.60000000000001,0)" xlink:href="#aH"/><use transform="matrix(0.05,0,0,0.05,83.60000000000001,0)" xlink:href="#aO"/><use transform="matrix(0.05,0,0,0.05,88.60000000000001,0)" xlink:href="#aV"/><use transform="matrix(0.05,0,0,0.05,98.60000000000001,0)" xlink:href="#bk"/><use transform="matrix(0.05,0,0,0.05,108.60000000000001,0)" xlink:href="#aY"/><use transform="matrix(0.05,0,0,0.05,112.55000000000001,0)" xlink:href="#aH"/><use transform="matrix(0.05,0,0,0.05,122.55000000000001,0)" xlink:href="#bq"/></g><g id="an"><use transform="matrix(0.05,0,0,0.05,0,0)" xlink:href="#aO"/><use transform="matrix(0.05,0,0,0.05,5,0)" xlink:href="#aN"/><use transform="matrix(0.05,0,0,0.05,8.95,0)" xlink:href="#aW"/><use transform="matrix(0.05,0,0,0.05,23.9,0)" xlink:href="#aH"/><use transform="matrix(0.05,0,0,0.05,33.9,0)" xlink:href="#aO"/><use transform="matrix(0.05,0,0,0.05,38.9,0)" xlink:href="#aV"/><use transform="matrix(0.05,0,0,0.05,48.9,0)" xlink:href="#bk"/><use transform="matrix(0.05,0,0,0.05,58.900000000000006,0)" xlink:href="#aY"/><use transform="matrix(0.05,0,0,0.05,62.85,0)" xlink:href="#aH"/><use transform="matrix(0.05,0,0,0.05,72.85,0)" xlink:href="#aJ"/></g><g id="ao"><use transform="matrix(0.05,0,0,0.05,0,0)" xlink:href="#bm"/><use transform="matrix(0.05,0,0,0.05,10.5,0)" xlink:href="#aT"/><use transform="matrix(0.05,0,0,0.05,20.5,0)" xlink:href="#aH"/><use transform="matrix(0.05,0,0,0.05,30.5,0)" xlink:href="#aO"/><use transform="matrix(0.05,0,0,0.05,35.5,0)" xlink:href="#aS"/><use transform="matrix(0.05,0,0,0.05,47.5,0)" xlink:href="#aH"/><use transform="matrix(0.05,0,0,0.05,57.5,0)" xlink:href="#aW"/><use transform="matrix(0.05,0,0,0.05,72.45,0)" xlink:href="#aH"/><use transform="matrix(0.05,0,0,0.05,82.45,0)" xlink:href="#aJ"/><use transform="matrix(0.05,0,0,0.05,91.45,0)" xlink:href="#aO"/><use transform="matrix(0.05,0,0,0.05,96.45,0)" xlink:href="#aH"/><use transform="matrix(0.05,0,0,0.05,106.45,0)" xlink:href="#aI"/><use transform="matrix(0.05,0,0,0.05,112.4,0)" xlink:href="#aQ"/><use transform="matrix(0.05,0,0,0.05,117.4,0)" xlink:href="#aR"/><use transform="matrix(0.05,0,0,0.05,127.4,0)" xlink:href="#bn"/><use transform="matrix(0.05,0,0,0.05,133.35,0)" xlink:href="#bo"/></g><g id="ap"><use transform="matrix(0.05,0,0,0.05,0,0)" xlink:href="#bm"/><use transform="matrix(0.05,0,0,0.05,10.5,0)" xlink:href="#aJ"/><use transform="matrix(0.05,0,0,0.05,19.5,0)" xlink:href="#aH"/><use transform="matrix(0.05,0,0,0.05,29.5,0)" xlink:href="#aO"/><use transform="matrix(0.05,0,0,0.05,34.5,0)" xlink:href="#aS"/><use transform="matrix(0.05,0,0,0.05,46.5,0)" xlink:href="#aH"/><use transform="matrix(0.05,0,0,0.05,56.5,0)" xlink:href="#aW"/><use transform="matrix(0.05,0,0,0.05,71.45,0)" xlink:href="#aH"/><use transform="matrix(0.05,0,0,0.05,81.45,0)" xlink:href="#aJ"/><use transform="matrix(0.05,0,0,0.05,90.45,0)" xlink:href="#aO"/><use transform="matrix(0.05,0,0,0.05,95.45,0)" xlink:href="#aH"/><use transform="matrix(0.05,0,0,0.05,105.45,0)" xlink:href="#aI"/><use transform="matrix(0.05,0,0,0.05,111.4,0)" xlink:href="#aQ"/><use transform="matrix(0.05,0,0,0.05,116.4,0)" xlink:href="#aR"/><use transform="matrix(0.05,0,0,0.05,126.4,0)" xlink:href="#bn"/><use transform="matrix(0.05,0,0,0.05,132.35,0)" xlink:href="#aS"/><use transform="matrix(0.05,0,0,0.05,144.35,0)" xlink:href="#aO"/><use transform="matrix(0.05,0,0,0.05,149.35,0)" xlink:href="#aI"/><use transform="matrix(0.05,0,0,0.05,155.29999999999998,0)" xlink:href="#aN"/><use transform="matrix(0.05,0,0,0.05,159.24999999999997,0)" xlink:href="#aL"/><use transform="matrix(0.05,0,0,0.05,169.24999999999997,0)" xlink:href="#aT"/><use transform="matrix(0.05,0,0,0.05,179.24999999999997,0)" xlink:href="#bo"/></g><g id="aq"><use transform="matrix(0.05,0,0,0.05,0,0)" xlink:href="#ba"/><use transform="matrix(0.05,0,0,0.05,10.3,0)" xlink:href="#aN"/><use transform="matrix(0.05,0,0,0.05,14.25,0)" xlink:href="#aW"/><use transform="matrix(0.05,0,0,0.05,29.200000000000003,0)" xlink:href="#aH"/><use transform="matrix(0.05,0,0,0.05,39.2,0)" xlink:href="#aO"/><use transform="matrix(0.05,0,0,0.05,44.2,0)" xlink:href="#aV"/><use transform="matrix(0.05,0,0,0.05,54.2,0)" xlink:href="#bk"/><use transform="matrix(0.05,0,0,0.05,64.2,0)" xlink:href="#aY"/><use transform="matrix(0.05,0,0,0.05,68.15,0)" xlink:href="#aH"/></g><g id="ar"><use transform="matrix(0.05,0,0,0.05,0,0)" xlink:href="#aJ"/><use transform="matrix(0.05,0,0,0.05,9,0)" xlink:href="#aO"/><use transform="matrix(0.05,0,0,0.05,14,0)" xlink:href="#bg"/><use transform="matrix(0.05,0,0,0.05,24,0)" xlink:href="#aR"/><use transform="matrix(0.05,0,0,0.05,34,0)" xlink:href="#aH"/><use transform="matrix(0.05,0,0,0.05,44,0)" xlink:href="#aL"/><use transform="matrix(0.05,0,0,0.05,54,0)" xlink:href="#aO"/><use transform="matrix(0.05,0,0,0.05,59,0)" xlink:href="#aQ"/><use transform="matrix(0.05,0,0,0.05,64,0)" xlink:href="#aR"/></g><g id="as"><use transform="matrix(0.05,0,0,0.05,0,0)" xlink:href="#aM"/><use transform="matrix(0.05,0,0,0.05,5.95,0)" xlink:href="#br"/><use transform="matrix(0.05,0,0,0.05,18.900000000000002,0)" xlink:href="#aK"/><use transform="matrix(0.05,0,0,0.05,28.900000000000002,0)" xlink:href="#bg"/><use transform="matrix(0.05,0,0,0.05,38.900000000000006,0)" xlink:href="#aI"/><use transform="matrix(0.05,0,0,0.05,44.85000000000001,0)" xlink:href="#aJ"/><use transform="matrix(0.05,0,0,0.05,53.85,0)" xlink:href="#aH"/><use transform="matrix(0.05,0,0,0.05,63.85,0)" xlink:href="#bd"/><use transform="matrix(0.05,0,0,0.05,77.85000000000001,0)" xlink:href="#be"/><use transform="matrix(0.05,0,0,0.05,82.50000000000001,0)" xlink:href="#be"/><use transform="matrix(0.05,0,0,0.05,87.50000000000001,0)" xlink:href="#aH"/><use transform="matrix(0.05,0,0,0.05,97.50000000000001,0)" xlink:href="#aI"/><use transform="matrix(0.05,0,0,0.05,103.45,0)" xlink:href="#aN"/><use transform="matrix(0.05,0,0,0.05,107.40000000000003,0)" xlink:href="#aL"/><use transform="matrix(0.05,0,0,0.05,117.40000000000003,0)" xlink:href="#aT"/></g><g id="at"><use transform="matrix(0.05,0,0,0.05,0,0)" xlink:href="#aK"/><use transform="matrix(0.05,0,0,0.05,10,0)" xlink:href="#be"/><use transform="matrix(0.05,0,0,0.05,14.65,0)" xlink:href="#be"/><use transform="matrix(0.05,0,0,0.05,19.65,0)" xlink:href="#aH"/><use transform="matrix(0.05,0,0,0.05,29.649999999999995,0)" xlink:href="#aI"/><use transform="matrix(0.05,0,0,0.05,35.6,0)" xlink:href="#aN"/><use transform="matrix(0.05,0,0,0.05,39.550000000000004,0)" xlink:href="#aL"/><use transform="matrix(0.05,0,0,0.05,49.550000000000004,0)" xlink:href="#aT"/></g><g id="au"><use transform="matrix(0.05,0,0,0.05,0,0)" xlink:href="#bm"/><use transform="matrix(0.05,0,0,0.05,10.5,0)" xlink:href="#aT"/><use transform="matrix(0.05,0,0,0.05,20.5,0)" xlink:href="#aH"/><use transform="matrix(0.05,0,0,0.05,30.5,0)" xlink:href="#aO"/><use transform="matrix(0.05,0,0,0.05,35.5,0)" xlink:href="#aS"/><use transform="matrix(0.05,0,0,0.05,47.5,0)" xlink:href="#aO"/><use transform="matrix(0.05,0,0,0.05,52.5,0)" xlink:href="#bg"/><use transform="matrix(0.05,0,0,0.05,62.5,0)" xlink:href="#aR"/><use transform="matrix(0.05,0,0,0.05,72.5,0)" xlink:href="#aH"/><use transform="matrix(0.05,0,0,0.05,82.5,0)" xlink:href="#aL"/><use transform="matrix(0.05,0,0,0.05,92.5,0)" xlink:href="#aO"/><use transform="matrix(0.05,0,0,0.05,97.5,0)" xlink:href="#aQ"/><use transform="matrix(0.05,0,0,0.05,102.5,0)" xlink:href="#aR"/><use transform="matrix(0.05,0,0,0.05,112.5,0)" xlink:href="#bn"/><use transform="matrix(0.05,0,0,0.05,118.45,0)" xlink:href="#bo"/></g><g id="av"><use transform="matrix(0.05,0,0,0.05,0,0)" xlink:href="#bm"/><use transform="matrix(0.05,0,0,0.05,10.5,0)" xlink:href="#aJ"/><use transform="matrix(0.05,0,0,0.05,19.5,0)" xlink:href="#aH"/><use transform="matrix(0.05,0,0,0.05,29.5,0)" xlink:href="#aO"/><use transform="matrix(0.05,0,0,0.05,34.5,0)" xlink:href="#aS"/><use transform="matrix(0.05,0,0,0.05,46.5,0)" xlink:href="#aO"/><use transform="matrix(0.05,0,0,0.05,51.5,0)" xlink:href="#bg"/><use transform="matrix(0.05,0,0,0.05,61.5,0)" xlink:href="#aR"/><use transform="matrix(0.05,0,0,0.05,71.5,0)" xlink:href="#aH"/><use transform="matrix(0.05,0,0,0.05,81.5,0)" xlink:href="#aL"/><use transform="matrix(0.05,0,0,0.05,91.5,0)" xlink:href="#aO"/><use transform="matrix(0.05,0,0,0.05,96.5,0)" xlink:href="#aQ"/><use transform="matrix(0.05,0,0,0.05,101.5,0)" xlink:href="#aR"/><use transform="matrix(0.05,0,0,0.05,111.5,0)" xlink:href="#bn"/><use transform="matrix(0.05,0,0,0.05,117.45,0)" xlink:href="#aS"/><use transform="matrix(0.05,0,0,0.05,129.45,0)" xlink:href="#aO"/><use transform="matrix(0.05,0,0,0.05,134.45,0)" xlink:href="#aI"/><use transform="matrix(0.05,0,0,0.05,140.39999999999998,0)" xlink:href="#aN"/><use transform="matrix(0.05,0,0,0.05,144.34999999999997,0)" xlink:href="#aL"/><use transform="matrix(0.05,0,0,0.05,154.34999999999997,0)" xlink:href="#aT"/><use transform="matrix(0.05,0,0,0.05,164.34999999999997,0)" xlink:href="#bo"/></g><g id="aw"><use transform="matrix(0.05,0,0,0.05,0,0)" xlink:href="#bm"/><use transform="matrix(0.05,0,0,0.05,10.5,0)" xlink:href="#aJ"/><use transform="matrix(0.05,0,0,0.05,19.5,0)" xlink:href="#aH"/><use transform="matrix(0.05,0,0,0.05,29.5,0)" xlink:href="#aO"/><use transform="matrix(0.05,0,0,0.05,34.5,0)" xlink:href="#aS"/><use transform="matrix(0.05,0,0,0.05,46.5,0)" xlink:href="#aH"/><use transform="matrix(0.05,0,0,0.05,56.5,0)" xlink:href="#aW"/><use transform="matrix(0.05,0,0,0.05,71.45,0)" xlink:href="#aH"/><use transform="matrix(0.05,0,0,0.05,81.45,0)" xlink:href="#aJ"/><use transform="matrix(0.05,0,0,0.05,90.45,0)" xlink:href="#aO"/><use transform="matrix(0.05,0,0,0.05,95.45,0)" xlink:href="#aH"/><use transform="matrix(0.05,0,0,0.05,105.45,0)" xlink:href="#aI"/><use transform="matrix(0.05,0,0,0.05,111.4,0)" xlink:href="#aQ"/><use transform="matrix(0.05,0,0,0.05,116.4,0)" xlink:href="#aR"/><use transform="matrix(0.05,0,0,0.05,126.4,0)" xlink:href="#bn"/><use transform="matrix(0.05,0,0,0.05,132.35,0)" xlink:href="#aS"/><use transform="matrix(0.05,0,0,0.05,144.35,0)" xlink:href="#aO"/><use transform="matrix(0.05,0,0,0.05,149.35,0)" xlink:href="#aI"/><use transform="matrix(0.05,0,0,0.05,155.29999999999998,0)" xlink:href="#aN"/><use transform="matrix(0.05,0,0,0.05,159.24999999999997,0)" xlink:href="#aL"/><use transform="matrix(0.05,0,0,0.05,169.24999999999997,0)" xlink:href="#aT"/><use transform="matrix(0.05,0,0,0.05,179.24999999999997,0)" xlink:href="#bo"/></g><path fill="#3a414a" d="M24-231v-30h32v30H24zM24 0v-190h32V0H24" id="bt"/><path fill="#3a414a" d="M117-194c89-4 53 116 60 194h-32v-121c0-31-8-49-39-48C34-167 62-67 57 0H25l-1-190h30c1 10-1 24 2 32 11-22 29-35 61-36" id="bu"/><path fill="#3a414a" d="M106-169C34-169 62-67 57 0H25v-261h32l-1 103c12-21 28-36 61-36 89 0 53 116 60 194h-32v-121c2-32-8-49-39-48" id="bv"/><path fill="#3a414a" d="M100-194c63 0 86 42 84 106H49c0 40 14 67 53 68 26 1 43-12 49-29l28 8c-11 28-37 45-77 45C44 4 14-33 15-96c1-61 26-98 85-98zm52 81c6-60-76-77-97-28-3 7-6 17-6 28h103" id="bw"/><path fill="#3a414a" d="M114-163C36-179 61-72 57 0H25l-1-190h30c1 12-1 29 2 39 6-27 23-49 58-41v29" id="bx"/><path fill="#3a414a" d="M59-47c-2 24 18 29 38 22v24C64 9 27 4 27-40v-127H5v-23h24l9-43h21v43h35v23H59v120" id="by"/><path fill="#3a414a" d="M141-36C126-15 110 5 73 4 37 3 15-17 15-53c-1-64 63-63 125-63 3-35-9-54-41-54-24 1-41 7-42 31l-33-3c5-37 33-52 76-52 45 0 72 20 72 64v82c-1 20 7 32 28 27v20c-31 9-61-2-59-35zM48-53c0 20 12 33 32 33 41-3 63-29 60-74-43 2-92-5-92 41" id="bz"/><path fill="#3a414a" d="M96-169c-40 0-48 33-48 73s9 75 48 75c24 0 41-14 43-38l32 2c-6 37-31 61-74 61-59 0-76-41-82-99-10-93 101-131 147-64 4 7 5 14 7 22l-32 3c-4-21-16-35-41-35" id="bA"/><g id="ax"><use transform="matrix(0.05,0,0,0.05,0,0)" xlink:href="#bt"/><use transform="matrix(0.05,0,0,0.05,3.95,0)" xlink:href="#bu"/><use transform="matrix(0.05,0,0,0.05,13.949999999999998,0)" xlink:href="#bv"/><use transform="matrix(0.05,0,0,0.05,23.95,0)" xlink:href="#bw"/><use transform="matrix(0.05,0,0,0.05,33.95,0)" xlink:href="#bx"/><use transform="matrix(0.05,0,0,0.05,39.900000000000006,0)" xlink:href="#bt"/><use transform="matrix(0.05,0,0,0.05,43.85000000000001,0)" xlink:href="#by"/><use transform="matrix(0.05,0,0,0.05,48.85000000000001,0)" xlink:href="#bz"/><use transform="matrix(0.05,0,0,0.05,58.85,0)" xlink:href="#bu"/><use transform="matrix(0.05,0,0,0.05,68.85000000000001,0)" xlink:href="#bA"/><use transform="matrix(0.05,0,0,0.05,77.85000000000001,0)" xlink:href="#bw"/></g><path fill="#3a414a" d="M100-194c62-1 85 37 85 99 1 63-27 99-86 99S16-35 15-95c0-66 28-99 85-99zM99-20c44 1 53-31 53-75 0-43-8-75-51-75s-53 32-53 75 10 74 51 75" id="bB"/><path fill="#3a414a" d="M24 0v-261h32V0H24" id="bC"/><path fill="#3a414a" d="M135-143c-3-34-86-38-87 0 15 53 115 12 119 90S17 21 10-45l28-5c4 36 97 45 98 0-10-56-113-15-118-90-4-57 82-63 122-42 12 7 21 19 24 35" id="bD"/><g id="ay"><use transform="matrix(0.05,0,0,0.05,0,0)" xlink:href="#bw"/><use transform="matrix(0.05,0,0,0.05,10,0)" xlink:href="#bu"/><use transform="matrix(0.05,0,0,0.05,20,0)" xlink:href="#bx"/><use transform="matrix(0.05,0,0,0.05,25.950000000000003,0)" xlink:href="#bB"/><use transform="matrix(0.05,0,0,0.05,35.95,0)" xlink:href="#bC"/><use transform="matrix(0.05,0,0,0.05,39.900000000000006,0)" xlink:href="#bC"/><use transform="matrix(0.05,0,0,0.05,43.85000000000001,0)" xlink:href="#bD"/></g><g id="az"><use transform="matrix(0.05,0,0,0.05,0,0)" xlink:href="#bt"/><use transform="matrix(0.05,0,0,0.05,3.95,0)" xlink:href="#bu"/></g><g id="aA"><use transform="matrix(0.05,0,0,0.05,0,0)" xlink:href="#by"/><use transform="matrix(0.05,0,0,0.05,5,0)" xlink:href="#bw"/><use transform="matrix(0.05,0,0,0.05,15,0)" xlink:href="#bz"/><use transform="matrix(0.05,0,0,0.05,25,0)" xlink:href="#bA"/><use transform="matrix(0.05,0,0,0.05,34,0)" xlink:href="#bv"/><use transform="matrix(0.05,0,0,0.05,44,0)" xlink:href="#bw"/><use transform="matrix(0.05,0,0,0.05,54,0)" xlink:href="#bD"/></g><g id="aB"><use transform="matrix(0.05,0,0,0.05,0,0)" xlink:href="#bv"/><use transform="matrix(0.05,0,0,0.05,10,0)" xlink:href="#bz"/><use transform="matrix(0.05,0,0,0.05,20,0)" xlink:href="#bD"/></g><g id="aC"><use transform="matrix(0.05,0,0,0.05,0,0)" xlink:href="#bA"/><use transform="matrix(0.05,0,0,0.05,9,0)" xlink:href="#bB"/><use transform="matrix(0.05,0,0,0.05,19,0)" xlink:href="#bu"/><use transform="matrix(0.05,0,0,0.05,29,0)" xlink:href="#by"/><use transform="matrix(0.05,0,0,0.05,34,0)" xlink:href="#bz"/><use transform="matrix(0.05,0,0,0.05,44,0)" xlink:href="#bt"/><use transform="matrix(0.05,0,0,0.05,47.95,0)" xlink:href="#bu"/><use transform="matrix(0.05,0,0,0.05,57.95,0)" xlink:href="#bD"/></g><path fill="#3a414a" d="M85-194c31 0 48 13 60 33l-1-100h32l1 261h-30c-2-10 0-23-3-31C134-8 116 4 85 4 32 4 16-35 15-94c0-66 23-100 70-100zm9 24c-40 0-46 34-46 75 0 40 6 74 45 74 42 0 51-32 51-76 0-42-9-74-50-73" id="bE"/><path fill="#3a414a" d="M84 4C-5 8 30-112 23-190h32v120c0 31 7 50 39 49 72-2 45-101 50-169h31l1 190h-30c-1-10 1-25-2-33-11 22-28 36-60 37" id="bF"/><g id="aD"><use transform="matrix(0.05,0,0,0.05,0,0)" xlink:href="#bD"/><use transform="matrix(0.05,0,0,0.05,9,0)" xlink:href="#bA"/><use transform="matrix(0.05,0,0,0.05,18,0)" xlink:href="#bv"/><use transform="matrix(0.05,0,0,0.05,28,0)" xlink:href="#bw"/><use transform="matrix(0.05,0,0,0.05,38,0)" xlink:href="#bE"/><use transform="matrix(0.05,0,0,0.05,48,0)" xlink:href="#bF"/><use transform="matrix(0.05,0,0,0.05,58,0)" xlink:href="#bC"/><use transform="matrix(0.05,0,0,0.05,61.95,0)" xlink:href="#bw"/><use transform="matrix(0.05,0,0,0.05,71.95,0)" xlink:href="#bE"/></g><path fill="#3a414a" d="M115-194c53 0 69 39 70 98 0 66-23 100-70 100C84 3 66-7 56-30L54 0H23l1-261h32v101c10-23 28-34 59-34zm-8 174c40 0 45-34 45-75 0-40-5-75-45-74-42 0-51 32-51 76 0 43 10 73 51 73" id="bG"/><path fill="#3a414a" d="M177-190C167-65 218 103 67 71c-23-6-38-20-44-43l32-5c15 47 100 32 89-28v-30C133-14 115 1 83 1 29 1 15-40 15-95c0-56 16-97 71-98 29-1 48 16 59 35 1-10 0-23 2-32h30zM94-22c36 0 50-32 50-73 0-42-14-75-50-75-39 0-46 34-46 75s6 73 46 73" id="bH"/><g id="aE"><use transform="matrix(0.05,0,0,0.05,0,0)" xlink:href="#bG"/><use transform="matrix(0.05,0,0,0.05,10,0)" xlink:href="#bw"/><use transform="matrix(0.05,0,0,0.05,20,0)" xlink:href="#bC"/><use transform="matrix(0.05,0,0,0.05,23.95,0)" xlink:href="#bB"/><use transform="matrix(0.05,0,0,0.05,33.95,0)" xlink:href="#bu"/><use transform="matrix(0.05,0,0,0.05,43.95,0)" xlink:href="#bH"/><use transform="matrix(0.05,0,0,0.05,53.95,0)" xlink:href="#bD"/></g><g id="aF"><use transform="matrix(0.05,0,0,0.05,0,0)" xlink:href="#by"/><use transform="matrix(0.05,0,0,0.05,5,0)" xlink:href="#bB"/></g></defs></g></svg>