<svg xmlns="http://www.w3.org/2000/svg" xmlns:xlink="http://www.w3.org/1999/xlink" xmlns:lucid="lucid" width="2834.33" height="2821"><g transform="translate(592.499975071472 1124.3571318282561)" lucid:page-tab-id="0_0"><path d="M-1000-1500h3500v3500h-3500z" fill="#fff"/><path d="M1689.23-1103.36h412v136h-412z" fill="#fff"/><path d="M1689.23-1103.36h412v136h-412zM1689.23-1063.36h412M1895.23-1063.36v96" stroke="#000" stroke-width="2" fill="none"/><use xlink:href="#a" transform="matrix(1,0,0,1,1699.2333582618617,-1103.3571318282561) translate(144.8 23.6)"/><use xlink:href="#b" transform="matrix(1,0,0,1,1694.2333582618617,-1060.8571318282561) translate(0 17.1)"/><use xlink:href="#c" transform="matrix(1,0,0,1,1694.2333582618617,-1060.8571318282561) translate(102.85000000000001 17.1)"/><use xlink:href="#d" transform="matrix(1,0,0,1,1900.2333582618617,-1060.8571318282561) translate(0 17.1)"/><use xlink:href="#e" transform="matrix(1,0,0,1,1694.2333582618617,-1028.8571318282561) translate(0 17.1)"/><use xlink:href="#f" transform="matrix(1,0,0,1,1900.2333582618617,-1028.8571318282561) translate(0 17.1)"/><use xlink:href="#g" transform="matrix(1,0,0,1,1694.2333582618617,-996.8571318282561) translate(0 17.1)"/><use xlink:href="#f" transform="matrix(1,0,0,1,1900.2333582618617,-996.8571318282561) translate(0 17.1)"/><path d="M1210.83-459.7h406v200h-406z" fill="#fff"/><path d="M1210.83-459.7h406v200h-406zM1210.83-419.7h406M1413.83-419.7v160" stroke="#000" stroke-width="2" fill="none"/><use xlink:href="#h" transform="matrix(1,0,0,1,1220.8333582618616,-459.6904651615895) translate(160.575 23.6)"/><use xlink:href="#i" transform="matrix(1,0,0,1,1215.8333582618616,-417.1904651615895) translate(0 17.1)"/><use xlink:href="#c" transform="matrix(1,0,0,1,1215.8333582618616,-417.1904651615895) translate(70.85000000000001 17.1)"/><use xlink:href="#d" transform="matrix(1,0,0,1,1418.8333582618616,-417.1904651615895) translate(0 17.1)"/><use xlink:href="#j" transform="matrix(1,0,0,1,1215.8333582618616,-385.1904651615895) translate(0 17.1)"/><use xlink:href="#k" transform="matrix(1,0,0,1,1418.8333582618616,-385.1904651615895) translate(0 17.1)"/><use xlink:href="#l" transform="matrix(1,0,0,1,1215.8333582618616,-353.1904651615895) translate(0 17.1)"/><use xlink:href="#l" transform="matrix(1,0,0,1,1418.8333582618616,-353.1904651615895) translate(0 17.1)"/><use xlink:href="#m" transform="matrix(1,0,0,1,1215.8333582618616,-321.1904651615895) translate(0 17.1)"/><use xlink:href="#f" transform="matrix(1,0,0,1,1418.8333582618616,-321.1904651615895) translate(0 17.1)"/><use xlink:href="#b" transform="matrix(1,0,0,1,1215.8333582618616,-289.1904651615895) translate(0 17.1)"/><use xlink:href="#n" transform="matrix(1,0,0,1,1215.8333582618616,-289.1904651615895) translate(102.85000000000001 17.1)"/><use xlink:href="#d" transform="matrix(1,0,0,1,1418.8333582618616,-289.1904651615895) translate(0 17.1)"/><path d="M1816.83-484.36h404v232h-404z" fill="#fff"/><path d="M1816.83-484.36h404v232h-404zM1816.83-444.36h404M2018.83-444.36v192" stroke="#000" stroke-width="2" fill="none"/><use xlink:href="#o" transform="matrix(1,0,0,1,1826.8333582618616,-484.3571318282561) translate(148.575 23.6)"/><use xlink:href="#p" transform="matrix(1,0,0,1,1821.8333582618616,-441.8571318282561) translate(0 17.1)"/><use xlink:href="#c" transform="matrix(1,0,0,1,1821.8333582618616,-441.8571318282561) translate(92.9 17.1)"/><use xlink:href="#d" transform="matrix(1,0,0,1,2023.8333582618616,-441.8571318282561) translate(0 17.1)"/><use xlink:href="#q" transform="matrix(1,0,0,1,1821.8333582618616,-409.8571318282561) translate(0 17.1)"/><use xlink:href="#f" transform="matrix(1,0,0,1,2023.8333582618616,-409.8571318282561) translate(0 17.1)"/><use xlink:href="#r" transform="matrix(1,0,0,1,1821.8333582618616,-377.8571318282561) translate(0 17.1)"/><use xlink:href="#f" transform="matrix(1,0,0,1,2023.8333582618616,-377.8571318282561) translate(0 17.1)"/><use xlink:href="#s" transform="matrix(1,0,0,1,1821.8333582618616,-345.8571318282561) translate(0 17.1)"/><use xlink:href="#f" transform="matrix(1,0,0,1,2023.8333582618616,-345.8571318282561) translate(0 17.1)"/><use xlink:href="#t" transform="matrix(1,0,0,1,1821.8333582618616,-313.8571318282561) translate(0 17.1)"/><use xlink:href="#f" transform="matrix(1,0,0,1,2023.8333582618616,-313.8571318282561) translate(0 17.1)"/><use xlink:href="#b" transform="matrix(1,0,0,1,1821.8333582618616,-281.8571318282561) translate(0 17.1)"/><use xlink:href="#n" transform="matrix(1,0,0,1,1821.8333582618616,-281.8571318282561) translate(102.85000000000001 17.1)"/><use xlink:href="#d" transform="matrix(1,0,0,1,2023.8333582618616,-281.8571318282561) translate(0 17.1)"/><path d="M606.83-484.36h404v136h-404z" fill="#fff"/><path d="M606.83-484.36h404v136h-404zM606.83-444.36h404M808.83-444.36v96" stroke="#000" stroke-width="2" fill="none"/><use xlink:href="#u" transform="matrix(1,0,0,1,616.8333582618615,-484.3571318282561) translate(154.05 23.6)"/><use xlink:href="#b" transform="matrix(1,0,0,1,611.8333582618615,-441.8571318282561) translate(0 17.1)"/><use xlink:href="#v" transform="matrix(1,0,0,1,611.8333582618615,-441.8571318282561) translate(102.85000000000001 17.1)"/><use xlink:href="#n" transform="matrix(1,0,0,1,611.8333582618615,-441.8571318282561) translate(136.85000000000002 17.1)"/><use xlink:href="#d" transform="matrix(1,0,0,1,813.8333582618615,-441.8571318282561) translate(0 17.1)"/><use xlink:href="#w" transform="matrix(1,0,0,1,611.8333582618615,-409.8571318282561) translate(0 17.1)"/><use xlink:href="#f" transform="matrix(1,0,0,1,813.8333582618615,-409.8571318282561) translate(0 17.1)"/><use xlink:href="#x" transform="matrix(1,0,0,1,611.8333582618615,-377.8571318282561) translate(0 17.1)"/><use xlink:href="#f" transform="matrix(1,0,0,1,813.8333582618615,-377.8571318282561) translate(0 17.1)"/><path d="M2.83-484.36h404v136h-404z" fill="#fff"/><path d="M2.83-484.36h404v136h-404zM2.83-444.36h404M204.83-444.36v96" stroke="#000" stroke-width="2" fill="none"/><use xlink:href="#y" transform="matrix(1,0,0,1,12.833358261861463,-484.3571318282561) translate(147.25 23.6)"/><use xlink:href="#b" transform="matrix(1,0,0,1,7.833358261861463,-441.8571318282561) translate(0 17.1)"/><use xlink:href="#v" transform="matrix(1,0,0,1,7.833358261861463,-441.8571318282561) translate(102.85000000000001 17.1)"/><use xlink:href="#n" transform="matrix(1,0,0,1,7.833358261861463,-441.8571318282561) translate(136.85000000000002 17.1)"/><use xlink:href="#d" transform="matrix(1,0,0,1,209.83335826186146,-441.8571318282561) translate(0 17.1)"/><use xlink:href="#z" transform="matrix(1,0,0,1,7.833358261861463,-409.8571318282561) translate(0 17.1)"/><use xlink:href="#f" transform="matrix(1,0,0,1,209.83335826186146,-409.8571318282561) translate(0 17.1)"/><use xlink:href="#A" transform="matrix(1,0,0,1,7.833358261861463,-377.8571318282561) translate(0 17.1)"/><use xlink:href="#f" transform="matrix(1,0,0,1,209.83335826186146,-377.8571318282561) translate(0 17.1)"/><path d="M572 71.64h406v168H572z" fill="#fff"/><path d="M572 71.64h406v168H572zM572 111.64h406M775 111.64v128" stroke="#000" stroke-width="2" fill="none"/><use xlink:href="#B" transform="matrix(1,0,0,1,582.0000249285282,71.64286817174388) translate(150.925 23.6)"/><use xlink:href="#C" transform="matrix(1,0,0,1,577.0000249285282,114.14286817174388) translate(0 17.1)"/><use xlink:href="#c" transform="matrix(1,0,0,1,577.0000249285282,114.14286817174388) translate(97.9 17.1)"/><use xlink:href="#d" transform="matrix(1,0,0,1,780.0000249285282,114.14286817174388) translate(0 17.1)"/><use xlink:href="#D" transform="matrix(1,0,0,1,577.0000249285282,146.14286817174388) translate(0 17.1)"/><use xlink:href="#k" transform="matrix(1,0,0,1,780.0000249285282,146.14286817174388) translate(0 17.1)"/><use xlink:href="#i" transform="matrix(1,0,0,1,577.0000249285282,178.14286817174388) translate(0 17.1)"/><use xlink:href="#n" transform="matrix(1,0,0,1,577.0000249285282,178.14286817174388) translate(70.85000000000001 17.1)"/><use xlink:href="#d" transform="matrix(1,0,0,1,780.0000249285282,178.14286817174388) translate(0 17.1)"/><use xlink:href="#E" transform="matrix(1,0,0,1,577.0000249285282,210.14286817174388) translate(0 17.1)"/><use xlink:href="#l" transform="matrix(1,0,0,1,780.0000249285282,210.14286817174388) translate(0 17.1)"/><path d="M1236.5 81.64h490v104h-490z" fill="#fff"/><path d="M1236.5 81.64h490v104h-490zM1236.5 121.64h490M1481.5 121.64v64" stroke="#000" stroke-width="2" fill="none"/><use xlink:href="#F" transform="matrix(1,0,0,1,1246.500024928528,81.64286817174388) translate(153.2 23.6)"/><use xlink:href="#i" transform="matrix(1,0,0,1,1241.500024928528,124.14286817174388) translate(0 17.1)"/><use xlink:href="#v" transform="matrix(1,0,0,1,1241.500024928528,124.14286817174388) translate(70.85000000000001 17.1)"/><use xlink:href="#n" transform="matrix(1,0,0,1,1241.500024928528,124.14286817174388) translate(104.85000000000001 17.1)"/><use xlink:href="#d" transform="matrix(1,0,0,1,1486.500024928528,124.14286817174388) translate(0 17.1)"/><use xlink:href="#G" transform="matrix(1,0,0,1,1241.500024928528,156.14286817174388) translate(0 17.1)"/><use xlink:href="#v" transform="matrix(1,0,0,1,1241.500024928528,156.14286817174388) translate(88.9 17.1)"/><use xlink:href="#n" transform="matrix(1,0,0,1,1241.500024928528,156.14286817174388) translate(122.9 17.1)"/><use xlink:href="#d" transform="matrix(1,0,0,1,1486.500024928528,156.14286817174388) translate(0 17.1)"/><path d="M1278.5 653.64h406v168h-406z" fill="#fff"/><path d="M1278.5 653.64h406v168h-406zM1278.5 693.64h406M1481.5 693.64v128" stroke="#000" stroke-width="2" fill="none"/><use xlink:href="#H" transform="matrix(1,0,0,1,1288.500024928528,653.6428681717439) translate(148.625 23.6)"/><use xlink:href="#G" transform="matrix(1,0,0,1,1283.500024928528,696.1428681717439) translate(0 17.1)"/><use xlink:href="#c" transform="matrix(1,0,0,1,1283.500024928528,696.1428681717439) translate(88.9 17.1)"/><use xlink:href="#d" transform="matrix(1,0,0,1,1486.500024928528,696.1428681717439) translate(0 17.1)"/><use xlink:href="#I" transform="matrix(1,0,0,1,1283.500024928528,728.1428681717439) translate(0 17.1)"/><use xlink:href="#f" transform="matrix(1,0,0,1,1486.500024928528,728.1428681717439) translate(0 17.1)"/><use xlink:href="#J" transform="matrix(1,0,0,1,1283.500024928528,760.1428681717439) translate(0 17.1)"/><use xlink:href="#k" transform="matrix(1,0,0,1,1486.500024928528,760.1428681717439) translate(0 17.1)"/><use xlink:href="#K" transform="matrix(1,0,0,1,1283.500024928528,792.1428681717439) translate(0 17.1)"/><use xlink:href="#f" transform="matrix(1,0,0,1,1486.500024928528,792.1428681717439) translate(0 17.1)"/><path d="M1208.5 1109.64h546v104h-546z" fill="#fff"/><path d="M1208.5 1109.64h546v104h-546zM1208.5 1149.64h546M1481.5 1149.64v64" stroke="#000" stroke-width="2" fill="none"/><use xlink:href="#L" transform="matrix(1,0,0,1,1218.500024928528,1109.6428681717439) translate(169.175 23.6)"/><use xlink:href="#G" transform="matrix(1,0,0,1,1213.500024928528,1152.1428681717439) translate(0 17.1)"/><use xlink:href="#v" transform="matrix(1,0,0,1,1213.500024928528,1152.1428681717439) translate(88.9 17.1)"/><use xlink:href="#n" transform="matrix(1,0,0,1,1213.500024928528,1152.1428681717439) translate(122.9 17.1)"/><use xlink:href="#d" transform="matrix(1,0,0,1,1486.500024928528,1152.1428681717439) translate(0 17.1)"/><use xlink:href="#M" transform="matrix(1,0,0,1,1213.500024928528,1184.1428681717439) translate(0 17.1)"/><use xlink:href="#v" transform="matrix(1,0,0,1,1213.500024928528,1184.1428681717439) translate(91.80000000000001 17.1)"/><use xlink:href="#n" transform="matrix(1,0,0,1,1213.500024928528,1184.1428681717439) translate(125.80000000000001 17.1)"/><use xlink:href="#d" transform="matrix(1,0,0,1,1486.500024928528,1184.1428681717439) translate(0 17.1)"/><path d="M1279.5 1571.64h404v104h-404z" fill="#fff"/><path d="M1279.5 1571.64h404v104h-404zM1279.5 1611.64h404M1481.5 1611.64v64" stroke="#000" stroke-width="2" fill="none"/><use xlink:href="#N" transform="matrix(1,0,0,1,1289.500024928528,1571.6428681717439) translate(147.55 23.6)"/><use xlink:href="#M" transform="matrix(1,0,0,1,1284.500024928528,1614.1428681717439) translate(0 17.1)"/><use xlink:href="#c" transform="matrix(1,0,0,1,1284.500024928528,1614.1428681717439) translate(91.80000000000001 17.1)"/><use xlink:href="#d" transform="matrix(1,0,0,1,1486.500024928528,1614.1428681717439) translate(0 17.1)"/><use xlink:href="#O" transform="matrix(1,0,0,1,1284.500024928528,1646.1428681717439) translate(0 17.1)"/><use xlink:href="#f" transform="matrix(1,0,0,1,1486.500024928528,1646.1428681717439) translate(0 17.1)"/><path d="M-571.5 653.64h442v104h-442z" fill="#fff"/><path d="M-571.5 653.64h442v104h-442zM-571.5 693.64h442M-350.5 693.64v64" stroke="#000" stroke-width="2" fill="none"/><use xlink:href="#P" transform="matrix(1,0,0,1,-561.499975071472,653.6428681717439) translate(138.975 23.6)"/><use xlink:href="#C" transform="matrix(1,0,0,1,-566.499975071472,696.1428681717439) translate(0 17.1)"/><use xlink:href="#v" transform="matrix(1,0,0,1,-566.499975071472,696.1428681717439) translate(97.9 17.1)"/><use xlink:href="#n" transform="matrix(1,0,0,1,-566.499975071472,696.1428681717439) translate(131.9 17.1)"/><use xlink:href="#d" transform="matrix(1,0,0,1,-345.499975071472,696.1428681717439) translate(0 17.1)"/><use xlink:href="#Q" transform="matrix(1,0,0,1,-566.499975071472,728.1428681717439) translate(0 17.1)"/><use xlink:href="#f" transform="matrix(1,0,0,1,-345.499975071472,728.1428681717439) translate(0 17.1)"/><path d="M674.5 653.64h404v104h-404z" fill="#fff"/><path d="M674.5 653.64h404v104h-404zM674.5 693.64h404M876.5 693.64v64" stroke="#000" stroke-width="2" fill="none"/><use xlink:href="#R" transform="matrix(1,0,0,1,684.5000249285282,653.6428681717439) translate(160.575 23.6)"/><use xlink:href="#C" transform="matrix(1,0,0,1,679.5000249285282,696.1428681717439) translate(0 17.1)"/><use xlink:href="#v" transform="matrix(1,0,0,1,679.5000249285282,696.1428681717439) translate(97.9 17.1)"/><use xlink:href="#n" transform="matrix(1,0,0,1,679.5000249285282,696.1428681717439) translate(131.9 17.1)"/><use xlink:href="#d" transform="matrix(1,0,0,1,881.5000249285282,696.1428681717439) translate(0 17.1)"/><use xlink:href="#S" transform="matrix(1,0,0,1,679.5000249285282,728.1428681717439) translate(0 17.1)"/><use xlink:href="#f" transform="matrix(1,0,0,1,881.5000249285282,728.1428681717439) translate(0 17.1)"/><path d="M70.5 653.64h404v104h-404z" fill="#fff"/><path d="M70.5 653.64h404v104h-404zM70.5 693.64h404M272.5 693.64v64" stroke="#000" stroke-width="2" fill="none"/><use xlink:href="#T" transform="matrix(1,0,0,1,80.5000249285282,653.6428681717439) translate(158.6 23.6)"/><use xlink:href="#C" transform="matrix(1,0,0,1,75.5000249285282,696.1428681717439) translate(0 17.1)"/><use xlink:href="#v" transform="matrix(1,0,0,1,75.5000249285282,696.1428681717439) translate(97.9 17.1)"/><use xlink:href="#n" transform="matrix(1,0,0,1,75.5000249285282,696.1428681717439) translate(131.9 17.1)"/><use xlink:href="#d" transform="matrix(1,0,0,1,277.5000249285282,696.1428681717439) translate(0 17.1)"/><use xlink:href="#U" transform="matrix(1,0,0,1,75.5000249285282,728.1428681717439) translate(0 17.1)"/><use xlink:href="#f" transform="matrix(1,0,0,1,277.5000249285282,728.1428681717439) translate(0 17.1)"/><path d="M1778.63-583.88h-358.78l-.88.07-.84.2-.8.32-.74.45-.67.57-.57.66-.45.74-.32.8-.2.84-.07.88v77.65h-.94v-77.68l.08-1 .23-.98.4-.94.52-.86.65-.78.78-.66.86-.53.93-.4 1-.22 1-.08h358.8zm158.88-6.46l-.06 1-.24.98-.4.94-.52.87-.66.77-.77.66-.87.53-.94.4-1 .24-.98.08h-100.48v-.95h100.44l.88-.07.85-.2.8-.34.74-.45.64-.55.57-.66.46-.75.33-.8.2-.84.06-.88v-355.98h.95z" stroke="#000" stroke-width=".05"/><path d="M1937.5-956.83h9.54v.95h-9.53v9.05h9.54v.95h-20v-.95h9.52v-9.05h-9.52v-.95h9.52v-9.53h.95z" stroke="#000" stroke-width=".05"/><path d="M1417-500.4l2.74 1.4 2.16 2.18 1.42 2.75.5 3.16-.5 3.15-1.42 2.74-2.16 2.16-2.75 1.42-3.17.5-3.16-.5-2.74-1.42-2.17-2.17-1.42-2.75-.5-3.16.5-3.18 1.42-2.74 2.17-2.17 2.74-1.4 3.16-.5zm-13.17 39.5l10-20m10 20l-10-20m0 20v-20" fill="#fff"/><path d="M1417.14-500.86l2.88 1.5 2.27 2.26 1.48 2.87.53 3.32-.52 3.3-1.5 2.88-2.26 2.27-2.88 1.48-2.6.42 9.72 19.42-.85.43-9.1-18.2v18h-.94v-18l-9.1 18.2-.85-.43 9.72-19.42-2.6-.42-2.88-1.48-2.27-2.27-1.48-2.88-.55-3.3.54-3.33 1.47-2.87 2.27-2.27 2.88-1.5 3.3-.52zm-6.32.9l-2.6 1.36-2.07 2.06-1.35 2.62-.5 3 .5 3.02 1.35 2.6 2.06 2.07 2.62 1.35 3 .5 3.02-.5 2.62-1.35 2.06-2.06 1.35-2.6.48-3-.48-3.02-1.35-2.62-2.06-2.06-2.62-1.35-3-.48z" stroke="#000" stroke-width=".05"/><use xlink:href="#V" transform="matrix(1,0,0,1,1778.627966104999,-595.1571318282561) translate(0 14.4)"/><path d="M2019.3-525.36h-.94v-190.2h.95zm0-211.8h-.94v-210.2h.95z" stroke="#000" stroke-width=".05"/><path d="M2019.3-957.83h9.53v.95h-9.52v9.05h9.53v.95h-20v-.95h9.53v-9.05h-9.53v-.95h9.53v-9.53h.95z" stroke="#000" stroke-width=".05"/><path d="M2022-525.07l2.74 1.42 2.16 2.16 1.42 2.76.5 3.16-.5 3.16-1.42 2.74-2.16 2.17-2.75 1.4-3.17.52-3.16-.5-2.74-1.43-2.17-2.18-1.42-2.74-.5-3.16.5-3.16 1.42-2.75 2.17-2.15 2.74-1.42 3.16-.5zm-13.17 39.5l10-20m10 20l-10-20m0 20v-20" fill="#fff"/><path d="M2022.14-525.53l2.88 1.5 2.27 2.26 1.48 2.88.53 3.32-.52 3.3-1.5 2.9-2.26 2.26-2.88 1.5-2.6.4 9.72 19.43-.85.43-9.1-18.2v18h-.94v-18l-9.1 18.2-.85-.42 9.72-19.4-2.6-.43-2.88-1.5-2.27-2.26-1.48-2.87-.55-3.3.54-3.32 1.47-2.87 2.27-2.27 2.88-1.5 3.3-.52zm-6.32.92l-2.6 1.34-2.07 2.06-1.35 2.6-.5 3.02.5 3 1.35 2.62 2.06 2.06 2.62 1.35 3 .5 3.02-.5 2.62-1.35 2.06-2.06 1.35-2.6.48-3.02-.48-3-1.35-2.62-2.06-2.06-2.62-1.35-3-.5z" stroke="#000" stroke-width=".05"/><use xlink:href="#W" transform="matrix(1,0,0,1,2004.3333582618616,-737.1571318282561) translate(0 14.4)"/><path d="M1352.3-683.88H814.86l-.88.07-.84.2-.8.32-.74.45-.67.57-.56.66-.46.74-.32.8-.2.84-.07.88v172.98h-.94v-173.02l.08-1 .23-.98.4-.94.52-.86.65-.78.78-.66.86-.53.93-.4 1-.22 1-.08h537.48zm501.6-6.46l-.08 1-.23.98-.4.94-.53.87-.66.77-.77.66-.86.53-.94.4-1 .24-.98.08h-454.5v-.95h454.46l.9-.07.83-.2.8-.34.74-.45.66-.55.57-.66.45-.75.33-.8.2-.84.07-.88v-255.98h.95z" stroke="#000" stroke-width=".05"/><path d="M1853.9-956.83h9.53v.95h-9.53v9.05h9.53v.95h-20v-.95h9.52v-9.05h-9.52v-.95h9.52v-9.53h.95zM818.83-504.88h-9.52v9.05h9.53v.95h-9.52v9.52h-.94v-9.52h-9.53v-.95h9.53v-9.05h-9.53v-.95h20z" stroke="#000" stroke-width=".05"/><use xlink:href="#X" transform="matrix(1,0,0,1,1352.3054170853911,-695.1571318282561) translate(0 14.4)"/><use xlink:href="#Y" transform="matrix(1,0,0,1,1352.3054170853911,-695.1571318282561) translate(24.3 14.4)"/><path d="M909.9-783.88H210.86l-.88.07-.84.2-.8.32-.74.45-.67.57-.56.66-.46.74-.32.8-.2.84-.07.88v272.98h-.94v-273.02l.08-1 .23-.98.4-.94.52-.86.65-.78.78-.66.86-.53.93-.4 1-.22.98-.08h699.1zm862.2-6.46l-.07 1-.24.98-.4.94-.53.87-.66.77-.76.66-.87.53-.93.4-1 .24-1 .08H950.57v-.95h815.06l.88-.07.84-.2.8-.34.74-.45.66-.55.56-.66.46-.75.33-.8.2-.84.06-.88v-156.98h.95z" stroke="#000" stroke-width=".05"/><path d="M1772.1-957.83h9.53v.95h-9.52v9.05h9.53v.95h-20v-.95h9.53v-9.05h-9.53v-.95h9.53v-9.53h.95zM214.83-504.88h-9.52v9.05h9.53v.95h-9.52v9.52h-.94v-9.52h-9.53v-.95h9.53v-9.05h-9.53v-.95h20z" stroke="#000" stroke-width=".05"/><use xlink:href="#X" transform="matrix(1,0,0,1,909.9083582618616,-795.1571318282561) translate(0 14.4)"/><use xlink:href="#Y" transform="matrix(1,0,0,1,909.9083582618616,-795.1571318282561) translate(24.3 14.4)"/><path d="M1111.4-27.88H781.03l-.88.07-.85.2-.8.32-.75.45-.66.57-.57.66-.45.74-.33.8-.2.84-.07.88v52.98h-.96v-53.02l.08-1 .24-.98.4-.94.52-.86.66-.78.77-.66.86-.53.94-.4 1-.22.98-.08h330.43zm234.56-6.46l-.07 1-.25.98-.4.94-.52.87-.66.77-.77.66-.87.53-.94.4-1 .24-1 .08h-199.1v-.95h199.07l.88-.07.85-.2.8-.34.74-.45.66-.55.56-.66.45-.75.34-.8.2-.84.08-.88v-204.3h.94z" stroke="#000" stroke-width=".05"/><path d="M1345.96-249.16h9.53v.94h-9.54v9.06h9.53v.94h-20v-.94h9.52v-9.06h-9.53v-.94h9.52v-9.53h.94z" stroke="#000" stroke-width=".05"/><path d="M778.16 30.93l2.75 1.42 2.17 2.16 1.42 2.76.5 3.16-.5 3.16-1.43 2.75-2.16 2.16-2.74 1.4-3.16.52-3.16-.5-2.75-1.43-2.17-2.17-1.42-2.75-.5-3.16.5-3.16 1.43-2.75 2.16-2.15 2.74-1.42 3.16-.5zM765 70.43l10-20m10 20l-10-20m0 20v-20" fill="#fff"/><path d="M778.3 30.47l2.9 1.5 2.26 2.26 1.5 2.88.52 3.32-.53 3.3-1.5 2.9-2.26 2.26-2.9 1.5-2.6.4 9.72 19.43-.84.43-9.1-18.2v18h-.96v-18l-9.1 18.2-.84-.42 9.7-19.42-2.6-.4-2.87-1.5-2.26-2.27-1.5-2.87-.52-3.3.53-3.32 1.5-2.87 2.26-2.27 2.9-1.5 3.3-.52zm-6.3.92l-2.62 1.34-2.06 2.06-1.35 2.6-.5 3.02.5 3 1.35 2.62 2.06 2.06 2.6 1.35 3.02.5 3-.5 2.62-1.35 2.06-2.06 1.35-2.6.5-3.02-.5-3-1.35-2.62-2.06-2.06-2.6-1.35-3.02-.5z" stroke="#000" stroke-width=".05"/><use xlink:href="#W" transform="matrix(1,0,0,1,1111.4116915951947,-39.15713182825611) translate(0 14.4)"/><path d="M1481.97 40.64h-.94V-78.22h.94zm.68-140.46h-.95V-238.7h.95z" stroke="#000" stroke-width=".05"/><path d="M1482.65-249.16h9.53v.94h-9.53v9.06h9.53v.94h-20v-.94h9.52v-9.06h-9.52v-.94h9.52v-9.53h.95z" stroke="#000" stroke-width=".05"/><path d="M1484.66 40.93l2.75 1.42 2.17 2.16 1.42 2.76.5 3.16-.5 3.16-1.43 2.75-2.16 2.16-2.74 1.4-3.16.52-3.16-.5-2.75-1.43-2.17-2.17-1.42-2.75-.5-3.16.5-3.16 1.43-2.75 2.16-2.15 2.74-1.42 3.16-.5zm-13.16 39.5l10-20m10 20l-10-20m0 20v-20" fill="#fff"/><path d="M1484.8 40.47l2.9 1.5 2.26 2.26 1.5 2.88.52 3.32-.53 3.3-1.5 2.9-2.26 2.26-2.9 1.5-2.6.4 9.72 19.43-.85.43-9.1-18.2v18h-.94v-18l-9.1 18.2-.86-.42 9.72-19.42-2.6-.4-2.9-1.5-2.26-2.27-1.5-2.87-.52-3.3.53-3.32 1.5-2.87 2.26-2.27 2.9-1.5 3.3-.52zm-6.3.92l-2.62 1.34-2.06 2.06-1.35 2.6-.5 3.02.5 3 1.35 2.62 2.06 2.06 2.6 1.35 3.02.5 3-.5 2.62-1.35 2.06-2.06 1.35-2.6.5-3.02-.5-3-1.35-2.62-2.06-2.06-2.6-1.35-3.02-.5z" stroke="#000" stroke-width=".05"/><g><use xlink:href="#Z" transform="matrix(1,0,0,1,1448.3633582618615,-99.8237984949228) translate(0 14.4)"/></g><path d="M1481.97 632.64h-.94v-202.2h.94zm0-223.8h-.94v-182.2h.94z" stroke="#000" stroke-width=".05"/><path d="M1484.66 207.38l2.75 1.42 2.17 2.16 1.42 2.75.5 3.17-.5 3.16-1.43 2.74-2.16 2.17-2.74 1.42-3.16.5-3.16-.5-2.75-1.42-2.17-2.17-1.42-2.74-.5-3.16.5-3.16 1.43-2.74 2.16-2.16 2.74-1.42 3.16-.5zm6.84-20.5l-10 20m-10-20l10 20m0-20v20" fill="#fff"/><path d="M1491.92 187.08l-9.7 19.42 2.6.42 2.87 1.5 2.26 2.26 1.5 2.88.52 3.3-.53 3.32-1.5 2.88-2.26 2.26-2.9 1.5-3.3.53-3.3-.54-2.9-1.48-2.26-2.26-1.5-2.88-.52-3.3.53-3.32 1.5-2.88 2.26-2.27 2.9-1.48 2.6-.42-9.72-19.42.85-.43 9.1 18.2v-17.98h.94v17.98l9.1-18.2zm-13.43 20.75l-2.62 1.35-2.06 2.06-1.35 2.62-.5 3 .5 3.02 1.35 2.6 2.06 2.07 2.6 1.35 3.02.48 3-.48 2.62-1.35 2.06-2.06 1.35-2.62.5-3-.5-3.02-1.35-2.62-2.06-2.06-2.6-1.35-3.02-.48zM1491.5 633.12h-9.53v9.05h9.53v.95h-9.53v9.52h-.94v-9.52h-9.53v-.95h9.53v-9.05h-9.53v-.95h20z" stroke="#000" stroke-width=".05"/><g><use xlink:href="#aa" transform="matrix(1,0,0,1,1439.050024928528,408.8428681717439) translate(0 14.4)"/></g><path d="M1481.97 1068.64h-.94v-92.2h.94zm0-113.8h-.94v-112.2h.94z" stroke="#000" stroke-width=".05"/><path d="M1481.97 832.17h9.53v.95h-9.53v9.05h9.53v.95h-20v-.95h9.53v-9.05h-9.53v-.95h9.53v-9.53h.94z" stroke="#000" stroke-width=".05"/><path d="M1484.66 1068.93l2.75 1.42 2.17 2.16 1.42 2.76.5 3.16-.5 3.16-1.43 2.75-2.16 2.16-2.74 1.4-3.16.52-3.16-.5-2.75-1.43-2.17-2.17-1.42-2.75-.5-3.16.5-3.16 1.43-2.75 2.16-2.15 2.74-1.42 3.16-.5zm-13.16 39.5l10-20m10 20l-10-20m0 20v-20" fill="#fff"/><path d="M1484.8 1068.47l2.9 1.5 2.26 2.26 1.5 2.88.52 3.32-.53 3.3-1.5 2.9-2.26 2.26-2.9 1.5-2.6.4 9.72 19.43-.85.43-9.1-18.2v18h-.94v-18l-9.1 18.2-.86-.42 9.72-19.4-2.6-.43-2.9-1.5-2.26-2.26-1.5-2.87-.52-3.3.53-3.32 1.5-2.87 2.26-2.27 2.9-1.5 3.3-.52zm-6.3.92l-2.62 1.34-2.06 2.06-1.35 2.6-.5 3.02.5 3 1.35 2.62 2.06 2.06 2.6 1.35 3.02.5 3-.5 2.62-1.35 2.06-2.06 1.35-2.6.5-3.02-.5-3-1.35-2.62-2.06-2.06-2.6-1.35-3.02-.5z" stroke="#000" stroke-width=".05"/><g><use xlink:href="#W" transform="matrix(1,0,0,1,1467.000024928528,954.8428681717439) translate(0 14.4)"/></g><path d="M1481.97 1550.64h-.94v-147.2h.94zm0-168.8h-.94v-127.2h.94z" stroke="#000" stroke-width=".05"/><path d="M1484.66 1235.38l2.75 1.42 2.17 2.16 1.42 2.75.5 3.17-.5 3.16-1.43 2.74-2.16 2.17-2.74 1.42-3.16.5-3.16-.5-2.75-1.42-2.17-2.17-1.42-2.74-.5-3.16.5-3.16 1.43-2.74 2.16-2.16 2.74-1.42 3.16-.5zm6.84-20.5l-10 20m-10-20l10 20m0-20v20" fill="#fff"/><path d="M1491.92 1215.08l-9.7 19.42 2.6.42 2.87 1.5 2.26 2.26 1.5 2.88.52 3.3-.53 3.32-1.5 2.88-2.26 2.27-2.9 1.48-3.3.55-3.3-.54-2.9-1.47-2.26-2.27-1.5-2.88-.52-3.3.53-3.33 1.5-2.87 2.26-2.27 2.9-1.48 2.6-.42-9.72-19.42.85-.43 9.1 18.2v-17.98h.94v17.98l9.1-18.2zm-13.43 20.75l-2.62 1.35-2.06 2.06-1.35 2.62-.5 3 .5 3.02 1.35 2.6 2.06 2.07 2.6 1.35 3.02.48 3-.48 2.62-1.35 2.06-2.06 1.35-2.62.5-3-.5-3.02-1.35-2.62-2.06-2.06-2.6-1.35-3.02-.48zM1491.5 1551.12h-9.53v9.05h9.53v.95h-9.53v9.52h-.94v-9.52h-9.53v-.95h9.53v-9.05h-9.53v-.95h20z" stroke="#000" stroke-width=".05"/><g><use xlink:href="#aa" transform="matrix(1,0,0,1,1439.050024928528,1381.842868171744) translate(0 14.4)"/></g><path d="M147.57 454.12h-492.05l-.88.07-.85.2-.8.32-.75.45-.66.57-.57.66-.45.74-.33.8-.2.84-.07.88v172.98h-.96V459.62l.08-1 .24-.98.4-.94.52-.86.66-.78.77-.66.86-.53.94-.4 1-.22.98-.08h492.1zm525.2-6.46l-.08 1-.25.98-.4.94-.52.87-.66.77-.77.66-.87.53-.94.4-1 .24-1 .08H188.23v-.95h478.05l.9-.07.83-.2.8-.34.74-.45.66-.55.56-.66.45-.75.34-.8.2-.84.08-.88V260.64h.95z" stroke="#000" stroke-width=".05"/><path d="M672.77 250.17h9.52v.95h-9.53v9.05h9.52v.95h-20v-.95h9.52v-9.05h-9.53v-.95h9.52v-9.53h.95zM-340.5 633.12h-9.52v9.05h9.52v.95h-9.52v9.52h-.96v-9.52h-9.52v-.95h9.52v-9.05h-9.52v-.95h20z" stroke="#000" stroke-width=".05"/><g><use xlink:href="#X" transform="matrix(1,0,0,1,147.57085826186136,442.8428681717439) translate(0 14.4)"/><use xlink:href="#Y" transform="matrix(1,0,0,1,147.57085826186136,442.8428681717439) translate(24.3 14.4)"/></g><path d="M876.98 632.64H876v-175.2h.96zm1.2-196.8h-.95v-175.2h.95z" stroke="#000" stroke-width=".05"/><path d="M878.18 250.17h9.53v.95h-9.52v9.05h9.53v.95h-20v-.95h9.53v-9.05h-9.52v-.95h9.53v-9.53h.95zM886.5 633.12h-9.52v9.05h9.52v.95h-9.52v9.52H876v-9.52h-9.52v-.95h9.52v-9.05h-9.52v-.95h20z" stroke="#000" stroke-width=".05"/><g><use xlink:href="#X" transform="matrix(1,0,0,1,856.7791915951948,435.8428681717439) translate(0 14.4)"/><use xlink:href="#Y" transform="matrix(1,0,0,1,856.7791915951948,435.8428681717439) translate(24.3 14.4)"/></g><path d="M610.42 554.12h-331.9l-.88.07-.85.2-.8.32-.75.45-.66.57-.57.66-.45.74-.33.8-.2.84-.07.88v72.98h-.96v-73.02l.08-1 .24-.98.4-.94.52-.86.66-.78.77-.66.86-.53.94-.4 1-.22.98-.08h331.94zm165.06-6.46l-.08 1-.24.98-.4.94-.52.87-.66.77-.77.66-.86.53-.94.4-1 .24-.98.08H651.08v-.95h117.9l.88-.07.85-.2.8-.34.75-.45.66-.55.57-.66.45-.75.33-.8.2-.84.07-.88V260.64h.96z" stroke="#000" stroke-width=".05"/><path d="M775.48 250.17H785v.95h-9.52v9.05H785v.95h-20v-.95h9.52v-9.05H765v-.95h9.52v-9.53h.96zM282.5 633.12h-9.52v9.05h9.52v.95h-9.52v9.52h-.96v-9.52h-9.52v-.95h9.52v-9.05h-9.52v-.95h20z" stroke="#000" stroke-width=".05"/><g><use xlink:href="#X" transform="matrix(1,0,0,1,610.4250249285282,542.8428681717439) translate(0 14.4)"/><use xlink:href="#Y" transform="matrix(1,0,0,1,610.4250249285282,542.8428681717439) translate(24.3 14.4)"/></g><defs><path d="M212-179c-10-28-35-45-73-45-59 0-87 40-87 99 0 60 29 101 89 101 43 0 62-24 78-52l27 14C228-24 195 4 139 4 59 4 22-46 18-125c-6-104 99-153 187-111 19 9 31 26 39 46" id="ab"/><path d="M232-93c-1 65-40 97-104 97C67 4 28-28 28-90v-158h33c8 89-33 224 67 224 102 0 64-133 71-224h33v155" id="ac"/><path d="M185-189c-5-48-123-54-124 2 14 75 158 14 163 119 3 78-121 87-175 55-17-10-28-26-33-46l33-7c5 56 141 63 141-1 0-78-155-14-162-118-5-82 145-84 179-34 5 7 8 16 11 25" id="ad"/><path d="M127-220V0H93v-220H8v-28h204v28h-85" id="ae"/><path d="M140-251c81 0 123 46 123 126C263-46 219 4 140 4 59 4 17-45 17-125s42-126 123-126zm0 227c63 0 89-41 89-101s-29-99-89-99c-61 0-89 39-89 99S79-25 140-24" id="af"/><path d="M240 0l2-218c-23 76-54 145-80 218h-23L58-218 59 0H30v-248h44l77 211c21-75 51-140 76-211h43V0h-30" id="ag"/><path d="M30 0v-248h187v28H63v79h144v27H63v87h162V0H30" id="ah"/><path d="M233-177c-1 41-23 64-60 70L243 0h-38l-65-103H63V0H30v-248c88 3 205-21 203 71zM63-129c60-2 137 13 137-47 0-61-80-42-137-45v92" id="ai"/><g id="a"><use transform="matrix(0.05,0,0,0.05,0,0)" xlink:href="#ab"/><use transform="matrix(0.05,0,0,0.05,12.950000000000001,0)" xlink:href="#ac"/><use transform="matrix(0.05,0,0,0.05,25.900000000000002,0)" xlink:href="#ad"/><use transform="matrix(0.05,0,0,0.05,37.900000000000006,0)" xlink:href="#ae"/><use transform="matrix(0.05,0,0,0.05,48.50000000000001,0)" xlink:href="#af"/><use transform="matrix(0.05,0,0,0.05,62.5,0)" xlink:href="#ag"/><use transform="matrix(0.05,0,0,0.05,77.45,0)" xlink:href="#ah"/><use transform="matrix(0.05,0,0,0.05,89.45,0)" xlink:href="#ai"/></g><path d="M96-169c-40 0-48 33-48 73s9 75 48 75c24 0 41-14 43-38l32 2c-6 37-31 61-74 61-59 0-76-41-82-99-10-93 101-131 147-64 4 7 5 14 7 22l-32 3c-4-21-16-35-41-35" id="aj"/><path d="M84 4C-5 8 30-112 23-190h32v120c0 31 7 50 39 49 72-2 45-101 50-169h31l1 190h-30c-1-10 1-25-2-33-11 22-28 36-60 37" id="ak"/><path d="M135-143c-3-34-86-38-87 0 15 53 115 12 119 90S17 21 10-45l28-5c4 36 97 45 98 0-10-56-113-15-118-90-4-57 82-63 122-42 12 7 21 19 24 35" id="al"/><path d="M59-47c-2 24 18 29 38 22v24C64 9 27 4 27-40v-127H5v-23h24l9-43h21v43h35v23H59v120" id="am"/><path d="M100-194c62-1 85 37 85 99 1 63-27 99-86 99S16-35 15-95c0-66 28-99 85-99zM99-20c44 1 53-31 53-75 0-43-8-75-51-75s-53 32-53 75 10 74 51 75" id="an"/><path d="M210-169c-67 3-38 105-44 169h-31v-121c0-29-5-50-35-48C34-165 62-65 56 0H25l-1-190h30c1 10-1 24 2 32 10-44 99-50 107 0 11-21 27-35 58-36 85-2 47 119 55 194h-31v-121c0-29-5-49-35-48" id="ao"/><path d="M100-194c63 0 86 42 84 106H49c0 40 14 67 53 68 26 1 43-12 49-29l28 8c-11 28-37 45-77 45C44 4 14-33 15-96c1-61 26-98 85-98zm52 81c6-60-76-77-97-28-3 7-6 17-6 28h103" id="ap"/><path d="M114-163C36-179 61-72 57 0H25l-1-190h30c1 12-1 29 2 39 6-27 23-49 58-41v29" id="aq"/><path d="M-5 72V49h209v23H-5" id="ar"/><path d="M24-231v-30h32v30H24zM24 0v-190h32V0H24" id="as"/><path d="M85-194c31 0 48 13 60 33l-1-100h32l1 261h-30c-2-10 0-23-3-31C134-8 116 4 85 4 32 4 16-35 15-94c0-66 23-100 70-100zm9 24c-40 0-46 34-46 75 0 40 6 74 45 74 42 0 51-32 51-76 0-42-9-74-50-73" id="at"/><g id="b"><use transform="matrix(0.05,0,0,0.05,0,0)" xlink:href="#aj"/><use transform="matrix(0.05,0,0,0.05,9,0)" xlink:href="#ak"/><use transform="matrix(0.05,0,0,0.05,19,0)" xlink:href="#al"/><use transform="matrix(0.05,0,0,0.05,28,0)" xlink:href="#am"/><use transform="matrix(0.05,0,0,0.05,33,0)" xlink:href="#an"/><use transform="matrix(0.05,0,0,0.05,43,0)" xlink:href="#ao"/><use transform="matrix(0.05,0,0,0.05,57.95,0)" xlink:href="#ap"/><use transform="matrix(0.05,0,0,0.05,67.95,0)" xlink:href="#aq"/><use transform="matrix(0.05,0,0,0.05,73.9,0)" xlink:href="#ar"/><use transform="matrix(0.05,0,0,0.05,83.9,0)" xlink:href="#as"/><use transform="matrix(0.05,0,0,0.05,87.85000000000001,0)" xlink:href="#at"/></g><path d="M30-248c87 1 191-15 191 75 0 78-77 80-158 76V0H30v-248zm33 125c57 0 124 11 124-50 0-59-68-47-124-48v98" id="au"/><path d="M194 0L95-120 63-95V0H30v-248h33v124l119-124h40L117-140 236 0h-42" id="av"/><g id="c"><use transform="matrix(0.05,0,0,0.05,0,0)" xlink:href="#au"/><use transform="matrix(0.05,0,0,0.05,12,0)" xlink:href="#av"/></g><path d="M117-194c89-4 53 116 60 194h-32v-121c0-31-8-49-39-48C34-167 62-67 57 0H25l-1-190h30c1 10-1 24 2 32 11-22 29-35 61-36" id="aw"/><g id="d"><use transform="matrix(0.05,0,0,0.05,0,0)" xlink:href="#as"/><use transform="matrix(0.05,0,0,0.05,3.95,0)" xlink:href="#aw"/><use transform="matrix(0.05,0,0,0.05,13.949999999999998,0)" xlink:href="#am"/></g><path d="M141-36C126-15 110 5 73 4 37 3 15-17 15-53c-1-64 63-63 125-63 3-35-9-54-41-54-24 1-41 7-42 31l-33-3c5-37 33-52 76-52 45 0 72 20 72 64v82c-1 20 7 32 28 27v20c-31 9-61-2-59-35zM48-53c0 20 12 33 32 33 41-3 63-29 60-74-43 2-92-5-92 41" id="ax"/><path d="M115-194c53 0 69 39 70 98 0 66-23 100-70 100C84 3 66-7 56-30L54 0H23l1-261h32v101c10-23 28-34 59-34zm-8 174c40 0 45-34 45-75 0-40-5-75-45-74-42 0-51 32-51 76 0 43 10 73 51 73" id="ay"/><g id="e"><use transform="matrix(0.05,0,0,0.05,0,0)" xlink:href="#aj"/><use transform="matrix(0.05,0,0,0.05,9,0)" xlink:href="#an"/><use transform="matrix(0.05,0,0,0.05,19,0)" xlink:href="#aw"/><use transform="matrix(0.05,0,0,0.05,29,0)" xlink:href="#am"/><use transform="matrix(0.05,0,0,0.05,34,0)" xlink:href="#ax"/><use transform="matrix(0.05,0,0,0.05,44,0)" xlink:href="#aj"/><use transform="matrix(0.05,0,0,0.05,53,0)" xlink:href="#am"/><use transform="matrix(0.05,0,0,0.05,58,0)" xlink:href="#ar"/><use transform="matrix(0.05,0,0,0.05,68,0)" xlink:href="#aw"/><use transform="matrix(0.05,0,0,0.05,78,0)" xlink:href="#ak"/><use transform="matrix(0.05,0,0,0.05,88,0)" xlink:href="#ao"/><use transform="matrix(0.05,0,0,0.05,102.95,0)" xlink:href="#ay"/><use transform="matrix(0.05,0,0,0.05,112.95,0)" xlink:href="#ap"/><use transform="matrix(0.05,0,0,0.05,122.95,0)" xlink:href="#aq"/></g><path d="M177-190C167-65 218 103 67 71c-23-6-38-20-44-43l32-5c15 47 100 32 89-28v-30C133-14 115 1 83 1 29 1 15-40 15-95c0-56 16-97 71-98 29-1 48 16 59 35 1-10 0-23 2-32h30zM94-22c36 0 50-32 50-73 0-42-14-75-50-75-39 0-46 34-46 75s6 73 46 73" id="az"/><g id="f"><use transform="matrix(0.05,0,0,0.05,0,0)" xlink:href="#al"/><use transform="matrix(0.05,0,0,0.05,9,0)" xlink:href="#am"/><use transform="matrix(0.05,0,0,0.05,14,0)" xlink:href="#aq"/><use transform="matrix(0.05,0,0,0.05,19.95,0)" xlink:href="#as"/><use transform="matrix(0.05,0,0,0.05,23.9,0)" xlink:href="#aw"/><use transform="matrix(0.05,0,0,0.05,33.9,0)" xlink:href="#az"/></g><path d="M24 0v-261h32V0H24" id="aA"/><g id="g"><use transform="matrix(0.05,0,0,0.05,0,0)" xlink:href="#ap"/><use transform="matrix(0.05,0,0,0.05,10,0)" xlink:href="#ao"/><use transform="matrix(0.05,0,0,0.05,24.950000000000003,0)" xlink:href="#ax"/><use transform="matrix(0.05,0,0,0.05,34.95,0)" xlink:href="#as"/><use transform="matrix(0.05,0,0,0.05,38.900000000000006,0)" xlink:href="#aA"/></g><path d="M30-248c118-7 216 8 213 122C240-48 200 0 122 0H30v-248zM63-27c89 8 146-16 146-99s-60-101-146-95v194" id="aB"/><g id="h"><use transform="matrix(0.05,0,0,0.05,0,0)" xlink:href="#af"/><use transform="matrix(0.05,0,0,0.05,14,0)" xlink:href="#ai"/><use transform="matrix(0.05,0,0,0.05,26.950000000000003,0)" xlink:href="#aB"/><use transform="matrix(0.05,0,0,0.05,39.900000000000006,0)" xlink:href="#ah"/><use transform="matrix(0.05,0,0,0.05,51.900000000000006,0)" xlink:href="#ai"/></g><g id="i"><use transform="matrix(0.05,0,0,0.05,0,0)" xlink:href="#an"/><use transform="matrix(0.05,0,0,0.05,10,0)" xlink:href="#aq"/><use transform="matrix(0.05,0,0,0.05,15.949999999999998,0)" xlink:href="#at"/><use transform="matrix(0.05,0,0,0.05,25.950000000000003,0)" xlink:href="#ap"/><use transform="matrix(0.05,0,0,0.05,35.95,0)" xlink:href="#aq"/><use transform="matrix(0.05,0,0,0.05,41.900000000000006,0)" xlink:href="#ar"/><use transform="matrix(0.05,0,0,0.05,51.900000000000006,0)" xlink:href="#as"/><use transform="matrix(0.05,0,0,0.05,55.85,0)" xlink:href="#at"/></g><g id="j"><use transform="matrix(0.05,0,0,0.05,0,0)" xlink:href="#am"/><use transform="matrix(0.05,0,0,0.05,5,0)" xlink:href="#an"/><use transform="matrix(0.05,0,0,0.05,15,0)" xlink:href="#am"/><use transform="matrix(0.05,0,0,0.05,20,0)" xlink:href="#ax"/><use transform="matrix(0.05,0,0,0.05,30,0)" xlink:href="#aA"/></g><g id="k"><use transform="matrix(0.05,0,0,0.05,0,0)" xlink:href="#at"/><use transform="matrix(0.05,0,0,0.05,10,0)" xlink:href="#ap"/><use transform="matrix(0.05,0,0,0.05,20,0)" xlink:href="#aj"/><use transform="matrix(0.05,0,0,0.05,29,0)" xlink:href="#as"/><use transform="matrix(0.05,0,0,0.05,32.95,0)" xlink:href="#ao"/><use transform="matrix(0.05,0,0,0.05,47.900000000000006,0)" xlink:href="#ax"/><use transform="matrix(0.05,0,0,0.05,57.900000000000006,0)" xlink:href="#aA"/></g><g id="l"><use transform="matrix(0.05,0,0,0.05,0,0)" xlink:href="#at"/><use transform="matrix(0.05,0,0,0.05,10,0)" xlink:href="#ax"/><use transform="matrix(0.05,0,0,0.05,20,0)" xlink:href="#am"/><use transform="matrix(0.05,0,0,0.05,25,0)" xlink:href="#ap"/></g><g id="m"><use transform="matrix(0.05,0,0,0.05,0,0)" xlink:href="#al"/><use transform="matrix(0.05,0,0,0.05,9,0)" xlink:href="#am"/><use transform="matrix(0.05,0,0,0.05,14,0)" xlink:href="#ax"/><use transform="matrix(0.05,0,0,0.05,24,0)" xlink:href="#am"/><use transform="matrix(0.05,0,0,0.05,29,0)" xlink:href="#ak"/><use transform="matrix(0.05,0,0,0.05,39,0)" xlink:href="#al"/></g><path d="M63-220v92h138v28H63V0H30v-248h175v28H63" id="aC"/><g id="n"><use transform="matrix(0.05,0,0,0.05,0,0)" xlink:href="#aC"/><use transform="matrix(0.05,0,0,0.05,10.950000000000001,0)" xlink:href="#av"/></g><path d="M205 0l-28-72H64L36 0H1l101-248h38L239 0h-34zm-38-99l-47-123c-12 45-31 82-46 123h93" id="aD"/><g id="o"><use transform="matrix(0.05,0,0,0.05,0,0)" xlink:href="#aD"/><use transform="matrix(0.05,0,0,0.05,12,0)" xlink:href="#aB"/><use transform="matrix(0.05,0,0,0.05,24.950000000000003,0)" xlink:href="#aB"/><use transform="matrix(0.05,0,0,0.05,37.900000000000006,0)" xlink:href="#ai"/><use transform="matrix(0.05,0,0,0.05,50.85000000000001,0)" xlink:href="#ah"/><use transform="matrix(0.05,0,0,0.05,62.85,0)" xlink:href="#ad"/><use transform="matrix(0.05,0,0,0.05,74.85000000000001,0)" xlink:href="#ad"/></g><g id="p"><use transform="matrix(0.05,0,0,0.05,0,0)" xlink:href="#ax"/><use transform="matrix(0.05,0,0,0.05,10,0)" xlink:href="#at"/><use transform="matrix(0.05,0,0,0.05,20,0)" xlink:href="#at"/><use transform="matrix(0.05,0,0,0.05,30,0)" xlink:href="#aq"/><use transform="matrix(0.05,0,0,0.05,35.95,0)" xlink:href="#ap"/><use transform="matrix(0.05,0,0,0.05,45.95,0)" xlink:href="#al"/><use transform="matrix(0.05,0,0,0.05,54.95,0)" xlink:href="#al"/><use transform="matrix(0.05,0,0,0.05,63.95,0)" xlink:href="#ar"/><use transform="matrix(0.05,0,0,0.05,73.95,0)" xlink:href="#as"/><use transform="matrix(0.05,0,0,0.05,77.9,0)" xlink:href="#at"/></g><g id="q"><use transform="matrix(0.05,0,0,0.05,0,0)" xlink:href="#aw"/><use transform="matrix(0.05,0,0,0.05,10,0)" xlink:href="#ak"/><use transform="matrix(0.05,0,0,0.05,20,0)" xlink:href="#ao"/><use transform="matrix(0.05,0,0,0.05,34.95,0)" xlink:href="#ay"/><use transform="matrix(0.05,0,0,0.05,44.95,0)" xlink:href="#ap"/><use transform="matrix(0.05,0,0,0.05,54.95,0)" xlink:href="#aq"/></g><g id="r"><use transform="matrix(0.05,0,0,0.05,0,0)" xlink:href="#al"/><use transform="matrix(0.05,0,0,0.05,9,0)" xlink:href="#am"/><use transform="matrix(0.05,0,0,0.05,14,0)" xlink:href="#aq"/><use transform="matrix(0.05,0,0,0.05,19.95,0)" xlink:href="#ap"/><use transform="matrix(0.05,0,0,0.05,29.950000000000003,0)" xlink:href="#ap"/><use transform="matrix(0.05,0,0,0.05,39.95,0)" xlink:href="#am"/></g><g id="s"><use transform="matrix(0.05,0,0,0.05,0,0)" xlink:href="#al"/><use transform="matrix(0.05,0,0,0.05,9,0)" xlink:href="#ak"/><use transform="matrix(0.05,0,0,0.05,19,0)" xlink:href="#ay"/><use transform="matrix(0.05,0,0,0.05,29,0)" xlink:href="#ak"/><use transform="matrix(0.05,0,0,0.05,39,0)" xlink:href="#aq"/><use transform="matrix(0.05,0,0,0.05,44.95,0)" xlink:href="#ay"/></g><path d="M115-194c55 1 70 41 70 98S169 2 115 4C84 4 66-9 55-30l1 105H24l-1-265h31l2 30c10-21 28-34 59-34zm-8 174c40 0 45-34 45-75s-6-73-45-74c-42 0-51 32-51 76 0 43 10 73 51 73" id="aE"/><g id="t"><use transform="matrix(0.05,0,0,0.05,0,0)" xlink:href="#aE"/><use transform="matrix(0.05,0,0,0.05,10,0)" xlink:href="#an"/><use transform="matrix(0.05,0,0,0.05,20,0)" xlink:href="#al"/><use transform="matrix(0.05,0,0,0.05,29,0)" xlink:href="#am"/><use transform="matrix(0.05,0,0,0.05,34,0)" xlink:href="#aj"/><use transform="matrix(0.05,0,0,0.05,43,0)" xlink:href="#an"/><use transform="matrix(0.05,0,0,0.05,53,0)" xlink:href="#at"/><use transform="matrix(0.05,0,0,0.05,63,0)" xlink:href="#ap"/></g><path d="M190 0L58-211 59 0H30v-248h39L202-35l-2-213h31V0h-41" id="aF"/><g id="u"><use transform="matrix(0.05,0,0,0.05,0,0)" xlink:href="#au"/><use transform="matrix(0.05,0,0,0.05,12,0)" xlink:href="#ah"/><use transform="matrix(0.05,0,0,0.05,24,0)" xlink:href="#ai"/><use transform="matrix(0.05,0,0,0.05,36.95,0)" xlink:href="#ad"/><use transform="matrix(0.05,0,0,0.05,48.95,0)" xlink:href="#af"/><use transform="matrix(0.05,0,0,0.05,62.95,0)" xlink:href="#aF"/></g><path d="M68-38c1 34 0 65-14 84H32c9-13 17-26 17-46H33v-38h35" id="aG"/><g id="v"><use transform="matrix(0.05,0,0,0.05,0,0)" xlink:href="#au"/><use transform="matrix(0.05,0,0,0.05,12,0)" xlink:href="#av"/><use transform="matrix(0.05,0,0,0.05,24,0)" xlink:href="#aG"/></g><path d="M101-234c-31-9-42 10-38 44h38v23H63V0H32v-167H5v-23h27c-7-52 17-82 69-68v24" id="aH"/><g id="w"><use transform="matrix(0.05,0,0,0.05,0,0)" xlink:href="#aH"/><use transform="matrix(0.05,0,0,0.05,5,0)" xlink:href="#as"/><use transform="matrix(0.05,0,0,0.05,8.95,0)" xlink:href="#aq"/><use transform="matrix(0.05,0,0,0.05,14.899999999999999,0)" xlink:href="#al"/><use transform="matrix(0.05,0,0,0.05,23.9,0)" xlink:href="#am"/><use transform="matrix(0.05,0,0,0.05,28.899999999999995,0)" xlink:href="#ar"/><use transform="matrix(0.05,0,0,0.05,38.9,0)" xlink:href="#aw"/><use transform="matrix(0.05,0,0,0.05,48.9,0)" xlink:href="#ax"/><use transform="matrix(0.05,0,0,0.05,58.900000000000006,0)" xlink:href="#ao"/><use transform="matrix(0.05,0,0,0.05,73.85,0)" xlink:href="#ap"/></g><g id="x"><use transform="matrix(0.05,0,0,0.05,0,0)" xlink:href="#aA"/><use transform="matrix(0.05,0,0,0.05,3.95,0)" xlink:href="#ax"/><use transform="matrix(0.05,0,0,0.05,13.949999999999998,0)" xlink:href="#al"/><use transform="matrix(0.05,0,0,0.05,22.95,0)" xlink:href="#am"/><use transform="matrix(0.05,0,0,0.05,27.950000000000003,0)" xlink:href="#ar"/><use transform="matrix(0.05,0,0,0.05,37.95,0)" xlink:href="#aw"/><use transform="matrix(0.05,0,0,0.05,47.95,0)" xlink:href="#ax"/><use transform="matrix(0.05,0,0,0.05,57.95,0)" xlink:href="#ao"/><use transform="matrix(0.05,0,0,0.05,72.9,0)" xlink:href="#ap"/></g><path d="M137-103V0h-34v-103L8-248h37l75 118 75-118h37" id="aI"/><g id="y"><use transform="matrix(0.05,0,0,0.05,0,0)" xlink:href="#ab"/><use transform="matrix(0.05,0,0,0.05,12.950000000000001,0)" xlink:href="#af"/><use transform="matrix(0.05,0,0,0.05,26.950000000000003,0)" xlink:href="#ag"/><use transform="matrix(0.05,0,0,0.05,41.900000000000006,0)" xlink:href="#au"/><use transform="matrix(0.05,0,0,0.05,52.550000000000004,0)" xlink:href="#aD"/><use transform="matrix(0.05,0,0,0.05,64.55000000000001,0)" xlink:href="#aF"/><use transform="matrix(0.05,0,0,0.05,77.50000000000001,0)" xlink:href="#aI"/></g><g id="z"><use transform="matrix(0.05,0,0,0.05,0,0)" xlink:href="#aw"/><use transform="matrix(0.05,0,0,0.05,10,0)" xlink:href="#ax"/><use transform="matrix(0.05,0,0,0.05,20,0)" xlink:href="#ao"/><use transform="matrix(0.05,0,0,0.05,34.95,0)" xlink:href="#ap"/></g><g id="A"><use transform="matrix(0.05,0,0,0.05,0,0)" xlink:href="#aA"/><use transform="matrix(0.05,0,0,0.05,3.95,0)" xlink:href="#an"/><use transform="matrix(0.05,0,0,0.05,13.949999999999998,0)" xlink:href="#az"/><use transform="matrix(0.05,0,0,0.05,23.95,0)" xlink:href="#an"/></g><g id="B"><use transform="matrix(0.05,0,0,0.05,0,0)" xlink:href="#au"/><use transform="matrix(0.05,0,0,0.05,10.65,0)" xlink:href="#aD"/><use transform="matrix(0.05,0,0,0.05,21.3,0)" xlink:href="#aI"/><use transform="matrix(0.05,0,0,0.05,33.3,0)" xlink:href="#ag"/><use transform="matrix(0.05,0,0,0.05,48.25,0)" xlink:href="#ah"/><use transform="matrix(0.05,0,0,0.05,60.25,0)" xlink:href="#aF"/><use transform="matrix(0.05,0,0,0.05,73.2,0)" xlink:href="#ae"/></g><path d="M179-190L93 31C79 59 56 82 12 73V49c39 6 53-20 64-50L1-190h34L92-34l54-156h33" id="aJ"/><g id="C"><use transform="matrix(0.05,0,0,0.05,0,0)" xlink:href="#aE"/><use transform="matrix(0.05,0,0,0.05,10,0)" xlink:href="#ax"/><use transform="matrix(0.05,0,0,0.05,20,0)" xlink:href="#aJ"/><use transform="matrix(0.05,0,0,0.05,29,0)" xlink:href="#ao"/><use transform="matrix(0.05,0,0,0.05,43.95,0)" xlink:href="#ap"/><use transform="matrix(0.05,0,0,0.05,53.95,0)" xlink:href="#aw"/><use transform="matrix(0.05,0,0,0.05,63.95,0)" xlink:href="#am"/><use transform="matrix(0.05,0,0,0.05,68.95,0)" xlink:href="#ar"/><use transform="matrix(0.05,0,0,0.05,78.95,0)" xlink:href="#as"/><use transform="matrix(0.05,0,0,0.05,82.9,0)" xlink:href="#at"/></g><g id="D"><use transform="matrix(0.05,0,0,0.05,0,0)" xlink:href="#ax"/><use transform="matrix(0.05,0,0,0.05,10,0)" xlink:href="#ao"/><use transform="matrix(0.05,0,0,0.05,24.950000000000003,0)" xlink:href="#an"/><use transform="matrix(0.05,0,0,0.05,34.95,0)" xlink:href="#ak"/><use transform="matrix(0.05,0,0,0.05,44.95,0)" xlink:href="#aw"/><use transform="matrix(0.05,0,0,0.05,54.95,0)" xlink:href="#am"/></g><g id="E"><use transform="matrix(0.05,0,0,0.05,0,0)" xlink:href="#at"/><use transform="matrix(0.05,0,0,0.05,10,0)" xlink:href="#ax"/><use transform="matrix(0.05,0,0,0.05,20,0)" xlink:href="#am"/><use transform="matrix(0.05,0,0,0.05,25,0)" xlink:href="#ap"/><use transform="matrix(0.05,0,0,0.05,35,0)" xlink:href="#ar"/><use transform="matrix(0.05,0,0,0.05,45,0)" xlink:href="#aE"/><use transform="matrix(0.05,0,0,0.05,55,0)" xlink:href="#ax"/><use transform="matrix(0.05,0,0,0.05,65,0)" xlink:href="#as"/><use transform="matrix(0.05,0,0,0.05,68.95,0)" xlink:href="#at"/></g><g id="F"><use transform="matrix(0.05,0,0,0.05,0,0)" xlink:href="#af"/><use transform="matrix(0.05,0,0,0.05,14,0)" xlink:href="#ai"/><use transform="matrix(0.05,0,0,0.05,26.950000000000003,0)" xlink:href="#aB"/><use transform="matrix(0.05,0,0,0.05,39.900000000000006,0)" xlink:href="#ah"/><use transform="matrix(0.05,0,0,0.05,51.900000000000006,0)" xlink:href="#ai"/><use transform="matrix(0.05,0,0,0.05,64.85000000000001,0)" xlink:href="#ar"/><use transform="matrix(0.05,0,0,0.05,74.85000000000001,0)" xlink:href="#au"/><use transform="matrix(0.05,0,0,0.05,86.85000000000001,0)" xlink:href="#ai"/><use transform="matrix(0.05,0,0,0.05,99.80000000000001,0)" xlink:href="#af"/><use transform="matrix(0.05,0,0,0.05,113.80000000000001,0)" xlink:href="#aB"/><use transform="matrix(0.05,0,0,0.05,126.75,0)" xlink:href="#ac"/><use transform="matrix(0.05,0,0,0.05,139.70000000000002,0)" xlink:href="#ab"/><use transform="matrix(0.05,0,0,0.05,152.65,0)" xlink:href="#ae"/></g><g id="G"><use transform="matrix(0.05,0,0,0.05,0,0)" xlink:href="#aE"/><use transform="matrix(0.05,0,0,0.05,10,0)" xlink:href="#aq"/><use transform="matrix(0.05,0,0,0.05,15.949999999999998,0)" xlink:href="#an"/><use transform="matrix(0.05,0,0,0.05,25.950000000000003,0)" xlink:href="#at"/><use transform="matrix(0.05,0,0,0.05,35.95,0)" xlink:href="#ak"/><use transform="matrix(0.05,0,0,0.05,45.95,0)" xlink:href="#aj"/><use transform="matrix(0.05,0,0,0.05,54.95,0)" xlink:href="#am"/><use transform="matrix(0.05,0,0,0.05,59.95,0)" xlink:href="#ar"/><use transform="matrix(0.05,0,0,0.05,69.95,0)" xlink:href="#as"/><use transform="matrix(0.05,0,0,0.05,73.9,0)" xlink:href="#at"/></g><g id="H"><use transform="matrix(0.05,0,0,0.05,0,0)" xlink:href="#au"/><use transform="matrix(0.05,0,0,0.05,12,0)" xlink:href="#ai"/><use transform="matrix(0.05,0,0,0.05,24.950000000000003,0)" xlink:href="#af"/><use transform="matrix(0.05,0,0,0.05,38.95,0)" xlink:href="#aB"/><use transform="matrix(0.05,0,0,0.05,51.900000000000006,0)" xlink:href="#ac"/><use transform="matrix(0.05,0,0,0.05,64.85000000000001,0)" xlink:href="#ab"/><use transform="matrix(0.05,0,0,0.05,77.80000000000001,0)" xlink:href="#ae"/></g><g id="I"><use transform="matrix(0.05,0,0,0.05,0,0)" xlink:href="#aE"/><use transform="matrix(0.05,0,0,0.05,10,0)" xlink:href="#aq"/><use transform="matrix(0.05,0,0,0.05,15.949999999999998,0)" xlink:href="#an"/><use transform="matrix(0.05,0,0,0.05,25.950000000000003,0)" xlink:href="#at"/><use transform="matrix(0.05,0,0,0.05,35.95,0)" xlink:href="#ak"/><use transform="matrix(0.05,0,0,0.05,45.95,0)" xlink:href="#aj"/><use transform="matrix(0.05,0,0,0.05,54.95,0)" xlink:href="#am"/><use transform="matrix(0.05,0,0,0.05,59.95,0)" xlink:href="#ar"/><use transform="matrix(0.05,0,0,0.05,69.95,0)" xlink:href="#aw"/><use transform="matrix(0.05,0,0,0.05,79.95,0)" xlink:href="#ax"/><use transform="matrix(0.05,0,0,0.05,89.95,0)" xlink:href="#ao"/><use transform="matrix(0.05,0,0,0.05,104.9,0)" xlink:href="#ap"/></g><g id="J"><use transform="matrix(0.05,0,0,0.05,0,0)" xlink:href="#aE"/><use transform="matrix(0.05,0,0,0.05,10,0)" xlink:href="#aq"/><use transform="matrix(0.05,0,0,0.05,15.949999999999998,0)" xlink:href="#as"/><use transform="matrix(0.05,0,0,0.05,19.9,0)" xlink:href="#aj"/><use transform="matrix(0.05,0,0,0.05,28.899999999999995,0)" xlink:href="#ap"/></g><g id="K"><use transform="matrix(0.05,0,0,0.05,0,0)" xlink:href="#am"/><use transform="matrix(0.05,0,0,0.05,5,0)" xlink:href="#aJ"/><use transform="matrix(0.05,0,0,0.05,14,0)" xlink:href="#aE"/><use transform="matrix(0.05,0,0,0.05,24,0)" xlink:href="#ap"/></g><path d="M30 0v-248h33v221h125V0H30" id="aK"/><path d="M33 0v-248h34V0H33" id="aL"/><g id="L"><use transform="matrix(0.05,0,0,0.05,0,0)" xlink:href="#au"/><use transform="matrix(0.05,0,0,0.05,12,0)" xlink:href="#ai"/><use transform="matrix(0.05,0,0,0.05,24.950000000000003,0)" xlink:href="#af"/><use transform="matrix(0.05,0,0,0.05,38.95,0)" xlink:href="#aB"/><use transform="matrix(0.05,0,0,0.05,51.900000000000006,0)" xlink:href="#ac"/><use transform="matrix(0.05,0,0,0.05,64.85000000000001,0)" xlink:href="#ab"/><use transform="matrix(0.05,0,0,0.05,77.80000000000001,0)" xlink:href="#ae"/><use transform="matrix(0.05,0,0,0.05,88.75000000000001,0)" xlink:href="#ar"/><use transform="matrix(0.05,0,0,0.05,98.75000000000001,0)" xlink:href="#ad"/><use transform="matrix(0.05,0,0,0.05,110.75,0)" xlink:href="#ac"/><use transform="matrix(0.05,0,0,0.05,123.7,0)" xlink:href="#au"/><use transform="matrix(0.05,0,0,0.05,135.70000000000002,0)" xlink:href="#au"/><use transform="matrix(0.05,0,0,0.05,147.70000000000002,0)" xlink:href="#aK"/><use transform="matrix(0.05,0,0,0.05,157.70000000000002,0)" xlink:href="#aL"/><use transform="matrix(0.05,0,0,0.05,162.70000000000002,0)" xlink:href="#ah"/><use transform="matrix(0.05,0,0,0.05,174.70000000000002,0)" xlink:href="#ai"/></g><g id="M"><use transform="matrix(0.05,0,0,0.05,0,0)" xlink:href="#al"/><use transform="matrix(0.05,0,0,0.05,9,0)" xlink:href="#ak"/><use transform="matrix(0.05,0,0,0.05,19,0)" xlink:href="#aE"/><use transform="matrix(0.05,0,0,0.05,29,0)" xlink:href="#aE"/><use transform="matrix(0.05,0,0,0.05,39,0)" xlink:href="#aA"/><use transform="matrix(0.05,0,0,0.05,42.95,0)" xlink:href="#as"/><use transform="matrix(0.05,0,0,0.05,46.900000000000006,0)" xlink:href="#ap"/><use transform="matrix(0.05,0,0,0.05,56.900000000000006,0)" xlink:href="#aq"/><use transform="matrix(0.05,0,0,0.05,62.85,0)" xlink:href="#ar"/><use transform="matrix(0.05,0,0,0.05,72.85000000000001,0)" xlink:href="#as"/><use transform="matrix(0.05,0,0,0.05,76.80000000000001,0)" xlink:href="#at"/></g><g id="N"><use transform="matrix(0.05,0,0,0.05,0,0)" xlink:href="#ad"/><use transform="matrix(0.05,0,0,0.05,12,0)" xlink:href="#ac"/><use transform="matrix(0.05,0,0,0.05,24.950000000000003,0)" xlink:href="#au"/><use transform="matrix(0.05,0,0,0.05,36.95,0)" xlink:href="#au"/><use transform="matrix(0.05,0,0,0.05,48.95,0)" xlink:href="#aK"/><use transform="matrix(0.05,0,0,0.05,58.95,0)" xlink:href="#aL"/><use transform="matrix(0.05,0,0,0.05,63.95,0)" xlink:href="#ah"/><use transform="matrix(0.05,0,0,0.05,75.95,0)" xlink:href="#ai"/></g><g id="O"><use transform="matrix(0.05,0,0,0.05,0,0)" xlink:href="#al"/><use transform="matrix(0.05,0,0,0.05,9,0)" xlink:href="#ak"/><use transform="matrix(0.05,0,0,0.05,19,0)" xlink:href="#aE"/><use transform="matrix(0.05,0,0,0.05,29,0)" xlink:href="#aE"/><use transform="matrix(0.05,0,0,0.05,39,0)" xlink:href="#aA"/><use transform="matrix(0.05,0,0,0.05,42.95,0)" xlink:href="#as"/><use transform="matrix(0.05,0,0,0.05,46.900000000000006,0)" xlink:href="#ap"/><use transform="matrix(0.05,0,0,0.05,56.900000000000006,0)" xlink:href="#aq"/><use transform="matrix(0.05,0,0,0.05,62.85,0)" xlink:href="#ar"/><use transform="matrix(0.05,0,0,0.05,72.85000000000001,0)" xlink:href="#aw"/><use transform="matrix(0.05,0,0,0.05,82.85000000000001,0)" xlink:href="#ax"/><use transform="matrix(0.05,0,0,0.05,92.85000000000001,0)" xlink:href="#ao"/><use transform="matrix(0.05,0,0,0.05,107.80000000000001,0)" xlink:href="#ap"/></g><path d="M197 0v-115H63V0H30v-248h33v105h134v-105h34V0h-34" id="aM"/><g id="P"><use transform="matrix(0.05,0,0,0.05,0,0)" xlink:href="#ab"/><use transform="matrix(0.05,0,0,0.05,12.950000000000001,0)" xlink:href="#aD"/><use transform="matrix(0.05,0,0,0.05,24.950000000000003,0)" xlink:href="#ad"/><use transform="matrix(0.05,0,0,0.05,36.95,0)" xlink:href="#aM"/><use transform="matrix(0.05,0,0,0.05,49.900000000000006,0)" xlink:href="#ar"/><use transform="matrix(0.05,0,0,0.05,59.900000000000006,0)" xlink:href="#au"/><use transform="matrix(0.05,0,0,0.05,70.55000000000001,0)" xlink:href="#aD"/><use transform="matrix(0.05,0,0,0.05,81.20000000000002,0)" xlink:href="#aI"/><use transform="matrix(0.05,0,0,0.05,93.20000000000002,0)" xlink:href="#ag"/><use transform="matrix(0.05,0,0,0.05,108.15000000000003,0)" xlink:href="#ah"/><use transform="matrix(0.05,0,0,0.05,120.15000000000003,0)" xlink:href="#aF"/><use transform="matrix(0.05,0,0,0.05,133.10000000000002,0)" xlink:href="#ae"/></g><path d="M106-169C34-169 62-67 57 0H25v-261h32l-1 103c12-21 28-36 61-36 89 0 53 116 60 194h-32v-121c2-32-8-49-39-48" id="aN"/><g id="Q"><use transform="matrix(0.05,0,0,0.05,0,0)" xlink:href="#aj"/><use transform="matrix(0.05,0,0,0.05,9,0)" xlink:href="#ax"/><use transform="matrix(0.05,0,0,0.05,19,0)" xlink:href="#al"/><use transform="matrix(0.05,0,0,0.05,28,0)" xlink:href="#aN"/><use transform="matrix(0.05,0,0,0.05,38,0)" xlink:href="#as"/><use transform="matrix(0.05,0,0,0.05,41.95,0)" xlink:href="#ap"/><use transform="matrix(0.05,0,0,0.05,51.95,0)" xlink:href="#aq"/><use transform="matrix(0.05,0,0,0.05,57.900000000000006,0)" xlink:href="#ar"/><use transform="matrix(0.05,0,0,0.05,67.9,0)" xlink:href="#aw"/><use transform="matrix(0.05,0,0,0.05,77.9,0)" xlink:href="#ax"/><use transform="matrix(0.05,0,0,0.05,87.9,0)" xlink:href="#ao"/><use transform="matrix(0.05,0,0,0.05,102.85000000000001,0)" xlink:href="#ap"/></g><g id="R"><use transform="matrix(0.05,0,0,0.05,0,0)" xlink:href="#ab"/><use transform="matrix(0.05,0,0,0.05,12.950000000000001,0)" xlink:href="#aM"/><use transform="matrix(0.05,0,0,0.05,25.900000000000002,0)" xlink:href="#ah"/><use transform="matrix(0.05,0,0,0.05,37.900000000000006,0)" xlink:href="#ab"/><use transform="matrix(0.05,0,0,0.05,50.85000000000001,0)" xlink:href="#av"/></g><path d="M143 0L79-87 56-68V0H24v-261h32v163l83-92h37l-77 82L181 0h-38" id="aO"/><g id="S"><use transform="matrix(0.05,0,0,0.05,0,0)" xlink:href="#aj"/><use transform="matrix(0.05,0,0,0.05,9,0)" xlink:href="#aN"/><use transform="matrix(0.05,0,0,0.05,19,0)" xlink:href="#ap"/><use transform="matrix(0.05,0,0,0.05,29,0)" xlink:href="#aj"/><use transform="matrix(0.05,0,0,0.05,38,0)" xlink:href="#aO"/><use transform="matrix(0.05,0,0,0.05,47,0)" xlink:href="#ar"/><use transform="matrix(0.05,0,0,0.05,57,0)" xlink:href="#as"/><use transform="matrix(0.05,0,0,0.05,60.95,0)" xlink:href="#at"/></g><g id="T"><use transform="matrix(0.05,0,0,0.05,0,0)" xlink:href="#ab"/><use transform="matrix(0.05,0,0,0.05,12.950000000000001,0)" xlink:href="#ai"/><use transform="matrix(0.05,0,0,0.05,25.900000000000002,0)" xlink:href="#ah"/><use transform="matrix(0.05,0,0,0.05,37.900000000000006,0)" xlink:href="#aB"/><use transform="matrix(0.05,0,0,0.05,50.85000000000001,0)" xlink:href="#aL"/><use transform="matrix(0.05,0,0,0.05,55.85,0)" xlink:href="#ae"/></g><g id="U"><use transform="matrix(0.05,0,0,0.05,0,0)" xlink:href="#aj"/><use transform="matrix(0.05,0,0,0.05,9,0)" xlink:href="#ax"/><use transform="matrix(0.05,0,0,0.05,19,0)" xlink:href="#aq"/><use transform="matrix(0.05,0,0,0.05,24.95,0)" xlink:href="#at"/><use transform="matrix(0.05,0,0,0.05,34.95,0)" xlink:href="#ar"/><use transform="matrix(0.05,0,0,0.05,44.95,0)" xlink:href="#aw"/><use transform="matrix(0.05,0,0,0.05,54.95,0)" xlink:href="#ak"/><use transform="matrix(0.05,0,0,0.05,64.95,0)" xlink:href="#ao"/><use transform="matrix(0.05,0,0,0.05,79.9,0)" xlink:href="#ay"/><use transform="matrix(0.05,0,0,0.05,89.9,0)" xlink:href="#ap"/><use transform="matrix(0.05,0,0,0.05,99.9,0)" xlink:href="#aq"/></g><path fill="#3a414a" d="M115-194c55 1 70 41 70 98S169 2 115 4C84 4 66-9 55-30l1 105H24l-1-265h31l2 30c10-21 28-34 59-34zm-8 174c40 0 45-34 45-75s-6-73-45-74c-42 0-51 32-51 76 0 43 10 73 51 73" id="aP"/><path fill="#3a414a" d="M24 0v-261h32V0H24" id="aQ"/><path fill="#3a414a" d="M141-36C126-15 110 5 73 4 37 3 15-17 15-53c-1-64 63-63 125-63 3-35-9-54-41-54-24 1-41 7-42 31l-33-3c5-37 33-52 76-52 45 0 72 20 72 64v82c-1 20 7 32 28 27v20c-31 9-61-2-59-35zM48-53c0 20 12 33 32 33 41-3 63-29 60-74-43 2-92-5-92 41" id="aR"/><path fill="#3a414a" d="M96-169c-40 0-48 33-48 73s9 75 48 75c24 0 41-14 43-38l32 2c-6 37-31 61-74 61-59 0-76-41-82-99-10-93 101-131 147-64 4 7 5 14 7 22l-32 3c-4-21-16-35-41-35" id="aS"/><path fill="#3a414a" d="M100-194c63 0 86 42 84 106H49c0 40 14 67 53 68 26 1 43-12 49-29l28 8c-11 28-37 45-77 45C44 4 14-33 15-96c1-61 26-98 85-98zm52 81c6-60-76-77-97-28-3 7-6 17-6 28h103" id="aT"/><path fill="#3a414a" d="M135-143c-3-34-86-38-87 0 15 53 115 12 119 90S17 21 10-45l28-5c4 36 97 45 98 0-10-56-113-15-118-90-4-57 82-63 122-42 12 7 21 19 24 35" id="aU"/><g id="V"><use transform="matrix(0.05,0,0,0.05,0,0)" xlink:href="#aP"/><use transform="matrix(0.05,0,0,0.05,10,0)" xlink:href="#aQ"/><use transform="matrix(0.05,0,0,0.05,13.949999999999998,0)" xlink:href="#aR"/><use transform="matrix(0.05,0,0,0.05,23.95,0)" xlink:href="#aS"/><use transform="matrix(0.05,0,0,0.05,32.95,0)" xlink:href="#aT"/><use transform="matrix(0.05,0,0,0.05,42.95,0)" xlink:href="#aU"/></g><path fill="#3a414a" d="M106-169C34-169 62-67 57 0H25v-261h32l-1 103c12-21 28-36 61-36 89 0 53 116 60 194h-32v-121c2-32-8-49-39-48" id="aV"/><g id="W"><use transform="matrix(0.05,0,0,0.05,0,0)" xlink:href="#aV"/><use transform="matrix(0.05,0,0,0.05,10,0)" xlink:href="#aR"/><use transform="matrix(0.05,0,0,0.05,20,0)" xlink:href="#aU"/></g><path fill="#3a414a" d="M109-170H84l-4-78h32zm-65 0H19l-4-78h33" id="aW"/><path fill="#3a414a" d="M24-231v-30h32v30H24zM24 0v-190h32V0H24" id="aX"/><g id="X"><use transform="matrix(0.05,0,0,0.05,0,0)" xlink:href="#aW"/><use transform="matrix(0.05,0,0,0.05,6.3500000000000005,0)" xlink:href="#aX"/><use transform="matrix(0.05,0,0,0.05,10.3,0)" xlink:href="#aU"/></g><g id="Y"><use transform="matrix(0.05,0,0,0.05,0,0)" xlink:href="#aR"/><use transform="matrix(0.05,0,0,0.05,10,0)" xlink:href="#aW"/></g><path fill="#3a414a" d="M100-194c62-1 85 37 85 99 1 63-27 99-86 99S16-35 15-95c0-66 28-99 85-99zM99-20c44 1 53-31 53-75 0-43-8-75-51-75s-53 32-53 75 10 74 51 75" id="aY"/><path fill="#3a414a" d="M117-194c89-4 53 116 60 194h-32v-121c0-31-8-49-39-48C34-167 62-67 57 0H25l-1-190h30c1 10-1 24 2 32 11-22 29-35 61-36" id="aZ"/><path fill="#3a414a" d="M59-47c-2 24 18 29 38 22v24C64 9 27 4 27-40v-127H5v-23h24l9-43h21v43h35v23H59v120" id="ba"/><g id="Z"><use transform="matrix(0.05,0,0,0.05,0,0)" xlink:href="#aS"/><use transform="matrix(0.05,0,0,0.05,9,0)" xlink:href="#aY"/><use transform="matrix(0.05,0,0,0.05,19,0)" xlink:href="#aZ"/><use transform="matrix(0.05,0,0,0.05,29,0)" xlink:href="#ba"/><use transform="matrix(0.05,0,0,0.05,34,0)" xlink:href="#aR"/><use transform="matrix(0.05,0,0,0.05,44,0)" xlink:href="#aX"/><use transform="matrix(0.05,0,0,0.05,47.95,0)" xlink:href="#aZ"/><use transform="matrix(0.05,0,0,0.05,57.95,0)" xlink:href="#aU"/></g><path fill="#3a414a" d="M114-163C36-179 61-72 57 0H25l-1-190h30c1 12-1 29 2 39 6-27 23-49 58-41v29" id="bb"/><path fill="#3a414a" d="M101-234c-31-9-42 10-38 44h38v23H63V0H32v-167H5v-23h27c-7-52 17-82 69-68v24" id="bc"/><g id="aa"><use transform="matrix(0.05,0,0,0.05,0,0)" xlink:href="#bb"/><use transform="matrix(0.05,0,0,0.05,5.95,0)" xlink:href="#aT"/><use transform="matrix(0.05,0,0,0.05,15.949999999999998,0)" xlink:href="#bc"/><use transform="matrix(0.05,0,0,0.05,20.95,0)" xlink:href="#aT"/><use transform="matrix(0.05,0,0,0.05,30.950000000000003,0)" xlink:href="#bb"/><use transform="matrix(0.05,0,0,0.05,36.9,0)" xlink:href="#aT"/><use transform="matrix(0.05,0,0,0.05,46.9,0)" xlink:href="#aZ"/><use transform="matrix(0.05,0,0,0.05,56.900000000000006,0)" xlink:href="#aS"/><use transform="matrix(0.05,0,0,0.05,65.9,0)" xlink:href="#aT"/><use transform="matrix(0.05,0,0,0.05,75.9,0)" xlink:href="#aU"/></g></defs></g></svg>